AbhayaLibre-tamil-0.ufo
<glyph name="uni0965" format="1">
  <advance width="461"/>
  <unicode hex="0965"/>
  <outline>
    <contour>
      <point x="391" y="0" type="line"/>
      <point x="316" y="0" type="line"/>
      <point x="316" y="400" type="line"/>
      <point x="391" y="400" type="line"/>
      <point x="391" y="0" type="line"/>
    </contour>
    <contour>
      <point x="215" y="0" type="line"/>
      <point x="140" y="0" type="line"/>
      <point x="140" y="400" type="line"/>
      <point x="215" y="400" type="line"/>
      <point x="215" y="0" type="line"/>
    </contour>
  </outline>
</glyph>
<glyph name="uni0B8E" format="1">
  <advance width="695"/>
  <unicode hex="0B8E"/>
  <outline>
    <contour>
      <point x="503" y="0" type="line"/>
      <point x="503" y="370" type="line"/>
      <point x="246" y="370" type="line" smooth="yes"/>
      <point x="172" y="370"/>
      <point x="120" y="314" type="qcurve" smooth="yes"/>
      <point x="68" y="259"/>
      <point x="68" y="180" type="qcurve" smooth="yes"/>
      <point x="68" y="130"/>
      <point x="86" y="93" type="qcurve" smooth="yes"/>
      <point x="104" y="56"/>
      <point x="133" y="44" type="qcurve"/>
      <point x="106" y="80"/>
      <point x="106" y="120" type="qcurve" smooth="yes"/>
      <point x="106" y="166"/>
      <point x="141" y="198" type="qcurve" smooth="yes"/>
      <point x="176" y="230"/>
      <point x="226" y="230" type="qcurve" smooth="yes"/>
      <point x="276" y="230"/>
      <point x="312" y="199" type="qcurve" smooth="yes"/>
      <point x="347" y="167"/>
      <point x="347" y="123" type="qcurve" smooth="yes"/>
      <point x="347" y="72"/>
      <point x="307" y="36" type="qcurve" smooth="yes"/>
      <point x="268" y="0"/>
      <point x="212" y="0" type="qcurve" smooth="yes"/>
      <point x="140" y="0"/>
      <point x="89" y="54" type="qcurve" smooth="yes"/>
      <point x="38" y="107"/>
      <point x="38" y="183" type="qcurve" smooth="yes"/>
      <point x="38" y="273"/>
      <point x="99" y="336" type="qcurve" smooth="yes"/>
      <point x="160" y="400"/>
      <point x="246" y="400" type="qcurve" smooth="yes"/>
      <point x="690" y="400" type="line"/>
      <point x="690" y="370" type="line"/>
      <point x="578" y="370" type="line"/>
      <point x="578" y="0" type="line"/>
      <point x="503" y="0" type="line"/>
    </contour>
    <contour>
      <point x="272" y="119" type="line"/>
      <point x="272" y="153"/>
      <point x="253" y="176" type="qcurve" smooth="yes"/>
      <point x="233" y="200"/>
      <point x="206" y="200" type="qcurve" smooth="yes"/>
      <point x="177" y="200"/>
      <point x="157" y="176" type="qcurve" smooth="yes"/>
      <point x="136" y="151"/>
      <point x="136" y="117" type="qcurve" smooth="yes"/>
      <point x="136" y="84"/>
      <point x="155" y="60" type="qcurve" smooth="yes"/>
      <point x="173" y="37"/>
      <point x="200" y="37" type="qcurve" smooth="yes"/>
      <point x="230" y="37"/>
      <point x="251" y="61" type="qcurve" smooth="yes"/>
      <point x="272" y="85"/>
      <point x="272" y="119" type="qcurve"/>
    </contour>
  </outline>
</glyph>
<glyph name="uni0B92" format="1">
  <advance width="716"/>
  <unicode hex="0B92"/>
  <outline>
    <contour>
      <point x="37" y="156" type="line"/>
      <point x="37" y="266"/>
      <point x="120" y="333" type="qcurve" smooth="yes"/>
      <point x="203" y="399"/>
      <point x="341" y="399" type="qcurve" smooth="yes"/>
      <point x="495" y="399"/>
      <point x="588" y="332" type="qcurve" smooth="yes"/>
      <point x="681" y="265"/>
      <point x="681" y="154" type="qcurve" smooth="yes"/>
      <point x="681" y="94"/>
      <point x="639" y="51" type="qcurve" smooth="yes"/>
      <point x="597" y="8"/>
      <point x="538" y="8" type="qcurve" smooth="yes"/>
      <point x="498" y="8"/>
      <point x="470" y="37" type="qcurve" smooth="yes"/>
      <point x="442" y="67"/>
      <point x="442" y="108" type="qcurve" smooth="yes"/>
      <point x="442" y="131" type="line"/>
      <point x="422" y="116"/>
      <point x="410" y="92" type="qcurve" smooth="yes"/>
      <point x="399" y="68"/>
      <point x="399" y="40" type="qcurve" smooth="yes"/>
      <point x="399" y="-7"/>
      <point x="434" y="-41" type="qcurve" smooth="yes"/>
      <point x="469" y="-74"/>
      <point x="518" y="-74" type="qcurve" smooth="yes"/>
      <point x="612" y="-74" type="line"/>
      <point x="612" y="-104" type="line"/>
      <point x="474" y="-104" type="line" smooth="yes"/>
      <point x="450" y="-104"/>
      <point x="433" y="-125" type="qcurve" smooth="yes"/>
      <point x="416" y="-146"/>
      <point x="416" y="-176" type="qcurve" smooth="yes"/>
      <point x="416" y="-224"/>
      <point x="368" y="-253" type="qcurve" smooth="yes"/>
      <point x="319" y="-282"/>
      <point x="239" y="-282" type="qcurve" smooth="yes"/>
      <point x="173" y="-282"/>
      <point x="127" y="-252" type="qcurve" smooth="yes"/>
      <point x="80" y="-221"/>
      <point x="80" y="-178" type="qcurve" smooth="yes"/>
      <point x="80" y="-151"/>
      <point x="88" y="-129" type="qcurve" smooth="yes"/>
      <point x="97" y="-106"/>
      <point x="112" y="-92" type="qcurve"/>
      <point x="133" y="-110" type="line"/>
      <point x="122" y="-123"/>
      <point x="116" y="-141" type="qcurve" smooth="yes"/>
      <point x="110" y="-158"/>
      <point x="110" y="-179" type="qcurve" smooth="yes"/>
      <point x="110" y="-212"/>
      <point x="146" y="-232" type="qcurve" smooth="yes"/>
      <point x="181" y="-252"/>
      <point x="240" y="-252" type="qcurve" smooth="yes"/>
      <point x="286" y="-252"/>
      <point x="313" y="-228" type="qcurve" smooth="yes"/>
      <point x="341" y="-204"/>
      <point x="341" y="-164" type="qcurve" smooth="yes"/>
      <point x="341" y="-129"/>
      <point x="367" y="-105" type="qcurve" smooth="yes"/>
      <point x="393" y="-80"/>
      <point x="429" y="-80" type="qcurve" smooth="yes"/>
      <point x="453" y="-80" type="line"/>
      <point x="415" y="-66"/>
      <point x="392" y="-32" type="qcurve" smooth="yes"/>
      <point x="369" y="1"/>
      <point x="369" y="43" type="qcurve" smooth="yes"/>
      <point x="369" y="99"/>
      <point x="406" y="138" type="qcurve" smooth="yes"/>
      <point x="442" y="178"/>
      <point x="494" y="178" type="qcurve"/>
      <point x="483" y="165"/>
      <point x="478" y="148" type="qcurve" smooth="yes"/>
      <point x="472" y="130"/>
      <point x="472" y="109" type="qcurve" smooth="yes"/>
      <point x="472" y="80"/>
      <point x="491" y="59" type="qcurve" smooth="yes"/>
      <point x="511" y="38"/>
      <point x="538" y="38" type="qcurve" smooth="yes"/>
      <point x="566" y="38"/>
      <point x="586" y="72" type="qcurve" smooth="yes"/>
      <point x="606" y="105"/>
      <point x="606" y="153" type="qcurve" smooth="yes"/>
      <point x="606" y="237"/>
      <point x="527" y="296" type="qcurve" smooth="yes"/>
      <point x="448" y="355"/>
      <point x="336" y="355" type="qcurve" smooth="yes"/>
      <point x="225" y="355"/>
      <point x="146" y="297" type="qcurve" smooth="yes"/>
      <point x="67" y="238"/>
      <point x="67" y="156" type="qcurve" smooth="yes"/>
      <point x="67" y="112"/>
      <point x="88" y="77" type="qcurve" smooth="yes"/>
      <point x="109" y="42"/>
      <point x="143" y="28" type="qcurve"/>
      <point x="127" y="43"/>
      <point x="119" y="63" type="qcurve" smooth="yes"/>
      <point x="110" y="83"/>
      <point x="110" y="105" type="qcurve" smooth="yes"/>
      <point x="110" y="148"/>
      <point x="140" y="178" type="qcurve" smooth="yes"/>
      <point x="170" y="208"/>
      <point x="212" y="208" type="qcurve" smooth="yes"/>
      <point x="258" y="208"/>
      <point x="291" y="176" type="qcurve" smooth="yes"/>
      <point x="324" y="145"/>
      <point x="324" y="100" type="qcurve" smooth="yes"/>
      <point x="324" y="54"/>
      <point x="288" y="22" type="qcurve" smooth="yes"/>
      <point x="252" y="-10"/>
      <point x="201" y="-10" type="qcurve" smooth="yes"/>
      <point x="133" y="-10"/>
      <point x="85" y="39" type="qcurve" smooth="yes"/>
      <point x="37" y="87"/>
      <point x="37" y="156" type="qcurve"/>
    </contour>
    <contour>
      <point x="249" y="104" type="line"/>
      <point x="249" y="135"/>
      <point x="236" y="156" type="qcurve" smooth="yes"/>
      <point x="223" y="178"/>
      <point x="204" y="178" type="qcurve" smooth="yes"/>
      <point x="177" y="178"/>
      <point x="159" y="157" type="qcurve" smooth="yes"/>
      <point x="140" y="136"/>
      <point x="140" y="106" type="qcurve" smooth="yes"/>
      <point x="140" y="70"/>
      <point x="155" y="45" type="qcurve" smooth="yes"/>
      <point x="169" y="20"/>
      <point x="190" y="20" type="qcurve" smooth="yes"/>
      <point x="214" y="20"/>
      <point x="232" y="45" type="qcurve" smooth="yes"/>
      <point x="249" y="69"/>
      <point x="249" y="104" type="qcurve"/>
    </contour>
  </outline>
</glyph>
<glyph name="uni0B9E" format="1">
  <advance width="928"/>
  <unicode hex="0B9E"/>
  <outline>
    <contour>
      <point x="897" y="88" type="line"/>
      <point x="897" y="-77"/>
      <point x="779" y="-168" type="qcurve" smooth="yes"/>
      <point x="660" y="-259"/>
      <point x="447" y="-259" type="qcurve" smooth="yes"/>
      <point x="273" y="-259"/>
      <point x="159" y="-150" type="qcurve" smooth="yes"/>
      <point x="45" y="-41"/>
      <point x="45" y="126" type="qcurve" smooth="yes"/>
      <point x="45" y="198"/>
      <point x="74" y="266" type="qcurve" smooth="yes"/>
      <point x="103" y="335"/>
      <point x="156" y="390" type="qcurve"/>
      <point x="176" y="370" type="line"/>
      <point x="127" y="318"/>
      <point x="101" y="254" type="qcurve" smooth="yes"/>
      <point x="75" y="191"/>
      <point x="75" y="125" type="qcurve" smooth="yes"/>
      <point x="75" y="-28"/>
      <point x="180" y="-129" type="qcurve" smooth="yes"/>
      <point x="286" y="-229"/>
      <point x="447" y="-229" type="qcurve" smooth="yes"/>
      <point x="617" y="-229"/>
      <point x="712" y="-145" type="qcurve" smooth="yes"/>
      <point x="806" y="-62"/>
      <point x="806" y="89" type="qcurve" smooth="yes"/>
      <point x="806" y="140"/>
      <point x="780" y="176" type="qcurve" smooth="yes"/>
      <point x="754" y="212"/>
      <point x="717" y="212" type="qcurve" smooth="yes"/>
      <point x="696" y="212"/>
      <point x="679" y="200" type="qcurve"/>
      <point x="679" y="0" type="line"/>
      <point x="604" y="0" type="line"/>
      <point x="604" y="370" type="line"/>
      <point x="434" y="370" type="line" smooth="yes"/>
      <point x="343" y="370"/>
      <point x="278" y="316" type="qcurve" smooth="yes"/>
      <point x="214" y="262"/>
      <point x="214" y="185" type="qcurve" smooth="yes"/>
      <point x="214" y="139"/>
      <point x="231" y="103" type="qcurve" smooth="yes"/>
      <point x="247" y="67"/>
      <point x="276" y="50" type="qcurve"/>
      <point x="266" y="62"/>
      <point x="260" y="79" type="qcurve" smooth="yes"/>
      <point x="255" y="96"/>
      <point x="255" y="115" type="qcurve" smooth="yes"/>
      <point x="255" y="169"/>
      <point x="287" y="201" type="qcurve" smooth="yes"/>
      <point x="319" y="233"/>
      <point x="373" y="233" type="qcurve" smooth="yes"/>
      <point x="427" y="233"/>
      <point x="459" y="201" type="qcurve" smooth="yes"/>
      <point x="492" y="169"/>
      <point x="492" y="115" type="qcurve" smooth="yes"/>
      <point x="492" y="63"/>
      <point x="453" y="31" type="qcurve" smooth="yes"/>
      <point x="415" y="0"/>
      <point x="351" y="0" type="qcurve" smooth="yes"/>
      <point x="275" y="0"/>
      <point x="230" y="50" type="qcurve" smooth="yes"/>
      <point x="184" y="101"/>
      <point x="184" y="184" type="qcurve" smooth="yes"/>
      <point x="184" y="278"/>
      <point x="255" y="339" type="qcurve" smooth="yes"/>
      <point x="327" y="400"/>
      <point x="436" y="400" type="qcurve" smooth="yes"/>
      <point x="800" y="400" type="line"/>
      <point x="800" y="370" type="line"/>
      <point x="679" y="370" type="line"/>
      <point x="679" y="228" type="line"/>
      <point x="710" y="242"/>
      <point x="731" y="242" type="qcurve" smooth="yes"/>
      <point x="806" y="242"/>
      <point x="852" y="200" type="qcurve" smooth="yes"/>
      <point x="897" y="158"/>
      <point x="897" y="88" type="qcurve"/>
    </contour>
    <contour>
      <point x="417" y="119" type="line"/>
      <point x="417" y="154"/>
      <point x="398" y="178" type="qcurve" smooth="yes"/>
      <point x="378" y="203"/>
      <point x="351" y="203" type="qcurve" smooth="yes"/>
      <point x="324" y="203"/>
      <point x="304" y="178" type="qcurve" smooth="yes"/>
      <point x="285" y="153"/>
      <point x="285" y="117" type="qcurve" smooth="yes"/>
      <point x="285" y="85"/>
      <point x="304" y="63" type="qcurve" smooth="yes"/>
      <point x="324" y="40"/>
      <point x="351" y="40" type="qcurve" smooth="yes"/>
      <point x="378" y="40"/>
      <point x="398" y="63" type="qcurve" smooth="yes"/>
      <point x="417" y="86"/>
      <point x="417" y="119" type="qcurve"/>
    </contour>
  </outline>
</glyph>
<glyph name="uni0B9F" format="1">
  <advance width="774"/>
  <unicode hex="0B9F"/>
  <outline>
    <contour>
      <point x="769" y="0" type="line"/>
      <point x="70" y="0" type="line"/>
      <point x="70" y="400" type="line"/>
      <point x="145" y="400" type="line"/>
      <point x="145" y="30" type="line"/>
      <point x="769" y="30" type="line"/>
      <point x="769" y="0" type="line"/>
    </contour>
  </outline>
</glyph>
<glyph name="uni0BA8" format="1">
  <advance width="562"/>
  <unicode hex="0BA8"/>
  <outline>
    <contour>
      <point x="526" y="103" type="line"/>
      <point x="526" y="8"/>
      <point x="470" y="-45" type="qcurve" smooth="yes"/>
      <point x="414" y="-98"/>
      <point x="312" y="-98" type="qcurve" smooth="yes"/>
      <point x="137" y="-98" type="line" smooth="yes"/>
      <point x="111" y="-98"/>
      <point x="92" y="-109" type="qcurve" smooth="yes"/>
      <point x="74" y="-121"/>
      <point x="74" y="-137" type="qcurve"/>
      <point x="84" y="-136" type="line" smooth="yes"/>
      <point x="88" y="-135"/>
      <point x="89" y="-135" type="qcurve" smooth="yes"/>
      <point x="106" y="-135"/>
      <point x="117" y="-148" type="qcurve" smooth="yes"/>
      <point x="129" y="-162"/>
      <point x="129" y="-181" type="qcurve" smooth="yes"/>
      <point x="129" y="-197"/>
      <point x="116" y="-209" type="qcurve" smooth="yes"/>
      <point x="102" y="-220"/>
      <point x="83" y="-220" type="qcurve" smooth="yes"/>
      <point x="63" y="-220"/>
      <point x="48" y="-205" type="qcurve" smooth="yes"/>
      <point x="34" y="-190"/>
      <point x="34" y="-169" type="qcurve" smooth="yes"/>
      <point x="34" y="-127"/>
      <point x="65" y="-98" type="qcurve" smooth="yes"/>
      <point x="97" y="-68"/>
      <point x="141" y="-68" type="qcurve" smooth="yes"/>
      <point x="315" y="-68" type="line" smooth="yes"/>
      <point x="385" y="-68"/>
      <point x="418" y="-26" type="qcurve" smooth="yes"/>
      <point x="451" y="16"/>
      <point x="451" y="105" type="qcurve" smooth="yes"/>
      <point x="451" y="151"/>
      <point x="427" y="184" type="qcurve" smooth="yes"/>
      <point x="404" y="217"/>
      <point x="370" y="217" type="qcurve" smooth="yes"/>
      <point x="358" y="217"/>
      <point x="345" y="211" type="qcurve" smooth="yes"/>
      <point x="332" y="205"/>
      <point x="321" y="194" type="qcurve"/>
      <point x="321" y="0" type="line"/>
      <point x="246" y="0" type="line"/>
      <point x="246" y="370" type="line"/>
      <point x="100" y="370" type="line"/>
      <point x="100" y="0" type="line"/>
      <point x="70" y="0" type="line"/>
      <point x="70" y="400" type="line"/>
      <point x="504" y="400" type="line"/>
      <point x="504" y="370" type="line"/>
      <point x="321" y="370" type="line"/>
      <point x="321" y="230" type="line"/>
      <point x="332" y="238"/>
      <point x="350" y="243" type="qcurve" smooth="yes"/>
      <point x="368" y="247"/>
      <point x="392" y="247" type="qcurve" smooth="yes"/>
      <point x="448" y="247"/>
      <point x="487" y="205" type="qcurve" smooth="yes"/>
      <point x="526" y="163"/>
      <point x="526" y="103" type="qcurve"/>
    </contour>
  </outline>
</glyph>
<glyph name="uni0BA9" format="1">
  <advance width="882"/>
  <unicode hex="0BA9"/>
  <outline>
    <contour>
      <point x="876" y="367" type="line"/>
      <point x="768" y="367" type="line"/>
      <point x="768" y="0" type="line"/>
      <point x="693" y="0" type="line"/>
      <point x="693" y="367" type="line"/>
      <point x="635" y="367" type="line" smooth="yes"/>
      <point x="592" y="367"/>
      <point x="559" y="357" type="qcurve" smooth="yes"/>
      <point x="527" y="346"/>
      <point x="510" y="327" type="qcurve"/>
      <point x="551" y="291"/>
      <point x="574" y="241" type="qcurve" smooth="yes"/>
      <point x="597" y="191"/>
      <point x="597" y="137" type="qcurve" smooth="yes"/>
      <point x="597" y="78"/>
      <point x="566" y="37" type="qcurve" smooth="yes"/>
      <point x="534" y="-5"/>
      <point x="490" y="-5" type="qcurve" smooth="yes"/>
      <point x="446" y="-5"/>
      <point x="414" y="37" type="qcurve" smooth="yes"/>
      <point x="383" y="78"/>
      <point x="383" y="137" type="qcurve" smooth="yes"/>
      <point x="383" y="190"/>
      <point x="401" y="236" type="qcurve" smooth="yes"/>
      <point x="420" y="282"/>
      <point x="453" y="312" type="qcurve"/>
      <point x="421" y="339"/>
      <point x="377" y="353" type="qcurve" smooth="yes"/>
      <point x="333" y="367"/>
      <point x="282" y="367" type="qcurve" smooth="yes"/>
      <point x="193" y="367"/>
      <point x="130" y="310" type="qcurve" smooth="yes"/>
      <point x="67" y="253"/>
      <point x="67" y="172" type="qcurve" smooth="yes"/>
      <point x="67" y="121"/>
      <point x="88" y="83" type="qcurve" smooth="yes"/>
      <point x="108" y="45"/>
      <point x="141" y="35" type="qcurve"/>
      <point x="126" y="45"/>
      <point x="117" y="67" type="qcurve" smooth="yes"/>
      <point x="108" y="89"/>
      <point x="108" y="117" type="qcurve" smooth="yes"/>
      <point x="108" y="168"/>
      <point x="136" y="198" type="qcurve" smooth="yes"/>
      <point x="165" y="229"/>
      <point x="212" y="229" type="qcurve" smooth="yes"/>
      <point x="255" y="229"/>
      <point x="286" y="197" type="qcurve" smooth="yes"/>
      <point x="317" y="165"/>
      <point x="317" y="120" type="qcurve" smooth="yes"/>
      <point x="317" y="63"/>
      <point x="281" y="29" type="qcurve" smooth="yes"/>
      <point x="245" y="-5"/>
      <point x="185" y="-5" type="qcurve" smooth="yes"/>
      <point x="124" y="-5"/>
      <point x="80" y="46" type="qcurve" smooth="yes"/>
      <point x="37" y="98"/>
      <point x="37" y="170" type="qcurve" smooth="yes"/>
      <point x="37" y="264"/>
      <point x="113" y="331" type="qcurve" smooth="yes"/>
      <point x="188" y="397"/>
      <point x="295" y="397" type="qcurve" smooth="yes"/>
      <point x="360" y="397"/>
      <point x="410" y="384" type="qcurve" smooth="yes"/>
      <point x="461" y="372"/>
      <point x="490" y="348" type="qcurve"/>
      <point x="511" y="373"/>
      <point x="549" y="386" type="qcurve" smooth="yes"/>
      <point x="587" y="400"/>
      <point x="636" y="400" type="qcurve" smooth="yes"/>
      <point x="876" y="400" type="line"/>
      <point x="876" y="367" type="line"/>
    </contour>
    <contour>
      <point x="522" y="137" type="line"/>
      <point x="522" y="186"/>
      <point x="509" y="224" type="qcurve" smooth="yes"/>
      <point x="495" y="263"/>
      <point x="471" y="284" type="qcurve"/>
      <point x="444" y="263"/>
      <point x="428" y="224" type="qcurve" smooth="yes"/>
      <point x="413" y="185"/>
      <point x="413" y="137" type="qcurve" smooth="yes"/>
      <point x="413" y="100"/>
      <point x="429" y="73" type="qcurve" smooth="yes"/>
      <point x="445" y="47"/>
      <point x="468" y="47" type="qcurve" smooth="yes"/>
      <point x="490" y="47"/>
      <point x="506" y="73" type="qcurve" smooth="yes"/>
      <point x="522" y="100"/>
      <point x="522" y="137" type="qcurve"/>
    </contour>
    <contour>
      <point x="242" y="120" type="line"/>
      <point x="242" y="149"/>
      <point x="227" y="169" type="qcurve" smooth="yes"/>
      <point x="212" y="189"/>
      <point x="190" y="189" type="qcurve" smooth="yes"/>
      <point x="168" y="189"/>
      <point x="153" y="169" type="qcurve" smooth="yes"/>
      <point x="138" y="150"/>
      <point x="138" y="122" type="qcurve" smooth="yes"/>
      <point x="138" y="91"/>
      <point x="152" y="69" type="qcurve" smooth="yes"/>
      <point x="167" y="47"/>
      <point x="187" y="47" type="qcurve" smooth="yes"/>
      <point x="210" y="47"/>
      <point x="226" y="68" type="qcurve" smooth="yes"/>
      <point x="242" y="90"/>
      <point x="242" y="120" type="qcurve"/>
    </contour>
  </outline>
</glyph>
<glyph name="uni0BAE" format="1">
  <advance width="682"/>
  <unicode hex="0BAE"/>
  <outline>
    <contour>
      <point x="331" y="272" type="line"/>
      <point x="331" y="325"/>
      <point x="374" y="363" type="qcurve" smooth="yes"/>
      <point x="417" y="401"/>
      <point x="477" y="401" type="qcurve" smooth="yes"/>
      <point x="549" y="401"/>
      <point x="593" y="340" type="qcurve" smooth="yes"/>
      <point x="636" y="279"/>
      <point x="636" y="178" type="qcurve" smooth="yes"/>
      <point x="636" y="97"/>
      <point x="603" y="49" type="qcurve" smooth="yes"/>
      <point x="570" y="0"/>
      <point x="515" y="0" type="qcurve" smooth="yes"/>
      <point x="70" y="0" type="line"/>
      <point x="70" y="400" type="line"/>
      <point x="145" y="400" type="line"/>
      <point x="145" y="30" type="line"/>
      <point x="331" y="30" type="line"/>
      <point x="331" y="272" type="line"/>
    </contour>
    <contour>
      <point x="406" y="275" type="line"/>
      <point x="406" y="30" type="line"/>
      <point x="505" y="30" type="line" smooth="yes"/>
      <point x="551" y="30"/>
      <point x="578" y="71" type="qcurve" smooth="yes"/>
      <point x="606" y="112"/>
      <point x="606" y="180" type="qcurve" smooth="yes"/>
      <point x="606" y="267"/>
      <point x="573" y="319" type="qcurve" smooth="yes"/>
      <point x="539" y="371"/>
      <point x="484" y="371" type="qcurve" smooth="yes"/>
      <point x="452" y="371"/>
      <point x="429" y="343" type="qcurve" smooth="yes"/>
      <point x="406" y="315"/>
      <point x="406" y="275" type="qcurve"/>
    </contour>
  </outline>
</glyph>
<glyph name="uni0BAF" format="1">
  <advance width="683"/>
  <unicode hex="0BAF"/>
  <outline>
    <contour>
      <point x="613" y="0" type="line"/>
      <point x="261" y="0" type="line"/>
      <point x="261" y="66" type="line"/>
      <point x="254" y="37"/>
      <point x="227" y="19" type="qcurve" smooth="yes"/>
      <point x="200" y="1"/>
      <point x="164" y="1" type="qcurve" smooth="yes"/>
      <point x="123" y="1"/>
      <point x="93" y="36" type="qcurve" smooth="yes"/>
      <point x="64" y="70"/>
      <point x="64" y="119" type="qcurve" smooth="yes"/>
      <point x="64" y="400" type="line"/>
      <point x="139" y="400" type="line"/>
      <point x="139" y="113" type="line" smooth="yes"/>
      <point x="139" y="79"/>
      <point x="154" y="55" type="qcurve" smooth="yes"/>
      <point x="169" y="31"/>
      <point x="191" y="31" type="qcurve" smooth="yes"/>
      <point x="213" y="31"/>
      <point x="228" y="55" type="qcurve" smooth="yes"/>
      <point x="244" y="78"/>
      <point x="244" y="112" type="qcurve" smooth="yes"/>
      <point x="244" y="400" type="line"/>
      <point x="319" y="400" type="line"/>
      <point x="319" y="30" type="line"/>
      <point x="538" y="30" type="line"/>
      <point x="538" y="400" type="line"/>
      <point x="613" y="400" type="line"/>
      <point x="613" y="0" type="line"/>
    </contour>
  </outline>
</glyph>
<glyph name="uni0BB1" format="1">
  <advance width="637"/>
  <unicode hex="0BB1"/>
  <outline>
    <contour>
      <point x="591" y="172" type="line"/>
      <point x="591" y="60"/>
      <point x="524" y="-19" type="qcurve" smooth="yes"/>
      <point x="457" y="-98"/>
      <point x="362" y="-98" type="qcurve" smooth="yes"/>
      <point x="153" y="-98" type="line" smooth="yes"/>
      <point x="128" y="-98"/>
      <point x="110" y="-109" type="qcurve" smooth="yes"/>
      <point x="91" y="-120"/>
      <point x="87" y="-137" type="qcurve"/>
      <point x="105" y="-135" type="line" smooth="yes"/>
      <point x="122" y="-135"/>
      <point x="133" y="-148" type="qcurve" smooth="yes"/>
      <point x="145" y="-162"/>
      <point x="145" y="-181" type="qcurve" smooth="yes"/>
      <point x="145" y="-197"/>
      <point x="132" y="-209" type="qcurve" smooth="yes"/>
      <point x="118" y="-220"/>
      <point x="99" y="-220" type="qcurve" smooth="yes"/>
      <point x="79" y="-220"/>
      <point x="64" y="-205" type="qcurve" smooth="yes"/>
      <point x="50" y="-190"/>
      <point x="50" y="-169" type="qcurve" smooth="yes"/>
      <point x="50" y="-127"/>
      <point x="80" y="-98" type="qcurve" smooth="yes"/>
      <point x="110" y="-68"/>
      <point x="152" y="-68" type="qcurve" smooth="yes"/>
      <point x="359" y="-68" type="line" smooth="yes"/>
      <point x="424" y="-68"/>
      <point x="470" y="2" type="qcurve" smooth="yes"/>
      <point x="516" y="73"/>
      <point x="516" y="172" type="qcurve" smooth="yes"/>
      <point x="516" y="256"/>
      <point x="484" y="315" type="qcurve" smooth="yes"/>
      <point x="452" y="374"/>
      <point x="406" y="374" type="qcurve" smooth="yes"/>
      <point x="370" y="374"/>
      <point x="345" y="342" type="qcurve" smooth="yes"/>
      <point x="320" y="311"/>
      <point x="320" y="266" type="qcurve" smooth="yes"/>
      <point x="320" y="0" type="line"/>
      <point x="245" y="0" type="line"/>
      <point x="245" y="310" type="line" smooth="yes"/>
      <point x="245" y="337"/>
      <point x="223" y="355" type="qcurve" smooth="yes"/>
      <point x="202" y="374"/>
      <point x="171" y="374" type="qcurve" smooth="yes"/>
      <point x="140" y="374"/>
      <point x="117" y="353" type="qcurve" smooth="yes"/>
      <point x="95" y="333"/>
      <point x="95" y="304" type="qcurve" smooth="yes"/>
      <point x="95" y="0" type="line"/>
      <point x="65" y="0" type="line"/>
      <point x="65" y="302" type="line" smooth="yes"/>
      <point x="65" y="344"/>
      <point x="98" y="374" type="qcurve" smooth="yes"/>
      <point x="131" y="404"/>
      <point x="177" y="404" type="qcurve" smooth="yes"/>
      <point x="221" y="404"/>
      <point x="256" y="384" type="qcurve" smooth="yes"/>
      <point x="290" y="364"/>
      <point x="302" y="331" type="qcurve"/>
      <point x="315" y="364"/>
      <point x="346" y="384" type="qcurve" smooth="yes"/>
      <point x="377" y="404"/>
      <point x="414" y="404" type="qcurve" smooth="yes"/>
      <point x="487" y="404"/>
      <point x="539" y="336" type="qcurve" smooth="yes"/>
      <point x="591" y="268"/>
      <point x="591" y="172" type="qcurve"/>
    </contour>
  </outline>
</glyph>
<glyph name="uni0BB2" format="1">
  <advance width="736"/>
  <unicode hex="0BB2"/>
  <outline>
    <contour>
      <point x="686" y="204" type="line"/>
      <point x="686" y="104"/>
      <point x="645" y="52" type="qcurve" smooth="yes"/>
      <point x="603" y="1"/>
      <point x="522" y="1" type="qcurve" smooth="yes"/>
      <point x="457" y="1"/>
      <point x="418" y="32" type="qcurve" smooth="yes"/>
      <point x="379" y="63"/>
      <point x="379" y="114" type="qcurve" smooth="yes"/>
      <point x="379" y="247" type="line" smooth="yes"/>
      <point x="379" y="302"/>
      <point x="346" y="336" type="qcurve" smooth="yes"/>
      <point x="313" y="369"/>
      <point x="259" y="369" type="qcurve" smooth="yes"/>
      <point x="180" y="369"/>
      <point x="124" y="314" type="qcurve" smooth="yes"/>
      <point x="68" y="259"/>
      <point x="68" y="182" type="qcurve" smooth="yes"/>
      <point x="68" y="138"/>
      <point x="85" y="101" type="qcurve" smooth="yes"/>
      <point x="103" y="65"/>
      <point x="133" y="44" type="qcurve"/>
      <point x="121" y="56"/>
      <point x="114" y="77" type="qcurve" smooth="yes"/>
      <point x="108" y="97"/>
      <point x="108" y="123" type="qcurve" smooth="yes"/>
      <point x="108" y="166"/>
      <point x="136" y="197" type="qcurve" smooth="yes"/>
      <point x="163" y="228"/>
      <point x="202" y="228" type="qcurve" smooth="yes"/>
      <point x="253" y="228"/>
      <point x="283" y="199" type="qcurve" smooth="yes"/>
      <point x="314" y="169"/>
      <point x="314" y="120" type="qcurve" smooth="yes"/>
      <point x="314" y="66"/>
      <point x="280" y="34" type="qcurve" smooth="yes"/>
      <point x="247" y="1"/>
      <point x="191" y="1" type="qcurve" smooth="yes"/>
      <point x="128" y="1"/>
      <point x="83" y="53" type="qcurve" smooth="yes"/>
      <point x="38" y="106"/>
      <point x="38" y="180" type="qcurve" smooth="yes"/>
      <point x="38" y="271"/>
      <point x="104" y="336" type="qcurve" smooth="yes"/>
      <point x="169" y="400"/>
      <point x="262" y="400" type="qcurve" smooth="yes"/>
      <point x="349" y="400"/>
      <point x="402" y="358" type="qcurve" smooth="yes"/>
      <point x="454" y="316"/>
      <point x="454" y="246" type="qcurve" smooth="yes"/>
      <point x="454" y="117" type="line" smooth="yes"/>
      <point x="454" y="81"/>
      <point x="473" y="56" type="qcurve" smooth="yes"/>
      <point x="492" y="31"/>
      <point x="519" y="31" type="qcurve" smooth="yes"/>
      <point x="581" y="31"/>
      <point x="619" y="78" type="qcurve" smooth="yes"/>
      <point x="656" y="126"/>
      <point x="656" y="204" type="qcurve" smooth="yes"/>
      <point x="656" y="237"/>
      <point x="634" y="277" type="qcurve" smooth="yes"/>
      <point x="612" y="318"/>
      <point x="571" y="360" type="qcurve" smooth="yes"/>
      <point x="564" y="367"/>
      <point x="560" y="376" type="qcurve" smooth="yes"/>
      <point x="556" y="384"/>
      <point x="556" y="392" type="qcurve" smooth="yes"/>
      <point x="556" y="404"/>
      <point x="566" y="413" type="qcurve" smooth="yes"/>
      <point x="575" y="422"/>
      <point x="589" y="422" type="qcurve" smooth="yes"/>
      <point x="629" y="422"/>
      <point x="658" y="358" type="qcurve" smooth="yes"/>
      <point x="686" y="294"/>
      <point x="686" y="204" type="qcurve"/>
    </contour>
    <contour>
      <point x="239" y="114" type="line"/>
      <point x="239" y="149"/>
      <point x="225" y="173" type="qcurve" smooth="yes"/>
      <point x="211" y="198"/>
      <point x="191" y="198" type="qcurve" smooth="yes"/>
      <point x="169" y="198"/>
      <point x="154" y="173" type="qcurve" smooth="yes"/>
      <point x="138" y="149"/>
      <point x="138" y="114" type="qcurve" smooth="yes"/>
      <point x="138" y="80"/>
      <point x="153" y="55" type="qcurve" smooth="yes"/>
      <point x="167" y="31"/>
      <point x="188" y="31" type="qcurve" smooth="yes"/>
      <point x="209" y="31"/>
      <point x="224" y="55" type="qcurve" smooth="yes"/>
      <point x="239" y="80"/>
      <point x="239" y="114" type="qcurve"/>
    </contour>
  </outline>
</glyph>
<glyph name="uni0BBE" format="1">
  <advance width="450"/>
  <unicode hex="0BBE"/>
  <outline>
    <contour>
      <point x="445" y="370" type="line"/>
      <point x="323" y="370" type="line"/>
      <point x="323" y="0" type="line"/>
      <point x="248" y="0" type="line"/>
      <point x="248" y="370" type="line"/>
      <point x="100" y="370" type="line"/>
      <point x="100" y="0" type="line"/>
      <point x="70" y="0" type="line"/>
      <point x="70" y="400" type="line"/>
      <point x="445" y="400" type="line"/>
      <point x="445" y="370" type="line"/>
    </contour>
  </outline>
</glyph>
<glyph name="uni0BBF" format="1">
  <advance width="432"/>
  <unicode hex="0BBF"/>
  <outline>
    <contour>
      <point x="91" y="400" type="line"/>
      <point x="70" y="439"/>
      <point x="70" y="490" type="qcurve" smooth="yes"/>
      <point x="70" y="560"/>
      <point x="113" y="610" type="qcurve" smooth="yes"/>
      <point x="157" y="660"/>
      <point x="218" y="660" type="qcurve" smooth="yes"/>
      <point x="278" y="660"/>
      <point x="320" y="610" type="qcurve" smooth="yes"/>
      <point x="362" y="560"/>
      <point x="362" y="489" type="qcurve" smooth="yes"/>
      <point x="362" y="0" type="line"/>
      <point x="332" y="0" type="line"/>
      <point x="332" y="487" type="line" smooth="yes"/>
      <point x="332" y="530"/>
      <point x="297" y="561" type="qcurve" smooth="yes"/>
      <point x="262" y="591"/>
      <point x="213" y="591" type="qcurve" smooth="yes"/>
      <point x="167" y="591"/>
      <point x="135" y="559" type="qcurve" smooth="yes"/>
      <point x="102" y="527"/>
      <point x="102" y="481" type="qcurve" smooth="yes"/>
      <point x="102" y="455"/>
      <point x="108" y="435" type="qcurve" smooth="yes"/>
      <point x="114" y="414"/>
      <point x="125" y="400" type="qcurve"/>
      <point x="91" y="400" type="line"/>
    </contour>
  </outline>
</glyph>
<glyph name="uni0BC0" format="1">
  <advance width="478"/>
  <unicode hex="0BC0"/>
  <outline>
    <contour>
      <point x="332" y="535" type="line"/>
      <point x="332" y="564"/>
      <point x="319" y="584" type="qcurve" smooth="yes"/>
      <point x="306" y="605"/>
      <point x="288" y="605" type="qcurve" smooth="yes"/>
      <point x="270" y="605"/>
      <point x="258" y="585" type="qcurve" smooth="yes"/>
      <point x="245" y="565"/>
      <point x="245" y="536" type="qcurve" smooth="yes"/>
      <point x="245" y="508"/>
      <point x="257" y="488" type="qcurve" smooth="yes"/>
      <point x="270" y="468"/>
      <point x="287" y="468" type="qcurve" smooth="yes"/>
      <point x="306" y="468"/>
      <point x="319" y="488" type="qcurve" smooth="yes"/>
      <point x="332" y="507"/>
      <point x="332" y="535" type="qcurve"/>
    </contour>
    <contour>
      <point x="70" y="494" type="line"/>
      <point x="70" y="560"/>
      <point x="123" y="607" type="qcurve" smooth="yes"/>
      <point x="176" y="654"/>
      <point x="251" y="654" type="qcurve" smooth="yes"/>
      <point x="322" y="654"/>
      <point x="365" y="622" type="qcurve" smooth="yes"/>
      <point x="408" y="590"/>
      <point x="408" y="537" type="qcurve" smooth="yes"/>
      <point x="408" y="491"/>
      <point x="380" y="464" type="qcurve" smooth="yes"/>
      <point x="351" y="436"/>
      <point x="304" y="436" type="qcurve" smooth="yes"/>
      <point x="262" y="436"/>
      <point x="236" y="462" type="qcurve" smooth="yes"/>
      <point x="211" y="487"/>
      <point x="211" y="530" type="qcurve" smooth="yes"/>
      <point x="211" y="556"/>
      <point x="219" y="577" type="qcurve" smooth="yes"/>
      <point x="228" y="598"/>
      <point x="243" y="610" type="qcurve"/>
      <point x="184" y="610"/>
      <point x="143" y="576" type="qcurve" smooth="yes"/>
      <point x="101" y="541"/>
      <point x="101" y="493" type="qcurve" smooth="yes"/>
      <point x="101" y="464"/>
      <point x="109" y="440" type="qcurve" smooth="yes"/>
      <point x="117" y="416"/>
      <point x="132" y="400" type="qcurve"/>
      <point x="96" y="400" type="line"/>
      <point x="70" y="442"/>
      <point x="70" y="494" type="qcurve"/>
    </contour>
  </outline>
</glyph>
<glyph name="uni0BC2" format="1">
  <advance width="593"/>
  <unicode hex="0BC2"/>
  <outline>
    <contour>
      <point x="553" y="289" type="line"/>
      <point x="553" y="176"/>
      <point x="480" y="107" type="qcurve" smooth="yes"/>
      <point x="406" y="39"/>
      <point x="284" y="39" type="qcurve" smooth="yes"/>
      <point x="179" y="39"/>
      <point x="116" y="99" type="qcurve" smooth="yes"/>
      <point x="53" y="159"/>
      <point x="53" y="259" type="qcurve"/>
      <point x="89" y="259" type="line"/>
      <point x="89" y="173"/>
      <point x="142" y="121" type="qcurve" smooth="yes"/>
      <point x="195" y="69"/>
      <point x="283" y="69" type="qcurve" smooth="yes"/>
      <point x="371" y="69"/>
      <point x="425" y="129" type="qcurve" smooth="yes"/>
      <point x="478" y="189"/>
      <point x="478" y="288" type="qcurve" smooth="yes"/>
      <point x="478" y="388"/>
      <point x="436" y="449" type="qcurve" smooth="yes"/>
      <point x="394" y="509"/>
      <point x="324" y="509" type="qcurve" smooth="yes"/>
      <point x="272" y="509"/>
      <point x="236" y="477" type="qcurve" smooth="yes"/>
      <point x="199" y="445"/>
      <point x="199" y="400" type="qcurve"/>
      <point x="374" y="400" type="line"/>
      <point x="374" y="320" type="line" smooth="yes"/>
      <point x="374" y="281"/>
      <point x="343" y="253" type="qcurve" smooth="yes"/>
      <point x="312" y="225"/>
      <point x="268" y="225" type="qcurve" smooth="yes"/>
      <point x="225" y="225"/>
      <point x="195" y="253" type="qcurve" smooth="yes"/>
      <point x="165" y="282"/>
      <point x="165" y="322" type="qcurve" smooth="yes"/>
      <point x="165" y="370" type="line"/>
      <point x="-135" y="370" type="line"/>
      <point x="-135" y="400" type="line"/>
      <point x="166" y="400" type="line"/>
      <point x="166" y="458"/>
      <point x="213" y="498" type="qcurve" smooth="yes"/>
      <point x="260" y="539"/>
      <point x="326" y="539" type="qcurve" smooth="yes"/>
      <point x="429" y="539"/>
      <point x="491" y="471" type="qcurve" smooth="yes"/>
      <point x="553" y="402"/>
      <point x="553" y="289" type="qcurve"/>
    </contour>
    <contour>
      <point x="299" y="321" type="line"/>
      <point x="299" y="370" type="line"/>
      <point x="195" y="370" type="line"/>
      <point x="195" y="320" type="line" smooth="yes"/>
      <point x="195" y="293"/>
      <point x="211" y="274" type="qcurve" smooth="yes"/>
      <point x="227" y="255"/>
      <point x="250" y="255" type="qcurve" smooth="yes"/>
      <point x="270" y="255"/>
      <point x="285" y="274" type="qcurve" smooth="yes"/>
      <point x="299" y="294"/>
      <point x="299" y="321" type="qcurve"/>
    </contour>
  </outline>
</glyph>
<glyph name="uni0BC6" format="1">
  <advance width="713"/>
  <unicode hex="0BC6"/>
  <outline>
    <contour>
      <point x="643" y="0" type="line"/>
      <point x="613" y="0" type="line"/>
      <point x="613" y="349" type="line" smooth="yes"/>
      <point x="613" y="453"/>
      <point x="535" y="526" type="qcurve" smooth="yes"/>
      <point x="458" y="599"/>
      <point x="348" y="599" type="qcurve" smooth="yes"/>
      <point x="223" y="599"/>
      <point x="147" y="520" type="qcurve" smooth="yes"/>
      <point x="72" y="442"/>
      <point x="72" y="311" type="qcurve" smooth="yes"/>
      <point x="72" y="184"/>
      <point x="139" y="108" type="qcurve" smooth="yes"/>
      <point x="207" y="32"/>
      <point x="319" y="32" type="qcurve" smooth="yes"/>
      <point x="329" y="32"/>
      <point x="342" y="31" type="qcurve" smooth="yes"/>
      <point x="351" y="30"/>
      <point x="354" y="31" type="qcurve"/>
      <point x="321" y="47"/>
      <point x="301" y="84" type="qcurve" smooth="yes"/>
      <point x="281" y="121"/>
      <point x="281" y="168" type="qcurve" smooth="yes"/>
      <point x="281" y="223"/>
      <point x="314" y="262" type="qcurve" smooth="yes"/>
      <point x="348" y="301"/>
      <point x="395" y="301" type="qcurve" smooth="yes"/>
      <point x="457" y="301"/>
      <point x="494" y="265" type="qcurve" smooth="yes"/>
      <point x="531" y="230"/>
      <point x="531" y="171" type="qcurve" smooth="yes"/>
      <point x="531" y="94"/>
      <point x="474" y="48" type="qcurve" smooth="yes"/>
      <point x="418" y="2"/>
      <point x="324" y="2" type="qcurve" smooth="yes"/>
      <point x="196" y="2"/>
      <point x="119" y="87" type="qcurve" smooth="yes"/>
      <point x="42" y="171"/>
      <point x="42" y="312" type="qcurve" smooth="yes"/>
      <point x="42" y="474"/>
      <point x="127" y="571" type="qcurve" smooth="yes"/>
      <point x="213" y="668"/>
      <point x="355" y="668" type="qcurve" smooth="yes"/>
      <point x="486" y="668"/>
      <point x="564" y="581" type="qcurve" smooth="yes"/>
      <point x="643" y="494"/>
      <point x="643" y="349" type="qcurve" smooth="yes"/>
      <point x="643" y="0" type="line"/>
    </contour>
    <contour>
      <point x="456" y="159" type="line"/>
      <point x="456" y="198"/>
      <point x="436" y="226" type="qcurve" smooth="yes"/>
      <point x="416" y="254"/>
      <point x="387" y="254" type="qcurve" smooth="yes"/>
      <point x="356" y="254"/>
      <point x="333" y="228" type="qcurve" smooth="yes"/>
      <point x="311" y="201"/>
      <point x="311" y="164" type="qcurve" smooth="yes"/>
      <point x="311" y="124"/>
      <point x="330" y="92" type="qcurve" smooth="yes"/>
      <point x="349" y="60"/>
      <point x="381" y="46" type="qcurve"/>
      <point x="415" y="59"/>
      <point x="435" y="90" type="qcurve" smooth="yes"/>
      <point x="456" y="121"/>
      <point x="456" y="159" type="qcurve"/>
    </contour>
  </outline>
</glyph>
<glyph name="uni0BC7" format="1">
  <advance width="629"/>
  <unicode hex="0BC7"/>
  <outline>
    <contour>
      <point x="601" y="170" type="line"/>
      <point x="601" y="99"/>
      <point x="523" y="49" type="qcurve" smooth="yes"/>
      <point x="445" y="-1"/>
      <point x="335" y="-1" type="qcurve" smooth="yes"/>
      <point x="212" y="-1"/>
      <point x="125" y="96" type="qcurve" smooth="yes"/>
      <point x="38" y="193"/>
      <point x="38" y="330" type="qcurve" smooth="yes"/>
      <point x="38" y="468"/>
      <point x="125" y="565" type="qcurve" smooth="yes"/>
      <point x="212" y="663"/>
      <point x="335" y="663" type="qcurve" smooth="yes"/>
      <point x="445" y="663"/>
      <point x="523" y="611" type="qcurve" smooth="yes"/>
      <point x="601" y="560"/>
      <point x="601" y="487" type="qcurve" smooth="yes"/>
      <point x="601" y="438"/>
      <point x="570" y="408" type="qcurve" smooth="yes"/>
      <point x="540" y="379"/>
      <point x="489" y="379" type="qcurve" smooth="yes"/>
      <point x="444" y="379"/>
      <point x="417" y="408" type="qcurve" smooth="yes"/>
      <point x="390" y="437"/>
      <point x="390" y="485" type="qcurve" smooth="yes"/>
      <point x="390" y="517"/>
      <point x="411" y="544" type="qcurve" smooth="yes"/>
      <point x="432" y="572"/>
      <point x="466" y="584" type="qcurve"/>
      <point x="411" y="612"/>
      <point x="328" y="612" type="qcurve" smooth="yes"/>
      <point x="220" y="612"/>
      <point x="144" y="530" type="qcurve" smooth="yes"/>
      <point x="68" y="447"/>
      <point x="68" y="331" type="qcurve" smooth="yes"/>
      <point x="68" y="213"/>
      <point x="143" y="129" type="qcurve" smooth="yes"/>
      <point x="219" y="46"/>
      <point x="325" y="46" type="qcurve" smooth="yes"/>
      <point x="374" y="46"/>
      <point x="410" y="53" type="qcurve" smooth="yes"/>
      <point x="445" y="60"/>
      <point x="465" y="74" type="qcurve"/>
      <point x="432" y="81"/>
      <point x="411" y="109" type="qcurve" smooth="yes"/>
      <point x="390" y="138"/>
      <point x="390" y="175" type="qcurve" smooth="yes"/>
      <point x="390" y="218"/>
      <point x="420" y="249" type="qcurve" smooth="yes"/>
      <point x="451" y="279"/>
      <point x="494" y="279" type="qcurve" smooth="yes"/>
      <point x="543" y="279"/>
      <point x="572" y="249" type="qcurve" smooth="yes"/>
      <point x="601" y="219"/>
      <point x="601" y="170" type="qcurve"/>
    </contour>
    <contour>
      <point x="526" y="482" type="line"/>
      <point x="526" y="512"/>
      <point x="512" y="533" type="qcurve" smooth="yes"/>
      <point x="497" y="554"/>
      <point x="477" y="554" type="qcurve" smooth="yes"/>
      <point x="453" y="554"/>
      <point x="437" y="533" type="qcurve" smooth="yes"/>
      <point x="420" y="512"/>
      <point x="420" y="482" type="qcurve" smooth="yes"/>
      <point x="420" y="452"/>
      <point x="436" y="430" type="qcurve" smooth="yes"/>
      <point x="453" y="409"/>
      <point x="476" y="409" type="qcurve" smooth="yes"/>
      <point x="497" y="409"/>
      <point x="511" y="430" type="qcurve" smooth="yes"/>
      <point x="526" y="452"/>
      <point x="526" y="482" type="qcurve"/>
    </contour>
    <contour>
      <point x="526" y="174" type="line"/>
      <point x="526" y="205"/>
      <point x="511" y="226" type="qcurve" smooth="yes"/>
      <point x="496" y="248"/>
      <point x="475" y="248" type="qcurve" smooth="yes"/>
      <point x="452" y="248"/>
      <point x="436" y="226" type="qcurve" smooth="yes"/>
      <point x="420" y="205"/>
      <point x="420" y="174" type="qcurve" smooth="yes"/>
      <point x="420" y="143"/>
      <point x="437" y="122" type="qcurve" smooth="yes"/>
      <point x="454" y="100"/>
      <point x="478" y="100" type="qcurve" smooth="yes"/>
      <point x="498" y="100"/>
      <point x="512" y="122" type="qcurve" smooth="yes"/>
      <point x="526" y="143"/>
      <point x="526" y="174" type="qcurve"/>
    </contour>
  </outline>
</glyph>
<glyph name="uni0BD0" format="1">
  <advance width="721"/>
  <unicode hex="0BD0"/>
  <outline>
    <contour>
      <point x="37" y="156" type="qcurve" smooth="yes"/>
      <point x="37" y="266"/>
      <point x="121" y="333" type="qcurve" smooth="yes"/>
      <point x="206" y="399"/>
      <point x="346" y="399" type="qcurve" smooth="yes"/>
      <point x="500" y="399"/>
      <point x="593" y="332" type="qcurve" smooth="yes"/>
      <point x="686" y="265"/>
      <point x="686" y="154" type="qcurve" smooth="yes"/>
      <point x="686" y="94"/>
      <point x="644" y="51" type="qcurve" smooth="yes"/>
      <point x="602" y="8"/>
      <point x="543" y="8" type="qcurve" smooth="yes"/>
      <point x="503" y="8"/>
      <point x="475" y="37" type="qcurve" smooth="yes"/>
      <point x="447" y="67"/>
      <point x="447" y="108" type="qcurve" smooth="yes"/>
      <point x="447" y="131" type="line"/>
      <point x="431" y="120"/>
      <point x="423" y="96" type="qcurve" smooth="yes"/>
      <point x="414" y="72"/>
      <point x="414" y="40" type="qcurve" smooth="yes"/>
      <point x="414" y="-7"/>
      <point x="460" y="-41" type="qcurve" smooth="yes"/>
      <point x="507" y="-74"/>
      <point x="572" y="-74" type="qcurve" smooth="yes"/>
      <point x="666" y="-74" type="line"/>
      <point x="666" y="-104" type="line"/>
      <point x="528" y="-104" type="line" smooth="yes"/>
      <point x="504" y="-104"/>
      <point x="486" y="-125" type="qcurve" smooth="yes"/>
      <point x="469" y="-146"/>
      <point x="469" y="-176" type="qcurve" smooth="yes"/>
      <point x="469" y="-224"/>
      <point x="408" y="-253" type="qcurve" smooth="yes"/>
      <point x="346" y="-282"/>
      <point x="244" y="-282" type="qcurve" smooth="yes"/>
      <point x="147" y="-282"/>
      <point x="89" y="-240" type="qcurve" smooth="yes"/>
      <point x="31" y="-199"/>
      <point x="31" y="-130" type="qcurve" smooth="yes"/>
      <point x="31" y="-97"/>
      <point x="48" y="-73" type="qcurve" smooth="yes"/>
      <point x="65" y="-50"/>
      <point x="89" y="-50" type="qcurve" smooth="yes"/>
      <point x="110" y="-50"/>
      <point x="124" y="-65" type="qcurve" smooth="yes"/>
      <point x="139" y="-79"/>
      <point x="139" y="-100" type="qcurve" smooth="yes"/>
      <point x="139" y="-153" type="line"/>
      <point x="233" y="-153" type="line"/>
      <point x="233" y="-111" type="line" smooth="yes"/>
      <point x="233" y="-89"/>
      <point x="252" y="-74" type="qcurve" smooth="yes"/>
      <point x="271" y="-59"/>
      <point x="298" y="-59" type="qcurve" smooth="yes"/>
      <point x="326" y="-59"/>
      <point x="346" y="-75" type="qcurve" smooth="yes"/>
      <point x="366" y="-91"/>
      <point x="366" y="-113" type="qcurve" smooth="yes"/>
      <point x="366" y="-183" type="line"/>
      <point x="109" y="-183" type="line"/>
      <point x="109" y="-105" type="line" smooth="yes"/>
      <point x="109" y="-95"/>
      <point x="103" y="-87" type="qcurve" smooth="yes"/>
      <point x="97" y="-80"/>
      <point x="89" y="-80" type="qcurve" smooth="yes"/>
      <point x="77" y="-80"/>
      <point x="69" y="-94" type="qcurve" smooth="yes"/>
      <point x="61" y="-109"/>
      <point x="61" y="-129" type="qcurve" smooth="yes"/>
      <point x="61" y="-185"/>
      <point x="111" y="-218" type="qcurve" smooth="yes"/>
      <point x="162" y="-252"/>
      <point x="245" y="-252" type="qcurve" smooth="yes"/>
      <point x="313" y="-252"/>
      <point x="353" y="-228" type="qcurve" smooth="yes"/>
      <point x="394" y="-204"/>
      <point x="394" y="-164" type="qcurve" smooth="yes"/>
      <point x="394" y="-129"/>
      <point x="420" y="-105" type="qcurve" smooth="yes"/>
      <point x="446" y="-80"/>
      <point x="483" y="-80" type="qcurve"/>
      <point x="439" y="-68"/>
      <point x="412" y="-34" type="qcurve" smooth="yes"/>
      <point x="384" y="0"/>
      <point x="384" y="43" type="qcurve" smooth="yes"/>
      <point x="384" y="99"/>
      <point x="418" y="138" type="qcurve" smooth="yes"/>
      <point x="451" y="178"/>
      <point x="499" y="178" type="qcurve"/>
      <point x="488" y="165"/>
      <point x="483" y="148" type="qcurve" smooth="yes"/>
      <point x="477" y="130"/>
      <point x="477" y="109" type="qcurve" smooth="yes"/>
      <point x="477" y="80"/>
      <point x="496" y="59" type="qcurve" smooth="yes"/>
      <point x="516" y="38"/>
      <point x="543" y="38" type="qcurve" smooth="yes"/>
      <point x="571" y="38"/>
      <point x="591" y="72" type="qcurve" smooth="yes"/>
      <point x="611" y="105"/>
      <point x="611" y="153" type="qcurve" smooth="yes"/>
      <point x="611" y="237"/>
      <point x="532" y="296" type="qcurve" smooth="yes"/>
      <point x="453" y="355"/>
      <point x="341" y="355" type="qcurve" smooth="yes"/>
      <point x="228" y="355"/>
      <point x="147" y="297" type="qcurve" smooth="yes"/>
      <point x="67" y="238"/>
      <point x="67" y="156" type="qcurve" smooth="yes"/>
      <point x="67" y="113"/>
      <point x="89" y="78" type="qcurve" smooth="yes"/>
      <point x="110" y="43"/>
      <point x="147" y="28" type="qcurve"/>
      <point x="134" y="41"/>
      <point x="127" y="61" type="qcurve" smooth="yes"/>
      <point x="119" y="81"/>
      <point x="119" y="105" type="qcurve" smooth="yes"/>
      <point x="119" y="148"/>
      <point x="148" y="178" type="qcurve" smooth="yes"/>
      <point x="176" y="208"/>
      <point x="217" y="208" type="qcurve" smooth="yes"/>
      <point x="263" y="208"/>
      <point x="296" y="176" type="qcurve" smooth="yes"/>
      <point x="329" y="145"/>
      <point x="329" y="100" type="qcurve" smooth="yes"/>
      <point x="329" y="54"/>
      <point x="293" y="22" type="qcurve" smooth="yes"/>
      <point x="257" y="-10"/>
      <point x="206" y="-10" type="qcurve" smooth="yes"/>
      <point x="136" y="-10"/>
      <point x="86" y="39" type="qcurve" smooth="yes"/>
      <point x="37" y="87"/>
    </contour>
    <contour>
      <point x="254" y="104" type="qcurve" smooth="yes"/>
      <point x="254" y="135"/>
      <point x="241" y="156" type="qcurve" smooth="yes"/>
      <point x="228" y="178"/>
      <point x="209" y="178" type="qcurve" smooth="yes"/>
      <point x="184" y="178"/>
      <point x="167" y="157" type="qcurve" smooth="yes"/>
      <point x="149" y="136"/>
      <point x="149" y="106" type="qcurve" smooth="yes"/>
      <point x="149" y="70"/>
      <point x="162" y="45" type="qcurve" smooth="yes"/>
      <point x="176" y="20"/>
      <point x="195" y="20" type="qcurve" smooth="yes"/>
      <point x="219" y="20"/>
      <point x="237" y="45" type="qcurve" smooth="yes"/>
      <point x="254" y="69"/>
    </contour>
    <contour>
      <point x="362" y="-9" type="qcurve" smooth="yes"/>
      <point x="362" y="-22"/>
      <point x="352" y="-32" type="qcurve" smooth="yes"/>
      <point x="343" y="-41"/>
      <point x="329" y="-41" type="qcurve" smooth="yes"/>
      <point x="312" y="-41"/>
      <point x="299" y="-31" type="qcurve" smooth="yes"/>
      <point x="287" y="-22"/>
      <point x="287" y="-8" type="qcurve" smooth="yes"/>
      <point x="287" y="5"/>
      <point x="299" y="14" type="qcurve" smooth="yes"/>
      <point x="312" y="23"/>
      <point x="329" y="23" type="qcurve" smooth="yes"/>
      <point x="343" y="23"/>
      <point x="352" y="14" type="qcurve" smooth="yes"/>
      <point x="362" y="4"/>
    </contour>
    <contour>
      <point x="322" y="-109" type="line" smooth="yes"/>
      <point x="322" y="-101"/>
      <point x="314" y="-95" type="qcurve" smooth="yes"/>
      <point x="307" y="-89"/>
      <point x="296" y="-89" type="qcurve" smooth="yes"/>
      <point x="288" y="-89"/>
      <point x="283" y="-95" type="qcurve" smooth="yes"/>
      <point x="277" y="-101"/>
      <point x="277" y="-109" type="qcurve" smooth="yes"/>
      <point x="277" y="-153" type="line"/>
      <point x="322" y="-153" type="line"/>
    </contour>
  </outline>
</glyph>
<glyph name="uni0BE8" format="1">
  <advance width="573"/>
  <unicode hex="0BE8"/>
  <outline>
    <contour>
      <point x="523" y="0" type="line"/>
      <point x="142" y="0" type="line" smooth="yes"/>
      <point x="104" y="0"/>
      <point x="77" y="19" type="qcurve" smooth="yes"/>
      <point x="50" y="37"/>
      <point x="50" y="64" type="qcurve" smooth="yes"/>
      <point x="50" y="89"/>
      <point x="73" y="107" type="qcurve" smooth="yes"/>
      <point x="96" y="125"/>
      <point x="129" y="125" type="qcurve" smooth="yes"/>
      <point x="280" y="125" type="line" smooth="yes"/>
      <point x="322" y="125"/>
      <point x="352" y="162" type="qcurve" smooth="yes"/>
      <point x="382" y="200"/>
      <point x="382" y="253" type="qcurve" smooth="yes"/>
      <point x="382" y="302"/>
      <point x="349" y="337" type="qcurve" smooth="yes"/>
      <point x="316" y="372"/>
      <point x="269" y="372" type="qcurve" smooth="yes"/>
      <point x="206" y="372" type="line"/>
      <point x="234" y="366"/>
      <point x="253" y="341" type="qcurve" smooth="yes"/>
      <point x="271" y="315"/>
      <point x="271" y="280" type="qcurve" smooth="yes"/>
      <point x="271" y="241"/>
      <point x="240" y="214" type="qcurve" smooth="yes"/>
      <point x="209" y="186"/>
      <point x="165" y="186" type="qcurve" smooth="yes"/>
      <point x="122" y="186"/>
      <point x="91" y="214" type="qcurve" smooth="yes"/>
      <point x="60" y="241"/>
      <point x="60" y="280" type="qcurve" smooth="yes"/>
      <point x="60" y="335"/>
      <point x="112" y="369" type="qcurve" smooth="yes"/>
      <point x="164" y="402"/>
      <point x="250" y="402" type="qcurve" smooth="yes"/>
      <point x="346" y="402"/>
      <point x="403" y="361" type="qcurve" smooth="yes"/>
      <point x="461" y="320"/>
      <point x="461" y="252" type="qcurve" smooth="yes"/>
      <point x="461" y="187"/>
      <point x="409" y="141" type="qcurve" smooth="yes"/>
      <point x="357" y="95"/>
      <point x="284" y="95" type="qcurve" smooth="yes"/>
      <point x="150" y="95" type="line" smooth="yes"/>
      <point x="136" y="95"/>
      <point x="125" y="86" type="qcurve" smooth="yes"/>
      <point x="115" y="76"/>
      <point x="115" y="63" type="qcurve" smooth="yes"/>
      <point x="115" y="49"/>
      <point x="126" y="40" type="qcurve" smooth="yes"/>
      <point x="137" y="30"/>
      <point x="153" y="30" type="qcurve" smooth="yes"/>
      <point x="523" y="30" type="line"/>
      <point x="523" y="0" type="line"/>
    </contour>
    <contour>
      <point x="170" y="283" type="line"/>
      <point x="170" y="305"/>
      <point x="158" y="320" type="qcurve" smooth="yes"/>
      <point x="145" y="336"/>
      <point x="128" y="336" type="qcurve" smooth="yes"/>
      <point x="111" y="336"/>
      <point x="99" y="319" type="qcurve" smooth="yes"/>
      <point x="87" y="302"/>
      <point x="87" y="278" type="qcurve" smooth="yes"/>
      <point x="87" y="258"/>
      <point x="99" y="243" type="qcurve" smooth="yes"/>
      <point x="112" y="229"/>
      <point x="129" y="229" type="qcurve" smooth="yes"/>
      <point x="146" y="229"/>
      <point x="158" y="245" type="qcurve" smooth="yes"/>
      <point x="170" y="261"/>
      <point x="170" y="283" type="qcurve"/>
    </contour>
  </outline>
</glyph>
<glyph name="uni0BE9" format="1">
  <advance width="664"/>
  <unicode hex="0BE9"/>
  <outline>
    <contour>
      <point x="614" y="0" type="line"/>
      <point x="236" y="0" type="line"/>
      <point x="236" y="30" type="line"/>
      <point x="387" y="30" type="line"/>
      <point x="417" y="47"/>
      <point x="434" y="76" type="qcurve" smooth="yes"/>
      <point x="451" y="106"/>
      <point x="451" y="139" type="qcurve" smooth="yes"/>
      <point x="451" y="181"/>
      <point x="427" y="210" type="qcurve" smooth="yes"/>
      <point x="403" y="240"/>
      <point x="369" y="240" type="qcurve" smooth="yes"/>
      <point x="353" y="240"/>
      <point x="338" y="233" type="qcurve" smooth="yes"/>
      <point x="323" y="225"/>
      <point x="311" y="212" type="qcurve"/>
      <point x="311" y="110" type="line"/>
      <point x="236" y="110" type="line"/>
      <point x="236" y="370" type="line"/>
      <point x="80" y="370" type="line"/>
      <point x="80" y="0" type="line"/>
      <point x="50" y="0" type="line"/>
      <point x="50" y="400" type="line"/>
      <point x="494" y="400" type="line"/>
      <point x="494" y="370" type="line"/>
      <point x="311" y="370" type="line"/>
      <point x="311" y="247" type="line"/>
      <point x="327" y="258"/>
      <point x="349" y="264" type="qcurve" smooth="yes"/>
      <point x="371" y="270"/>
      <point x="397" y="270" type="qcurve" smooth="yes"/>
      <point x="456" y="270"/>
      <point x="491" y="236" type="qcurve" smooth="yes"/>
      <point x="526" y="202"/>
      <point x="526" y="146" type="qcurve" smooth="yes"/>
      <point x="526" y="108"/>
      <point x="504" y="76" type="qcurve" smooth="yes"/>
      <point x="483" y="44"/>
      <point x="447" y="30" type="qcurve"/>
      <point x="614" y="30" type="line"/>
      <point x="614" y="0" type="line"/>
    </contour>
  </outline>
</glyph>
<glyph name="uni0BEA" format="1">
  <advance width="656"/>
  <unicode hex="0BEA"/>
  <outline>
    <contour>
      <point x="606" y="185" type="line"/>
      <point x="382" y="185" type="line"/>
      <point x="382" y="141" type="line" smooth="yes"/>
      <point x="382" y="70"/>
      <point x="335" y="34" type="qcurve" smooth="yes"/>
      <point x="289" y="-2"/>
      <point x="197" y="-2" type="qcurve" smooth="yes"/>
      <point x="130" y="-2"/>
      <point x="90" y="35" type="qcurve" smooth="yes"/>
      <point x="50" y="72"/>
      <point x="50" y="134" type="qcurve" smooth="yes"/>
      <point x="50" y="171"/>
      <point x="76" y="193" type="qcurve" smooth="yes"/>
      <point x="102" y="215"/>
      <point x="145" y="215" type="qcurve" smooth="yes"/>
      <point x="159" y="215" type="line"/>
      <point x="159" y="400" type="line"/>
      <point x="507" y="400" type="line"/>
      <point x="507" y="370" type="line"/>
      <point x="382" y="370" type="line"/>
      <point x="382" y="215" type="line"/>
      <point x="531" y="215" type="line"/>
      <point x="531" y="264" type="line"/>
      <point x="606" y="264" type="line"/>
      <point x="606" y="185" type="line"/>
    </contour>
    <contour>
      <point x="307" y="215" type="line"/>
      <point x="307" y="370" type="line"/>
      <point x="189" y="370" type="line"/>
      <point x="189" y="215" type="line"/>
      <point x="307" y="215" type="line"/>
    </contour>
    <contour>
      <point x="307" y="138" type="line"/>
      <point x="307" y="185" type="line"/>
      <point x="138" y="185" type="line" smooth="yes"/>
      <point x="112" y="185"/>
      <point x="96" y="171" type="qcurve" smooth="yes"/>
      <point x="80" y="158"/>
      <point x="80" y="135" type="qcurve" smooth="yes"/>
      <point x="80" y="86"/>
      <point x="109" y="57" type="qcurve" smooth="yes"/>
      <point x="139" y="28"/>
      <point x="188" y="28" type="qcurve" smooth="yes"/>
      <point x="242" y="28"/>
      <point x="274" y="58" type="qcurve" smooth="yes"/>
      <point x="307" y="88"/>
      <point x="307" y="138" type="qcurve"/>
    </contour>
  </outline>
</glyph>
<glyph name="uni0BEB" format="1">
  <advance width="777"/>
  <unicode hex="0BEB"/>
  <outline>
    <contour>
      <point x="50" y="200" type="line"/>
      <point x="50" y="366"/>
      <point x="159" y="484" type="qcurve" smooth="yes"/>
      <point x="267" y="601"/>
      <point x="421" y="601" type="qcurve" smooth="yes"/>
      <point x="519" y="601"/>
      <point x="589" y="551" type="qcurve" smooth="yes"/>
      <point x="658" y="501"/>
      <point x="658" y="431" type="qcurve"/>
      <point x="631" y="431" type="line"/>
      <point x="621" y="491"/>
      <point x="562" y="531" type="qcurve" smooth="yes"/>
      <point x="502" y="571"/>
      <point x="421" y="571" type="qcurve" smooth="yes"/>
      <point x="298" y="571"/>
      <point x="212" y="462" type="qcurve" smooth="yes"/>
      <point x="125" y="354"/>
      <point x="125" y="200" type="qcurve" smooth="yes"/>
      <point x="125" y="36"/>
      <point x="205" y="-63" type="qcurve" smooth="yes"/>
      <point x="285" y="-162"/>
      <point x="418" y="-162" type="qcurve" smooth="yes"/>
      <point x="515" y="-162"/>
      <point x="583" y="-97" type="qcurve" smooth="yes"/>
      <point x="652" y="-32"/>
      <point x="652" y="60" type="qcurve" smooth="yes"/>
      <point x="652" y="117"/>
      <point x="626" y="158" type="qcurve" smooth="yes"/>
      <point x="599" y="198"/>
      <point x="562" y="198" type="qcurve" smooth="yes"/>
      <point x="531" y="198"/>
      <point x="509" y="183" type="qcurve"/>
      <point x="509" y="0" type="line"/>
      <point x="434" y="0" type="line"/>
      <point x="434" y="370" type="line"/>
      <point x="287" y="370" type="line"/>
      <point x="287" y="0" type="line"/>
      <point x="257" y="0" type="line"/>
      <point x="257" y="400" type="line"/>
      <point x="634" y="400" type="line"/>
      <point x="634" y="370" type="line"/>
      <point x="509" y="370" type="line"/>
      <point x="509" y="214" type="line"/>
      <point x="540" y="228"/>
      <point x="564" y="228" type="qcurve" smooth="yes"/>
      <point x="632" y="228"/>
      <point x="679" y="178" type="qcurve" smooth="yes"/>
      <point x="727" y="128"/>
      <point x="727" y="58" type="qcurve" smooth="yes"/>
      <point x="727" y="-46"/>
      <point x="636" y="-119" type="qcurve" smooth="yes"/>
      <point x="545" y="-192"/>
      <point x="417" y="-192" type="qcurve" smooth="yes"/>
      <point x="250" y="-192"/>
      <point x="150" y="-85" type="qcurve" smooth="yes"/>
      <point x="50" y="22"/>
      <point x="50" y="200" type="qcurve"/>
    </contour>
  </outline>
</glyph>
<glyph name="uni0BEF" format="1">
  <advance width="817"/>
  <unicode hex="0BEF"/>
  <outline>
    <contour>
      <point x="50" y="134" type="line"/>
      <point x="50" y="168"/>
      <point x="76" y="191" type="qcurve" smooth="yes"/>
      <point x="103" y="215"/>
      <point x="140" y="215" type="qcurve" smooth="yes"/>
      <point x="169" y="215" type="line"/>
      <point x="169" y="400" type="line"/>
      <point x="517" y="400" type="line"/>
      <point x="517" y="370" type="line"/>
      <point x="382" y="370" type="line"/>
      <point x="382" y="215" type="line"/>
      <point x="502" y="215" type="line"/>
      <point x="515" y="226"/>
      <point x="541" y="231" type="qcurve" smooth="yes"/>
      <point x="567" y="237"/>
      <point x="603" y="237" type="qcurve" smooth="yes"/>
      <point x="671" y="237"/>
      <point x="719" y="199" type="qcurve" smooth="yes"/>
      <point x="767" y="161"/>
      <point x="767" y="108" type="qcurve" smooth="yes"/>
      <point x="767" y="75"/>
      <point x="757" y="47" type="qcurve" smooth="yes"/>
      <point x="746" y="19"/>
      <point x="727" y="0" type="qcurve"/>
      <point x="658" y="0" type="line"/>
      <point x="658" y="30" type="line"/>
      <point x="674" y="42"/>
      <point x="683" y="62" type="qcurve" smooth="yes"/>
      <point x="692" y="82"/>
      <point x="692" y="106" type="qcurve" smooth="yes"/>
      <point x="692" y="148"/>
      <point x="663" y="177" type="qcurve" smooth="yes"/>
      <point x="635" y="207"/>
      <point x="594" y="207" type="qcurve" smooth="yes"/>
      <point x="582" y="207"/>
      <point x="572" y="203" type="qcurve"/>
      <point x="605" y="186"/>
      <point x="624" y="158" type="qcurve" smooth="yes"/>
      <point x="643" y="131"/>
      <point x="643" y="101" type="qcurve" smooth="yes"/>
      <point x="643" y="56"/>
      <point x="614" y="24" type="qcurve" smooth="yes"/>
      <point x="585" y="-8"/>
      <point x="544" y="-8" type="qcurve" smooth="yes"/>
      <point x="503" y="-8"/>
      <point x="474" y="24" type="qcurve" smooth="yes"/>
      <point x="445" y="55"/>
      <point x="445" y="100" type="qcurve" smooth="yes"/>
      <point x="445" y="126"/>
      <point x="455" y="148" type="qcurve" smooth="yes"/>
      <point x="464" y="171"/>
      <point x="482" y="185" type="qcurve"/>
      <point x="382" y="185" type="line"/>
      <point x="382" y="136" type="line" smooth="yes"/>
      <point x="382" y="77"/>
      <point x="329" y="35" type="qcurve" smooth="yes"/>
      <point x="277" y="-7"/>
      <point x="202" y="-7" type="qcurve" smooth="yes"/>
      <point x="139" y="-7"/>
      <point x="95" y="34" type="qcurve" smooth="yes"/>
      <point x="50" y="76"/>
      <point x="50" y="134" type="qcurve"/>
    </contour>
    <contour>
      <point x="307" y="215" type="line"/>
      <point x="307" y="370" type="line"/>
      <point x="199" y="370" type="line"/>
      <point x="199" y="215" type="line"/>
      <point x="307" y="215" type="line"/>
    </contour>
    <contour>
      <point x="307" y="138" type="line"/>
      <point x="307" y="185" type="line"/>
      <point x="138" y="185" type="line" smooth="yes"/>
      <point x="114" y="185"/>
      <point x="97" y="170" type="qcurve" smooth="yes"/>
      <point x="80" y="156"/>
      <point x="80" y="135" type="qcurve" smooth="yes"/>
      <point x="80" y="91"/>
      <point x="111" y="60" type="qcurve" smooth="yes"/>
      <point x="143" y="29"/>
      <point x="187" y="29" type="qcurve" smooth="yes"/>
      <point x="237" y="29"/>
      <point x="272" y="61" type="qcurve" smooth="yes"/>
      <point x="307" y="93"/>
      <point x="307" y="138" type="qcurve"/>
    </contour>
    <contour>
      <point x="568" y="102" type="line"/>
      <point x="568" y="132"/>
      <point x="555" y="153" type="qcurve" smooth="yes"/>
      <point x="541" y="174"/>
      <point x="522" y="174" type="qcurve" smooth="yes"/>
      <point x="503" y="174"/>
      <point x="489" y="152" type="qcurve" smooth="yes"/>
      <point x="475" y="129"/>
      <point x="475" y="98" type="qcurve" smooth="yes"/>
      <point x="475" y="71"/>
      <point x="488" y="51" type="qcurve" smooth="yes"/>
      <point x="501" y="32"/>
      <point x="519" y="32" type="qcurve" smooth="yes"/>
      <point x="539" y="32"/>
      <point x="554" y="53" type="qcurve" smooth="yes"/>
      <point x="568" y="73"/>
      <point x="568" y="102" type="qcurve"/>
    </contour>
  </outline>
</glyph>
<glyph name="uni0BF0" format="1">
  <advance width="571"/>
  <unicode hex="0BF0"/>
  <outline>
    <contour>
      <point x="525" y="230" type="line"/>
      <point x="525" y="133"/>
      <point x="475" y="64" type="qcurve" smooth="yes"/>
      <point x="425" y="-5"/>
      <point x="355" y="-5" type="qcurve" smooth="yes"/>
      <point x="325" y="-4"/>
      <point x="298" y="15" type="qcurve" smooth="yes"/>
      <point x="271" y="34"/>
      <point x="256" y="66" type="qcurve"/>
      <point x="246" y="35"/>
      <point x="220" y="15" type="qcurve" smooth="yes"/>
      <point x="195" y="-4"/>
      <point x="163" y="-5" type="qcurve" smooth="yes"/>
      <point x="122" y="-4"/>
      <point x="94" y="27" type="qcurve" smooth="yes"/>
      <point x="65" y="59"/>
      <point x="65" y="103" type="qcurve" smooth="yes"/>
      <point x="65" y="400" type="line"/>
      <point x="95" y="400" type="line"/>
      <point x="95" y="98" type="line" smooth="yes"/>
      <point x="95" y="71"/>
      <point x="110" y="51" type="qcurve" smooth="yes"/>
      <point x="126" y="31"/>
      <point x="150" y="29" type="qcurve" smooth="yes"/>
      <point x="168" y="30"/>
      <point x="180" y="52" type="qcurve" smooth="yes"/>
      <point x="192" y="73"/>
      <point x="192" y="103" type="qcurve" smooth="yes"/>
      <point x="192" y="400" type="line"/>
      <point x="267" y="400" type="line"/>
      <point x="267" y="127" type="line" smooth="yes"/>
      <point x="268" y="85"/>
      <point x="292" y="55" type="qcurve" smooth="yes"/>
      <point x="316" y="25"/>
      <point x="350" y="25" type="qcurve" smooth="yes"/>
      <point x="391" y="25"/>
      <point x="421" y="85" type="qcurve" smooth="yes"/>
      <point x="450" y="146"/>
      <point x="450" y="231" type="qcurve" smooth="yes"/>
      <point x="450" y="323"/>
      <point x="409" y="388" type="qcurve" smooth="yes"/>
      <point x="369" y="453"/>
      <point x="311" y="453" type="qcurve" smooth="yes"/>
      <point x="65" y="453" type="line"/>
      <point x="65" y="483" type="line"/>
      <point x="320" y="483" type="line" smooth="yes"/>
      <point x="404" y="486"/>
      <point x="465" y="411" type="qcurve" smooth="yes"/>
      <point x="525" y="337"/>
      <point x="525" y="230" type="qcurve"/>
    </contour>
  </outline>
</glyph>
<glyph name="uni0BF1" format="1">
  <advance width="619"/>
  <unicode hex="0BF1"/>
  <outline>
    <contour>
      <point x="65" y="0" type="line"/>
      <point x="65" y="309" type="line" smooth="yes"/>
      <point x="65" y="347"/>
      <point x="96" y="373" type="qcurve" smooth="yes"/>
      <point x="127" y="400"/>
      <point x="171" y="400" type="qcurve" smooth="yes"/>
      <point x="214" y="400"/>
      <point x="246" y="382" type="qcurve" smooth="yes"/>
      <point x="279" y="364"/>
      <point x="287" y="335" type="qcurve"/>
      <point x="300" y="365"/>
      <point x="322" y="382" type="qcurve" smooth="yes"/>
      <point x="344" y="400"/>
      <point x="369" y="400" type="qcurve" smooth="yes"/>
      <point x="614" y="400" type="line"/>
      <point x="614" y="370" type="line"/>
      <point x="528" y="370" type="line"/>
      <point x="528" y="0" type="line"/>
      <point x="453" y="0" type="line"/>
      <point x="453" y="370" type="line"/>
      <point x="374" y="370" type="line" smooth="yes"/>
      <point x="347" y="370"/>
      <point x="328" y="342" type="qcurve" smooth="yes"/>
      <point x="309" y="315"/>
      <point x="309" y="276" type="qcurve" smooth="yes"/>
      <point x="309" y="0" type="line"/>
      <point x="234" y="0" type="line"/>
      <point x="234" y="305" type="line" smooth="yes"/>
      <point x="234" y="332"/>
      <point x="213" y="351" type="qcurve" smooth="yes"/>
      <point x="193" y="370"/>
      <point x="164" y="370" type="qcurve" smooth="yes"/>
      <point x="135" y="370"/>
      <point x="115" y="352" type="qcurve" smooth="yes"/>
      <point x="95" y="334"/>
      <point x="95" y="309" type="qcurve" smooth="yes"/>
      <point x="95" y="0" type="line"/>
      <point x="65" y="0" type="line"/>
    </contour>
  </outline>
</glyph>
<glyph name="uni0BF4" format="1">
  <advance width="681"/>
  <unicode hex="0BF4"/>
  <outline>
    <contour>
      <point x="394" y="467" type="line"/>
      <point x="394" y="508"/>
      <point x="434" y="537" type="qcurve" smooth="yes"/>
      <point x="475" y="566"/>
      <point x="532" y="566" type="qcurve"/>
      <point x="556" y="590"/>
      <point x="597" y="604" type="qcurve" smooth="yes"/>
      <point x="637" y="617"/>
      <point x="686" y="617" type="qcurve" smooth="yes"/>
      <point x="696" y="617"/>
      <point x="734" y="605" type="qcurve" smooth="yes"/>
      <point x="763" y="596" type="line"/>
      <point x="798" y="617"/>
      <point x="837" y="617" type="qcurve" smooth="yes"/>
      <point x="855" y="617"/>
      <point x="870" y="610" type="qcurve" smooth="yes"/>
      <point x="886" y="603"/>
      <point x="896" y="591" type="qcurve"/>
      <point x="886" y="573" type="line"/>
      <point x="862" y="587"/>
      <point x="845" y="587" type="qcurve" smooth="yes"/>
      <point x="831" y="587"/>
      <point x="822" y="586" type="qcurve" smooth="yes"/>
      <point x="813" y="584"/>
      <point x="808" y="582" type="qcurve"/>
      <point x="829" y="572"/>
      <point x="842" y="557" type="qcurve" smooth="yes"/>
      <point x="854" y="542"/>
      <point x="854" y="527" type="qcurve" smooth="yes"/>
      <point x="854" y="501"/>
      <point x="829" y="483" type="qcurve" smooth="yes"/>
      <point x="804" y="465"/>
      <point x="769" y="465" type="qcurve" smooth="yes"/>
      <point x="735" y="465"/>
      <point x="710" y="485" type="qcurve" smooth="yes"/>
      <point x="686" y="504"/>
      <point x="686" y="532" type="qcurve" smooth="yes"/>
      <point x="686" y="544"/>
      <point x="696" y="557" type="qcurve" smooth="yes"/>
      <point x="705" y="569"/>
      <point x="722" y="578" type="qcurve"/>
      <point x="717" y="582"/>
      <point x="707" y="585" type="qcurve" smooth="yes"/>
      <point x="697" y="587"/>
      <point x="683" y="587" type="qcurve" smooth="yes"/>
      <point x="648" y="587"/>
      <point x="624" y="581" type="qcurve" smooth="yes"/>
      <point x="599" y="575"/>
      <point x="590" y="564" type="qcurve"/>
      <point x="623" y="564"/>
      <point x="646" y="545" type="qcurve" smooth="yes"/>
      <point x="669" y="527"/>
      <point x="669" y="500" type="qcurve" smooth="yes"/>
      <point x="669" y="473"/>
      <point x="641" y="455" type="qcurve" smooth="yes"/>
      <point x="614" y="436"/>
      <point x="575" y="436" type="qcurve" smooth="yes"/>
      <point x="540" y="436"/>
      <point x="515" y="454" type="qcurve" smooth="yes"/>
      <point x="490" y="472"/>
      <point x="490" y="498" type="qcurve" smooth="yes"/>
      <point x="490" y="512"/>
      <point x="495" y="523" type="qcurve" smooth="yes"/>
      <point x="500" y="534"/>
      <point x="509" y="541" type="qcurve"/>
      <point x="474" y="541"/>
      <point x="449" y="519" type="qcurve" smooth="yes"/>
      <point x="424" y="497"/>
      <point x="424" y="466" type="qcurve" smooth="yes"/>
      <point x="424" y="446"/>
      <point x="430" y="429" type="qcurve" smooth="yes"/>
      <point x="436" y="412"/>
      <point x="447" y="401" type="qcurve" smooth="yes"/>
      <point x="450" y="402"/>
      <point x="459" y="401" type="qcurve" smooth="yes"/>
      <point x="477" y="401" type="line" smooth="yes"/>
      <point x="549" y="401"/>
      <point x="592" y="340" type="qcurve" smooth="yes"/>
      <point x="635" y="280"/>
      <point x="635" y="179" type="qcurve" smooth="yes"/>
      <point x="635" y="98"/>
      <point x="602" y="49" type="qcurve" smooth="yes"/>
      <point x="569" y="0"/>
      <point x="515" y="0" type="qcurve" smooth="yes"/>
      <point x="70" y="0" type="line"/>
      <point x="70" y="400" type="line"/>
      <point x="145" y="400" type="line"/>
      <point x="145" y="30" type="line"/>
      <point x="331" y="30" type="line"/>
      <point x="331" y="271" type="line" smooth="yes"/>
      <point x="331" y="314"/>
      <point x="355" y="348" type="qcurve" smooth="yes"/>
      <point x="379" y="383"/>
      <point x="417" y="395" type="qcurve"/>
      <point x="406" y="409"/>
      <point x="400" y="428" type="qcurve" smooth="yes"/>
      <point x="394" y="446"/>
      <point x="394" y="467" type="qcurve"/>
    </contour>
    <contour>
      <point x="594" y="500" type="line"/>
      <point x="594" y="515"/>
      <point x="581" y="525" type="qcurve" smooth="yes"/>
      <point x="569" y="536"/>
      <point x="551" y="536" type="qcurve"/>
      <point x="537" y="532"/>
      <point x="529" y="523" type="qcurve" smooth="yes"/>
      <point x="520" y="513"/>
      <point x="520" y="501" type="qcurve" smooth="yes"/>
      <point x="520" y="487"/>
      <point x="532" y="476" type="qcurve" smooth="yes"/>
      <point x="543" y="466"/>
      <point x="560" y="466" type="qcurve" smooth="yes"/>
      <point x="574" y="466"/>
      <point x="584" y="476" type="qcurve" smooth="yes"/>
      <point x="594" y="486"/>
      <point x="594" y="500" type="qcurve"/>
    </contour>
    <contour>
      <point x="797" y="527" type="line"/>
      <point x="797" y="542"/>
      <point x="788" y="552" type="qcurve" smooth="yes"/>
      <point x="779" y="563"/>
      <point x="767" y="563" type="qcurve" smooth="yes"/>
      <point x="755" y="563"/>
      <point x="746" y="552" type="qcurve" smooth="yes"/>
      <point x="737" y="542"/>
      <point x="737" y="527" type="qcurve" smooth="yes"/>
      <point x="737" y="514"/>
      <point x="746" y="504" type="qcurve" smooth="yes"/>
      <point x="755" y="495"/>
      <point x="767" y="495" type="qcurve" smooth="yes"/>
      <point x="779" y="495"/>
      <point x="788" y="504" type="qcurve" smooth="yes"/>
      <point x="797" y="514"/>
      <point x="797" y="527" type="qcurve"/>
    </contour>
    <contour>
      <point x="406" y="275" type="line"/>
      <point x="406" y="30" type="line"/>
      <point x="505" y="30" type="line" smooth="yes"/>
      <point x="550" y="30"/>
      <point x="578" y="71" type="qcurve" smooth="yes"/>
      <point x="605" y="112"/>
      <point x="605" y="180" type="qcurve" smooth="yes"/>
      <point x="605" y="267"/>
      <point x="572" y="319" type="qcurve" smooth="yes"/>
      <point x="539" y="371"/>
      <point x="484" y="371" type="qcurve" smooth="yes"/>
      <point x="452" y="371"/>
      <point x="429" y="343" type="qcurve" smooth="yes"/>
      <point x="406" y="315"/>
      <point x="406" y="275" type="qcurve"/>
    </contour>
  </outline>
</glyph>
<glyph name="uni0BFA" format="1">
  <advance width="1024"/>
  <unicode hex="0BFA"/>
  <outline>
    <contour>
      <point x="70" y="0" type="line"/>
      <point x="70" y="400" type="line"/>
      <point x="297" y="400" type="line"/>
      <point x="276" y="418"/>
      <point x="264" y="442" type="qcurve" smooth="yes"/>
      <point x="252" y="466"/>
      <point x="252" y="491" type="qcurve" smooth="yes"/>
      <point x="252" y="539"/>
      <point x="308" y="572" type="qcurve" smooth="yes"/>
      <point x="363" y="606"/>
      <point x="442" y="606" type="qcurve" smooth="yes"/>
      <point x="553" y="606"/>
      <point x="636" y="547" type="qcurve" smooth="yes"/>
      <point x="718" y="489"/>
      <point x="732" y="400" type="qcurve"/>
      <point x="811" y="400"/>
      <point x="867" y="347" type="qcurve" smooth="yes"/>
      <point x="923" y="293"/>
      <point x="923" y="218" type="qcurve" smooth="yes"/>
      <point x="923" y="151"/>
      <point x="886" y="99" type="qcurve" smooth="yes"/>
      <point x="848" y="47"/>
      <point x="789" y="31" type="qcurve"/>
      <point x="1018" y="31" type="line"/>
      <point x="1018" y="0" type="line"/>
      <point x="665" y="0" type="line"/>
      <point x="665" y="29" type="line"/>
      <point x="741" y="29"/>
      <point x="794" y="82" type="qcurve" smooth="yes"/>
      <point x="848" y="136"/>
      <point x="848" y="211" type="qcurve" smooth="yes"/>
      <point x="848" y="277"/>
      <point x="815" y="323" type="qcurve" smooth="yes"/>
      <point x="782" y="370"/>
      <point x="736" y="370" type="qcurve"/>
      <point x="745" y="331"/>
      <point x="745" y="287" type="qcurve" smooth="yes"/>
      <point x="745" y="233"/>
      <point x="715" y="195" type="qcurve" smooth="yes"/>
      <point x="685" y="157"/>
      <point x="642" y="157" type="qcurve" smooth="yes"/>
      <point x="596" y="157"/>
      <point x="564" y="192" type="qcurve" smooth="yes"/>
      <point x="532" y="227"/>
      <point x="532" y="277" type="qcurve" smooth="yes"/>
      <point x="532" y="328"/>
      <point x="581" y="364" type="qcurve" smooth="yes"/>
      <point x="630" y="400"/>
      <point x="699" y="400" type="qcurve"/>
      <point x="683" y="469"/>
      <point x="615" y="513" type="qcurve" smooth="yes"/>
      <point x="546" y="557"/>
      <point x="455" y="557" type="qcurve" smooth="yes"/>
      <point x="391" y="557"/>
      <point x="346" y="528" type="qcurve" smooth="yes"/>
      <point x="301" y="499"/>
      <point x="301" y="458" type="qcurve" smooth="yes"/>
      <point x="301" y="440"/>
      <point x="308" y="425" type="qcurve" smooth="yes"/>
      <point x="314" y="410"/>
      <point x="326" y="400" type="qcurve"/>
      <point x="502" y="400" type="line"/>
      <point x="502" y="370" type="line"/>
      <point x="317" y="370" type="line"/>
      <point x="317" y="236" type="line"/>
      <point x="334" y="249"/>
      <point x="352" y="255" type="qcurve" smooth="yes"/>
      <point x="370" y="262"/>
      <point x="388" y="262" type="qcurve" smooth="yes"/>
      <point x="441" y="262"/>
      <point x="479" y="226" type="qcurve" smooth="yes"/>
      <point x="517" y="190"/>
      <point x="517" y="139" type="qcurve" smooth="yes"/>
      <point x="517" y="81"/>
      <point x="480" y="41" type="qcurve" smooth="yes"/>
      <point x="444" y="0"/>
      <point x="392" y="0" type="qcurve" smooth="yes"/>
      <point x="242" y="0" type="line"/>
      <point x="242" y="31" type="line"/>
      <point x="348" y="31" type="line" smooth="yes"/>
      <point x="387" y="31"/>
      <point x="414" y="63" type="qcurve" smooth="yes"/>
      <point x="442" y="94"/>
      <point x="442" y="139" type="qcurve" smooth="yes"/>
      <point x="442" y="178"/>
      <point x="422" y="205" type="qcurve" smooth="yes"/>
      <point x="402" y="232"/>
      <point x="374" y="232" type="qcurve" smooth="yes"/>
      <point x="354" y="232"/>
      <point x="339" y="222" type="qcurve" smooth="yes"/>
      <point x="323" y="212"/>
      <point x="317" y="195" type="qcurve"/>
      <point x="317" y="106" type="line"/>
      <point x="242" y="106" type="line"/>
      <point x="242" y="370" type="line"/>
      <point x="100" y="370" type="line"/>
      <point x="100" y="0" type="line"/>
      <point x="70" y="0" type="line"/>
    </contour>
    <contour>
      <point x="715" y="285" type="line"/>
      <point x="715" y="348"/>
      <point x="704" y="370" type="qcurve"/>
      <point x="664" y="370"/>
      <point x="635" y="343" type="qcurve" smooth="yes"/>
      <point x="607" y="316"/>
      <point x="607" y="278" type="qcurve" smooth="yes"/>
      <point x="607" y="250"/>
      <point x="621" y="230" type="qcurve" smooth="yes"/>
      <point x="635" y="210"/>
      <point x="655" y="210" type="qcurve" smooth="yes"/>
      <point x="680" y="210"/>
      <point x="697" y="232" type="qcurve" smooth="yes"/>
      <point x="715" y="254"/>
      <point x="715" y="285" type="qcurve"/>
    </contour>
  </outline>
</glyph>
<glyph name="uni200C" format="1">
  <advance width="0"/>
  <unicode hex="200C"/>
  <outline>
    <contour>
      <point x="0" y="-301" type="line"/>
      <point x="0" y="700" type="line"/>
      <point x="41" y="700" type="line"/>
      <point x="41" y="-301" type="line"/>
      <point x="0" y="-301" type="line"/>
    </contour>
  </outline>
</glyph>
<glyph name="uni25CC" format="1">
  <advance width="577"/>
  <unicode hex="25CC"/>
  <outline>
    <contour>
      <point x="260" y="413" type="line"/>
      <point x="260" y="426"/>
      <point x="268" y="436" type="qcurve" smooth="yes"/>
      <point x="277" y="445"/>
      <point x="289" y="445" type="qcurve" smooth="yes"/>
      <point x="301" y="445"/>
      <point x="310" y="436" type="qcurve" smooth="yes"/>
      <point x="318" y="426"/>
      <point x="318" y="413" type="qcurve" smooth="yes"/>
      <point x="318" y="399"/>
      <point x="310" y="390" type="qcurve" smooth="yes"/>
      <point x="301" y="380"/>
      <point x="289" y="380" type="qcurve" smooth="yes"/>
      <point x="277" y="380"/>
      <point x="268" y="390" type="qcurve" smooth="yes"/>
      <point x="260" y="399"/>
      <point x="260" y="413" type="qcurve"/>
    </contour>
    <contour>
      <point x="260" y="-9" type="line"/>
      <point x="260" y="5"/>
      <point x="268" y="14" type="qcurve" smooth="yes"/>
      <point x="277" y="24"/>
      <point x="289" y="24" type="qcurve" smooth="yes"/>
      <point x="301" y="24"/>
      <point x="310" y="14" type="qcurve" smooth="yes"/>
      <point x="318" y="5"/>
      <point x="318" y="-9" type="qcurve" smooth="yes"/>
      <point x="318" y="-22"/>
      <point x="310" y="-32" type="qcurve" smooth="yes"/>
      <point x="301" y="-41"/>
      <point x="289" y="-41" type="qcurve" smooth="yes"/>
      <point x="277" y="-41"/>
      <point x="268" y="-32" type="qcurve" smooth="yes"/>
      <point x="260" y="-22"/>
      <point x="260" y="-9" type="qcurve"/>
    </contour>
    <contour>
      <point x="70" y="202" type="line"/>
      <point x="70" y="215"/>
      <point x="79" y="225" type="qcurve" smooth="yes"/>
      <point x="88" y="234"/>
      <point x="100" y="234" type="qcurve" smooth="yes"/>
      <point x="112" y="234"/>
      <point x="121" y="225" type="qcurve" smooth="yes"/>
      <point x="129" y="215"/>
      <point x="129" y="202" type="qcurve" smooth="yes"/>
      <point x="129" y="189"/>
      <point x="121" y="179" type="qcurve" smooth="yes"/>
      <point x="112" y="170"/>
      <point x="100" y="170" type="qcurve" smooth="yes"/>
      <point x="88" y="170"/>
      <point x="79" y="179" type="qcurve" smooth="yes"/>
      <point x="70" y="189"/>
      <point x="70" y="202" type="qcurve"/>
    </contour>
    <contour>
      <point x="449" y="202" type="line"/>
      <point x="449" y="215"/>
      <point x="457" y="225" type="qcurve" smooth="yes"/>
      <point x="466" y="234"/>
      <point x="478" y="234" type="qcurve" smooth="yes"/>
      <point x="490" y="234"/>
      <point x="499" y="225" type="qcurve" smooth="yes"/>
      <point x="507" y="215"/>
      <point x="507" y="202" type="qcurve" smooth="yes"/>
      <point x="507" y="189"/>
      <point x="499" y="179" type="qcurve" smooth="yes"/>
      <point x="490" y="170"/>
      <point x="478" y="170" type="qcurve" smooth="yes"/>
      <point x="466" y="170"/>
      <point x="457" y="179" type="qcurve" smooth="yes"/>
      <point x="449" y="189"/>
      <point x="449" y="202" type="qcurve"/>
    </contour>
    <contour>
      <point x="95" y="97" type="line"/>
      <point x="95" y="110"/>
      <point x="104" y="120" type="qcurve" smooth="yes"/>
      <point x="113" y="129"/>
      <point x="125" y="129" type="qcurve" smooth="yes"/>
      <point x="137" y="129"/>
      <point x="146" y="120" type="qcurve" smooth="yes"/>
      <point x="154" y="110"/>
      <point x="154" y="97" type="qcurve" smooth="yes"/>
      <point x="154" y="83"/>
      <point x="146" y="74" type="qcurve" smooth="yes"/>
      <point x="137" y="64"/>
      <point x="125" y="64" type="qcurve" smooth="yes"/>
      <point x="113" y="64"/>
      <point x="104" y="74" type="qcurve" smooth="yes"/>
      <point x="95" y="83"/>
      <point x="95" y="97" type="qcurve"/>
    </contour>
    <contour>
      <point x="423" y="307" type="line"/>
      <point x="423" y="321"/>
      <point x="431" y="330" type="qcurve" smooth="yes"/>
      <point x="440" y="340"/>
      <point x="452" y="340" type="qcurve" smooth="yes"/>
      <point x="464" y="340"/>
      <point x="473" y="330" type="qcurve" smooth="yes"/>
      <point x="481" y="321"/>
      <point x="481" y="307" type="qcurve" smooth="yes"/>
      <point x="481" y="294"/>
      <point x="473" y="284" type="qcurve" smooth="yes"/>
      <point x="464" y="275"/>
      <point x="452" y="275" type="qcurve" smooth="yes"/>
      <point x="440" y="275"/>
      <point x="431" y="284" type="qcurve" smooth="yes"/>
      <point x="423" y="294"/>
      <point x="423" y="307" type="qcurve"/>
    </contour>
    <contour>
      <point x="355" y="385" type="line"/>
      <point x="355" y="398"/>
      <point x="363" y="408" type="qcurve" smooth="yes"/>
      <point x="372" y="417"/>
      <point x="384" y="417" type="qcurve" smooth="yes"/>
      <point x="396" y="417"/>
      <point x="405" y="408" type="qcurve" smooth="yes"/>
      <point x="413" y="398"/>
      <point x="413" y="385" type="qcurve" smooth="yes"/>
      <point x="413" y="371"/>
      <point x="405" y="362" type="qcurve" smooth="yes"/>
      <point x="396" y="352"/>
      <point x="384" y="352" type="qcurve" smooth="yes"/>
      <point x="372" y="352"/>
      <point x="363" y="362" type="qcurve" smooth="yes"/>
      <point x="355" y="371"/>
      <point x="355" y="385" type="qcurve"/>
    </contour>
    <contour>
      <point x="166" y="19" type="line"/>
      <point x="166" y="33"/>
      <point x="174" y="43" type="qcurve" smooth="yes"/>
      <point x="182" y="53"/>
      <point x="194" y="53" type="qcurve" smooth="yes"/>
      <point x="206" y="53"/>
      <point x="215" y="43" type="qcurve" smooth="yes"/>
      <point x="223" y="33"/>
      <point x="223" y="19" type="qcurve" smooth="yes"/>
      <point x="223" y="6"/>
      <point x="215" y="-4" type="qcurve" smooth="yes"/>
      <point x="206" y="-13"/>
      <point x="194" y="-13" type="qcurve" smooth="yes"/>
      <point x="182" y="-13"/>
      <point x="174" y="-4" type="qcurve" smooth="yes"/>
      <point x="166" y="6"/>
      <point x="166" y="19" type="qcurve"/>
    </contour>
    <contour>
      <point x="95" y="307" type="line"/>
      <point x="95" y="321"/>
      <point x="104" y="330" type="qcurve" smooth="yes"/>
      <point x="113" y="340"/>
      <point x="125" y="340" type="qcurve" smooth="yes"/>
      <point x="137" y="340"/>
      <point x="146" y="330" type="qcurve" smooth="yes"/>
      <point x="154" y="321"/>
      <point x="154" y="307" type="qcurve" smooth="yes"/>
      <point x="154" y="294"/>
      <point x="146" y="284" type="qcurve" smooth="yes"/>
      <point x="137" y="275"/>
      <point x="125" y="275" type="qcurve" smooth="yes"/>
      <point x="113" y="275"/>
      <point x="104" y="284" type="qcurve" smooth="yes"/>
      <point x="95" y="294"/>
      <point x="95" y="307" type="qcurve"/>
    </contour>
    <contour>
      <point x="423" y="97" type="line"/>
      <point x="423" y="110"/>
      <point x="431" y="120" type="qcurve" smooth="yes"/>
      <point x="440" y="129"/>
      <point x="452" y="129" type="qcurve" smooth="yes"/>
      <point x="464" y="129"/>
      <point x="473" y="120" type="qcurve" smooth="yes"/>
      <point x="481" y="110"/>
      <point x="481" y="97" type="qcurve" smooth="yes"/>
      <point x="481" y="83"/>
      <point x="473" y="74" type="qcurve" smooth="yes"/>
      <point x="464" y="64"/>
      <point x="452" y="64" type="qcurve" smooth="yes"/>
      <point x="440" y="64"/>
      <point x="431" y="74" type="qcurve" smooth="yes"/>
      <point x="423" y="83"/>
      <point x="423" y="97" type="qcurve"/>
    </contour>
    <contour>
      <point x="166" y="385" type="line"/>
      <point x="166" y="398"/>
      <point x="174" y="408" type="qcurve" smooth="yes"/>
      <point x="182" y="417"/>
      <point x="194" y="417" type="qcurve" smooth="yes"/>
      <point x="206" y="417"/>
      <point x="215" y="408" type="qcurve" smooth="yes"/>
      <point x="223" y="398"/>
      <point x="223" y="385" type="qcurve" smooth="yes"/>
      <point x="223" y="371"/>
      <point x="215" y="362" type="qcurve" smooth="yes"/>
      <point x="206" y="352"/>
      <point x="194" y="352" type="qcurve" smooth="yes"/>
      <point x="182" y="352"/>
      <point x="174" y="362" type="qcurve" smooth="yes"/>
      <point x="166" y="371"/>
      <point x="166" y="385" type="qcurve"/>
    </contour>
    <contour>
      <point x="355" y="19" type="line"/>
      <point x="355" y="33"/>
      <point x="363" y="43" type="qcurve" smooth="yes"/>
      <point x="372" y="53"/>
      <point x="384" y="53" type="qcurve" smooth="yes"/>
      <point x="396" y="53"/>
      <point x="405" y="43" type="qcurve" smooth="yes"/>
      <point x="413" y="33"/>
      <point x="413" y="19" type="qcurve" smooth="yes"/>
      <point x="413" y="6"/>
      <point x="405" y="-4" type="qcurve" smooth="yes"/>
      <point x="396" y="-13"/>
      <point x="384" y="-13" type="qcurve" smooth="yes"/>
      <point x="372" y="-13"/>
      <point x="363" y="-4" type="qcurve" smooth="yes"/>
      <point x="355" y="6"/>
      <point x="355" y="19" type="qcurve"/>
    </contour>
  </outline>
</glyph>
<glyph name="uni0B95_uni0BCD_uni0BB7" format="1">
  <advance width="1176"/>
  <outline>
    <contour>
      <point x="25" y="134" type="line"/>
      <point x="25" y="168"/>
      <point x="51" y="191" type="qcurve" smooth="yes"/>
      <point x="78" y="215"/>
      <point x="115" y="215" type="qcurve" smooth="yes"/>
      <point x="144" y="215" type="line"/>
      <point x="144" y="400" type="line"/>
      <point x="492" y="400" type="line"/>
      <point x="492" y="370" type="line"/>
      <point x="357" y="370" type="line"/>
      <point x="357" y="215" type="line"/>
      <point x="482" y="215" type="line"/>
      <point x="499" y="229"/>
      <point x="523" y="237" type="qcurve" smooth="yes"/>
      <point x="548" y="244"/>
      <point x="578" y="244" type="qcurve" smooth="yes"/>
      <point x="641" y="244"/>
      <point x="685" y="204" type="qcurve" smooth="yes"/>
      <point x="729" y="164"/>
      <point x="729" y="108" type="qcurve" smooth="yes"/>
      <point x="729" y="67"/>
      <point x="707" y="29" type="qcurve"/>
      <point x="868" y="29" type="line"/>
      <point x="868" y="164" type="line"/>
      <point x="815" y="164"/>
      <point x="778" y="198" type="qcurve" smooth="yes"/>
      <point x="741" y="233"/>
      <point x="741" y="281" type="qcurve" smooth="yes"/>
      <point x="741" y="330"/>
      <point x="772" y="364" type="qcurve" smooth="yes"/>
      <point x="803" y="399"/>
      <point x="847" y="399" type="qcurve" smooth="yes"/>
      <point x="887" y="399"/>
      <point x="915" y="370" type="qcurve" smooth="yes"/>
      <point x="943" y="340"/>
      <point x="943" y="299" type="qcurve" smooth="yes"/>
      <point x="943" y="193" type="line"/>
      <point x="989" y="193"/>
      <point x="1034" y="223" type="qcurve" smooth="yes"/>
      <point x="1078" y="252"/>
      <point x="1109" y="304" type="qcurve"/>
      <point x="1123" y="304" type="line"/>
      <point x="1123" y="0" type="line"/>
      <point x="943" y="0" type="line"/>
      <point x="943" y="-242" type="line"/>
      <point x="868" y="-242" type="line"/>
      <point x="868" y="0" type="line"/>
      <point x="633" y="0" type="line"/>
      <point x="633" y="20" type="line"/>
      <point x="649" y="38"/>
      <point x="658" y="60" type="qcurve" smooth="yes"/>
      <point x="667" y="82"/>
      <point x="667" y="106" type="qcurve" smooth="yes"/>
      <point x="667" y="146"/>
      <point x="644" y="175" type="qcurve" smooth="yes"/>
      <point x="621" y="203"/>
      <point x="588" y="203" type="qcurve" smooth="yes"/>
      <point x="570" y="203"/>
      <point x="560" y="202" type="qcurve" smooth="yes"/>
      <point x="548" y="200"/>
      <point x="544" y="197" type="qcurve"/>
      <point x="568" y="184"/>
      <point x="581" y="159" type="qcurve" smooth="yes"/>
      <point x="595" y="133"/>
      <point x="595" y="101" type="qcurve" smooth="yes"/>
      <point x="595" y="54"/>
      <point x="571" y="25" type="qcurve" smooth="yes"/>
      <point x="547" y="-3"/>
      <point x="507" y="-3" type="qcurve" smooth="yes"/>
      <point x="471" y="-3"/>
      <point x="445" y="27" type="qcurve" smooth="yes"/>
      <point x="420" y="57"/>
      <point x="420" y="100" type="qcurve" smooth="yes"/>
      <point x="420" y="126"/>
      <point x="428" y="149" type="qcurve" smooth="yes"/>
      <point x="437" y="171"/>
      <point x="452" y="185" type="qcurve"/>
      <point x="357" y="185" type="line"/>
      <point x="357" y="131" type="line" smooth="yes"/>
      <point x="357" y="70"/>
      <point x="308" y="34" type="qcurve" smooth="yes"/>
      <point x="259" y="-3"/>
      <point x="177" y="-3" type="qcurve" smooth="yes"/>
      <point x="114" y="-3"/>
      <point x="70" y="37" type="qcurve" smooth="yes"/>
      <point x="25" y="77"/>
      <point x="25" y="134" type="qcurve"/>
    </contour>
    <contour>
      <point x="282" y="215" type="line"/>
      <point x="282" y="370" type="line"/>
      <point x="174" y="370" type="line"/>
      <point x="174" y="215" type="line"/>
      <point x="282" y="215" type="line"/>
    </contour>
    <contour>
      <point x="868" y="192" type="line"/>
      <point x="868" y="302" type="line" smooth="yes"/>
      <point x="868" y="324"/>
      <point x="856" y="339" type="qcurve" smooth="yes"/>
      <point x="844" y="354"/>
      <point x="827" y="354" type="qcurve" smooth="yes"/>
      <point x="804" y="354"/>
      <point x="787" y="333" type="qcurve" smooth="yes"/>
      <point x="771" y="311"/>
      <point x="771" y="281" type="qcurve" smooth="yes"/>
      <point x="771" y="244"/>
      <point x="799" y="218" type="qcurve" smooth="yes"/>
      <point x="828" y="192"/>
      <point x="868" y="192" type="qcurve"/>
    </contour>
    <contour>
      <point x="1048" y="29" type="line"/>
      <point x="1048" y="194" type="line"/>
      <point x="1031" y="179"/>
      <point x="1004" y="172" type="qcurve" smooth="yes"/>
      <point x="977" y="164"/>
      <point x="943" y="164" type="qcurve"/>
      <point x="943" y="29" type="line"/>
      <point x="1048" y="29" type="line"/>
    </contour>
    <contour>
      <point x="282" y="133" type="line"/>
      <point x="282" y="185" type="line"/>
      <point x="113" y="185" type="line" smooth="yes"/>
      <point x="89" y="185"/>
      <point x="72" y="170" type="qcurve" smooth="yes"/>
      <point x="55" y="156"/>
      <point x="55" y="135" type="qcurve" smooth="yes"/>
      <point x="55" y="90"/>
      <point x="87" y="59" type="qcurve" smooth="yes"/>
      <point x="118" y="27"/>
      <point x="163" y="27" type="qcurve" smooth="yes"/>
      <point x="212" y="27"/>
      <point x="247" y="58" type="qcurve" smooth="yes"/>
      <point x="282" y="89"/>
      <point x="282" y="133" type="qcurve"/>
    </contour>
    <contour>
      <point x="543" y="102" type="line"/>
      <point x="543" y="132"/>
      <point x="530" y="153" type="qcurve" smooth="yes"/>
      <point x="516" y="174"/>
      <point x="497" y="174" type="qcurve" smooth="yes"/>
      <point x="478" y="174"/>
      <point x="464" y="152" type="qcurve" smooth="yes"/>
      <point x="450" y="129"/>
      <point x="450" y="98" type="qcurve" smooth="yes"/>
      <point x="450" y="69"/>
      <point x="464" y="48" type="qcurve" smooth="yes"/>
      <point x="479" y="27"/>
      <point x="499" y="27" type="qcurve" smooth="yes"/>
      <point x="517" y="27"/>
      <point x="530" y="49" type="qcurve" smooth="yes"/>
      <point x="543" y="71"/>
      <point x="543" y="102" type="qcurve"/>
    </contour>
  </outline>
</glyph>
<glyph name="uni0B95_uni0BCD_uni0BB7_uni0BBF" format="1">
  <advance width="1319"/>
  <outline>
    <contour>
      <point x="1249" y="0" type="line"/>
      <point x="1219" y="0" type="line"/>
      <point x="1219" y="452" type="line" smooth="yes"/>
      <point x="1219" y="511"/>
      <point x="1161" y="552" type="qcurve" smooth="yes"/>
      <point x="1102" y="594"/>
      <point x="1020" y="594" type="qcurve" smooth="yes"/>
      <point x="948" y="594"/>
      <point x="896" y="559" type="qcurve" smooth="yes"/>
      <point x="845" y="523"/>
      <point x="845" y="473" type="qcurve" smooth="yes"/>
      <point x="845" y="447"/>
      <point x="862" y="398" type="qcurve"/>
      <point x="897" y="392"/>
      <point x="920" y="364" type="qcurve" smooth="yes"/>
      <point x="943" y="336"/>
      <point x="943" y="299" type="qcurve" smooth="yes"/>
      <point x="943" y="185" type="line"/>
      <point x="987" y="185"/>
      <point x="1031" y="217" type="qcurve" smooth="yes"/>
      <point x="1076" y="249"/>
      <point x="1109" y="304" type="qcurve"/>
      <point x="1123" y="304" type="line"/>
      <point x="1123" y="0" type="line"/>
      <point x="943" y="0" type="line"/>
      <point x="943" y="-242" type="line"/>
      <point x="868" y="-242" type="line"/>
      <point x="868" y="0" type="line"/>
      <point x="633" y="0" type="line"/>
      <point x="633" y="20" type="line"/>
      <point x="649" y="38"/>
      <point x="658" y="60" type="qcurve" smooth="yes"/>
      <point x="667" y="82"/>
      <point x="667" y="106" type="qcurve" smooth="yes"/>
      <point x="667" y="146"/>
      <point x="644" y="175" type="qcurve" smooth="yes"/>
      <point x="621" y="203"/>
      <point x="588" y="203" type="qcurve" smooth="yes"/>
      <point x="570" y="203"/>
      <point x="560" y="202" type="qcurve" smooth="yes"/>
      <point x="548" y="200"/>
      <point x="544" y="197" type="qcurve"/>
      <point x="568" y="184"/>
      <point x="581" y="159" type="qcurve" smooth="yes"/>
      <point x="595" y="133"/>
      <point x="595" y="101" type="qcurve" smooth="yes"/>
      <point x="595" y="54"/>
      <point x="571" y="25" type="qcurve" smooth="yes"/>
      <point x="547" y="-3"/>
      <point x="507" y="-3" type="qcurve" smooth="yes"/>
      <point x="471" y="-3"/>
      <point x="445" y="27" type="qcurve" smooth="yes"/>
      <point x="420" y="57"/>
      <point x="420" y="100" type="qcurve" smooth="yes"/>
      <point x="420" y="126"/>
      <point x="428" y="149" type="qcurve" smooth="yes"/>
      <point x="437" y="171"/>
      <point x="452" y="185" type="qcurve"/>
      <point x="357" y="185" type="line"/>
      <point x="357" y="131" type="line" smooth="yes"/>
      <point x="357" y="70"/>
      <point x="308" y="34" type="qcurve" smooth="yes"/>
      <point x="259" y="-3"/>
      <point x="177" y="-3" type="qcurve" smooth="yes"/>
      <point x="114" y="-3"/>
      <point x="70" y="37" type="qcurve" smooth="yes"/>
      <point x="25" y="77"/>
      <point x="25" y="134" type="qcurve" smooth="yes"/>
      <point x="25" y="168"/>
      <point x="51" y="191" type="qcurve" smooth="yes"/>
      <point x="78" y="215"/>
      <point x="115" y="215" type="qcurve" smooth="yes"/>
      <point x="144" y="215" type="line"/>
      <point x="144" y="400" type="line"/>
      <point x="492" y="400" type="line"/>
      <point x="492" y="370" type="line"/>
      <point x="357" y="370" type="line"/>
      <point x="357" y="215" type="line"/>
      <point x="482" y="215" type="line"/>
      <point x="499" y="229"/>
      <point x="523" y="237" type="qcurve" smooth="yes"/>
      <point x="548" y="244"/>
      <point x="578" y="244" type="qcurve" smooth="yes"/>
      <point x="641" y="244"/>
      <point x="685" y="204" type="qcurve" smooth="yes"/>
      <point x="729" y="164"/>
      <point x="729" y="108" type="qcurve" smooth="yes"/>
      <point x="729" y="67"/>
      <point x="707" y="29" type="qcurve"/>
      <point x="868" y="29" type="line"/>
      <point x="868" y="164" type="line"/>
      <point x="815" y="164"/>
      <point x="778" y="198" type="qcurve" smooth="yes"/>
      <point x="741" y="233"/>
      <point x="741" y="281" type="qcurve" smooth="yes"/>
      <point x="741" y="324"/>
      <point x="766" y="357" type="qcurve" smooth="yes"/>
      <point x="790" y="390"/>
      <point x="828" y="397" type="qcurve"/>
      <point x="815" y="429"/>
      <point x="815" y="475" type="qcurve" smooth="yes"/>
      <point x="815" y="552"/>
      <point x="875" y="607" type="qcurve" smooth="yes"/>
      <point x="935" y="661"/>
      <point x="1020" y="661" type="qcurve" smooth="yes"/>
      <point x="1115" y="661"/>
      <point x="1182" y="600" type="qcurve" smooth="yes"/>
      <point x="1249" y="540"/>
      <point x="1249" y="454" type="qcurve" smooth="yes"/>
      <point x="1249" y="0" type="line"/>
    </contour>
    <contour>
      <point x="282" y="215" type="line"/>
      <point x="282" y="370" type="line"/>
      <point x="174" y="370" type="line"/>
      <point x="174" y="215" type="line"/>
      <point x="282" y="215" type="line"/>
    </contour>
    <contour>
      <point x="868" y="185" type="line"/>
      <point x="868" y="302" type="line" smooth="yes"/>
      <point x="868" y="324"/>
      <point x="856" y="339" type="qcurve" smooth="yes"/>
      <point x="844" y="354"/>
      <point x="827" y="354" type="qcurve" smooth="yes"/>
      <point x="804" y="354"/>
      <point x="787" y="333" type="qcurve" smooth="yes"/>
      <point x="771" y="311"/>
      <point x="771" y="281" type="qcurve" smooth="yes"/>
      <point x="771" y="241"/>
      <point x="799" y="213" type="qcurve" smooth="yes"/>
      <point x="828" y="185"/>
      <point x="868" y="185" type="qcurve"/>
    </contour>
    <contour>
      <point x="1048" y="29" type="line"/>
      <point x="1048" y="185" type="line"/>
      <point x="1036" y="175"/>
      <point x="1009" y="169" type="qcurve" smooth="yes"/>
      <point x="982" y="164"/>
      <point x="943" y="164" type="qcurve"/>
      <point x="943" y="29" type="line"/>
      <point x="1048" y="29" type="line"/>
    </contour>
    <contour>
      <point x="282" y="133" type="line"/>
      <point x="282" y="185" type="line"/>
      <point x="113" y="185" type="line" smooth="yes"/>
      <point x="89" y="185"/>
      <point x="72" y="170" type="qcurve" smooth="yes"/>
      <point x="55" y="156"/>
      <point x="55" y="135" type="qcurve" smooth="yes"/>
      <point x="55" y="90"/>
      <point x="87" y="59" type="qcurve" smooth="yes"/>
      <point x="118" y="27"/>
      <point x="163" y="27" type="qcurve" smooth="yes"/>
      <point x="212" y="27"/>
      <point x="247" y="58" type="qcurve" smooth="yes"/>
      <point x="282" y="89"/>
      <point x="282" y="133" type="qcurve"/>
    </contour>
    <contour>
      <point x="543" y="102" type="line"/>
      <point x="543" y="132"/>
      <point x="530" y="153" type="qcurve" smooth="yes"/>
      <point x="516" y="174"/>
      <point x="497" y="174" type="qcurve" smooth="yes"/>
      <point x="478" y="174"/>
      <point x="464" y="152" type="qcurve" smooth="yes"/>
      <point x="450" y="129"/>
      <point x="450" y="98" type="qcurve" smooth="yes"/>
      <point x="450" y="69"/>
      <point x="464" y="48" type="qcurve" smooth="yes"/>
      <point x="479" y="27"/>
      <point x="499" y="27" type="qcurve" smooth="yes"/>
      <point x="517" y="27"/>
      <point x="530" y="49" type="qcurve" smooth="yes"/>
      <point x="543" y="71"/>
      <point x="543" y="102" type="qcurve"/>
    </contour>
  </outline>
</glyph>
<glyph name="uni0B95_uni0BCD_uni0BB7_uni0BC0" format="1">
  <advance width="1176"/>
  <outline>
    <contour>
      <point x="1123" y="530" type="line"/>
      <point x="1123" y="490"/>
      <point x="1097" y="465" type="qcurve" smooth="yes"/>
      <point x="1071" y="441"/>
      <point x="1027" y="441" type="qcurve" smooth="yes"/>
      <point x="983" y="441"/>
      <point x="956" y="467" type="qcurve" smooth="yes"/>
      <point x="930" y="492"/>
      <point x="930" y="535" type="qcurve" smooth="yes"/>
      <point x="930" y="559"/>
      <point x="938" y="579" type="qcurve" smooth="yes"/>
      <point x="947" y="599"/>
      <point x="962" y="610" type="qcurve"/>
      <point x="904" y="610"/>
      <point x="863" y="574" type="qcurve" smooth="yes"/>
      <point x="822" y="538"/>
      <point x="822" y="487" type="qcurve" smooth="yes"/>
      <point x="822" y="470"/>
      <point x="833" y="447" type="qcurve" smooth="yes"/>
      <point x="843" y="424"/>
      <point x="863" y="398" type="qcurve"/>
      <point x="898" y="392"/>
      <point x="920" y="364" type="qcurve" smooth="yes"/>
      <point x="943" y="336"/>
      <point x="943" y="299" type="qcurve" smooth="yes"/>
      <point x="943" y="193" type="line"/>
      <point x="989" y="193"/>
      <point x="1034" y="223" type="qcurve" smooth="yes"/>
      <point x="1078" y="252"/>
      <point x="1109" y="304" type="qcurve"/>
      <point x="1123" y="304" type="line"/>
      <point x="1123" y="0" type="line"/>
      <point x="943" y="0" type="line"/>
      <point x="943" y="-242" type="line"/>
      <point x="868" y="-242" type="line"/>
      <point x="868" y="0" type="line"/>
      <point x="633" y="0" type="line"/>
      <point x="633" y="20" type="line"/>
      <point x="649" y="38"/>
      <point x="658" y="60" type="qcurve" smooth="yes"/>
      <point x="667" y="82"/>
      <point x="667" y="106" type="qcurve" smooth="yes"/>
      <point x="667" y="146"/>
      <point x="644" y="175" type="qcurve" smooth="yes"/>
      <point x="621" y="203"/>
      <point x="588" y="203" type="qcurve" smooth="yes"/>
      <point x="570" y="203"/>
      <point x="560" y="202" type="qcurve" smooth="yes"/>
      <point x="548" y="200"/>
      <point x="544" y="197" type="qcurve"/>
      <point x="568" y="184"/>
      <point x="581" y="159" type="qcurve" smooth="yes"/>
      <point x="595" y="133"/>
      <point x="595" y="101" type="qcurve" smooth="yes"/>
      <point x="595" y="54"/>
      <point x="571" y="25" type="qcurve" smooth="yes"/>
      <point x="547" y="-3"/>
      <point x="507" y="-3" type="qcurve" smooth="yes"/>
      <point x="471" y="-3"/>
      <point x="445" y="27" type="qcurve" smooth="yes"/>
      <point x="420" y="57"/>
      <point x="420" y="100" type="qcurve" smooth="yes"/>
      <point x="420" y="126"/>
      <point x="428" y="149" type="qcurve" smooth="yes"/>
      <point x="437" y="171"/>
      <point x="452" y="185" type="qcurve"/>
      <point x="357" y="185" type="line"/>
      <point x="357" y="131" type="line" smooth="yes"/>
      <point x="357" y="70"/>
      <point x="308" y="34" type="qcurve" smooth="yes"/>
      <point x="259" y="-3"/>
      <point x="177" y="-3" type="qcurve" smooth="yes"/>
      <point x="114" y="-3"/>
      <point x="70" y="37" type="qcurve" smooth="yes"/>
      <point x="25" y="77"/>
      <point x="25" y="134" type="qcurve" smooth="yes"/>
      <point x="25" y="168"/>
      <point x="51" y="191" type="qcurve" smooth="yes"/>
      <point x="78" y="215"/>
      <point x="115" y="215" type="qcurve" smooth="yes"/>
      <point x="144" y="215" type="line"/>
      <point x="144" y="400" type="line"/>
      <point x="492" y="400" type="line"/>
      <point x="492" y="370" type="line"/>
      <point x="357" y="370" type="line"/>
      <point x="357" y="215" type="line"/>
      <point x="482" y="215" type="line"/>
      <point x="499" y="229"/>
      <point x="523" y="237" type="qcurve" smooth="yes"/>
      <point x="548" y="244"/>
      <point x="578" y="244" type="qcurve" smooth="yes"/>
      <point x="641" y="244"/>
      <point x="685" y="204" type="qcurve" smooth="yes"/>
      <point x="729" y="164"/>
      <point x="729" y="108" type="qcurve" smooth="yes"/>
      <point x="729" y="67"/>
      <point x="707" y="29" type="qcurve"/>
      <point x="868" y="29" type="line"/>
      <point x="868" y="164" type="line"/>
      <point x="815" y="164"/>
      <point x="778" y="198" type="qcurve" smooth="yes"/>
      <point x="741" y="233"/>
      <point x="741" y="281" type="qcurve" smooth="yes"/>
      <point x="741" y="324"/>
      <point x="765" y="356" type="qcurve" smooth="yes"/>
      <point x="789" y="389"/>
      <point x="827" y="397" type="qcurve"/>
      <point x="810" y="416"/>
      <point x="801" y="440" type="qcurve" smooth="yes"/>
      <point x="792" y="463"/>
      <point x="792" y="488" type="qcurve" smooth="yes"/>
      <point x="792" y="556"/>
      <point x="844" y="604" type="qcurve" smooth="yes"/>
      <point x="897" y="652"/>
      <point x="971" y="652" type="qcurve" smooth="yes"/>
      <point x="1046" y="652"/>
      <point x="1085" y="621" type="qcurve" smooth="yes"/>
      <point x="1123" y="590"/>
      <point x="1123" y="530" type="qcurve"/>
    </contour>
    <contour>
      <point x="1048" y="535" type="line"/>
      <point x="1048" y="564"/>
      <point x="1036" y="584" type="qcurve" smooth="yes"/>
      <point x="1024" y="605"/>
      <point x="1007" y="605" type="qcurve" smooth="yes"/>
      <point x="988" y="605"/>
      <point x="974" y="585" type="qcurve" smooth="yes"/>
      <point x="960" y="565"/>
      <point x="960" y="536" type="qcurve" smooth="yes"/>
      <point x="960" y="509"/>
      <point x="973" y="490" type="qcurve" smooth="yes"/>
      <point x="987" y="471"/>
      <point x="1006" y="471" type="qcurve" smooth="yes"/>
      <point x="1023" y="471"/>
      <point x="1036" y="490" type="qcurve" smooth="yes"/>
      <point x="1048" y="508"/>
      <point x="1048" y="535" type="qcurve"/>
    </contour>
    <contour>
      <point x="282" y="215" type="line"/>
      <point x="282" y="370" type="line"/>
      <point x="174" y="370" type="line"/>
      <point x="174" y="215" type="line"/>
      <point x="282" y="215" type="line"/>
    </contour>
    <contour>
      <point x="868" y="192" type="line"/>
      <point x="868" y="302" type="line" smooth="yes"/>
      <point x="868" y="324"/>
      <point x="856" y="339" type="qcurve" smooth="yes"/>
      <point x="844" y="354"/>
      <point x="827" y="354" type="qcurve" smooth="yes"/>
      <point x="804" y="354"/>
      <point x="787" y="333" type="qcurve" smooth="yes"/>
      <point x="771" y="311"/>
      <point x="771" y="281" type="qcurve" smooth="yes"/>
      <point x="771" y="244"/>
      <point x="799" y="218" type="qcurve" smooth="yes"/>
      <point x="828" y="192"/>
      <point x="868" y="192" type="qcurve"/>
    </contour>
    <contour>
      <point x="1048" y="29" type="line"/>
      <point x="1048" y="194" type="line"/>
      <point x="1031" y="179"/>
      <point x="1004" y="172" type="qcurve" smooth="yes"/>
      <point x="977" y="164"/>
      <point x="943" y="164" type="qcurve"/>
      <point x="943" y="29" type="line"/>
      <point x="1048" y="29" type="line"/>
    </contour>
    <contour>
      <point x="282" y="133" type="line"/>
      <point x="282" y="185" type="line"/>
      <point x="113" y="185" type="line" smooth="yes"/>
      <point x="89" y="185"/>
      <point x="72" y="170" type="qcurve" smooth="yes"/>
      <point x="55" y="156"/>
      <point x="55" y="135" type="qcurve" smooth="yes"/>
      <point x="55" y="90"/>
      <point x="87" y="59" type="qcurve" smooth="yes"/>
      <point x="118" y="27"/>
      <point x="163" y="27" type="qcurve" smooth="yes"/>
      <point x="212" y="27"/>
      <point x="247" y="58" type="qcurve" smooth="yes"/>
      <point x="282" y="89"/>
      <point x="282" y="133" type="qcurve"/>
    </contour>
    <contour>
      <point x="543" y="102" type="line"/>
      <point x="543" y="132"/>
      <point x="530" y="153" type="qcurve" smooth="yes"/>
      <point x="516" y="174"/>
      <point x="497" y="174" type="qcurve" smooth="yes"/>
      <point x="478" y="174"/>
      <point x="464" y="152" type="qcurve" smooth="yes"/>
      <point x="450" y="129"/>
      <point x="450" y="98" type="qcurve" smooth="yes"/>
      <point x="450" y="69"/>
      <point x="464" y="48" type="qcurve" smooth="yes"/>
      <point x="479" y="27"/>
      <point x="499" y="27" type="qcurve" smooth="yes"/>
      <point x="517" y="27"/>
      <point x="530" y="49" type="qcurve" smooth="yes"/>
      <point x="543" y="71"/>
      <point x="543" y="102" type="qcurve"/>
    </contour>
  </outline>
</glyph>
<glyph name="uni0B99_uni0BC2" format="1">
  <advance width="858"/>
  <outline>
    <contour>
      <point x="624" y="0" type="line"/>
      <point x="246" y="0" type="line"/>
      <point x="246" y="30" type="line"/>
      <point x="397" y="30" type="line"/>
      <point x="427" y="47"/>
      <point x="444" y="76" type="qcurve" smooth="yes"/>
      <point x="461" y="104"/>
      <point x="461" y="137" type="qcurve" smooth="yes"/>
      <point x="461" y="180"/>
      <point x="437" y="210" type="qcurve" smooth="yes"/>
      <point x="413" y="240"/>
      <point x="379" y="240" type="qcurve" smooth="yes"/>
      <point x="363" y="240"/>
      <point x="348" y="233" type="qcurve" smooth="yes"/>
      <point x="333" y="225"/>
      <point x="321" y="212" type="qcurve"/>
      <point x="321" y="110" type="line"/>
      <point x="246" y="110" type="line"/>
      <point x="246" y="370" type="line"/>
      <point x="100" y="370" type="line"/>
      <point x="100" y="0" type="line"/>
      <point x="70" y="0" type="line"/>
      <point x="70" y="400" type="line"/>
      <point x="503" y="400" type="line"/>
      <point x="503" y="370" type="line"/>
      <point x="321" y="370" type="line"/>
      <point x="321" y="247" type="line"/>
      <point x="337" y="258"/>
      <point x="359" y="264" type="qcurve" smooth="yes"/>
      <point x="381" y="270"/>
      <point x="407" y="270" type="qcurve" smooth="yes"/>
      <point x="466" y="270"/>
      <point x="501" y="234" type="qcurve" smooth="yes"/>
      <point x="536" y="197"/>
      <point x="536" y="137" type="qcurve" smooth="yes"/>
      <point x="536" y="103"/>
      <point x="514" y="74" type="qcurve" smooth="yes"/>
      <point x="493" y="44"/>
      <point x="457" y="30" type="qcurve"/>
      <point x="624" y="30" type="line"/>
      <point x="624" y="400" type="line"/>
      <point x="699" y="400" type="line"/>
      <point x="699" y="27" type="line"/>
      <point x="713" y="39"/>
      <point x="731" y="46" type="qcurve" smooth="yes"/>
      <point x="750" y="52"/>
      <point x="769" y="52" type="qcurve" smooth="yes"/>
      <point x="812" y="52"/>
      <point x="837" y="24" type="qcurve" smooth="yes"/>
      <point x="863" y="-5"/>
      <point x="863" y="-52" type="qcurve" smooth="yes"/>
      <point x="863" y="-137"/>
      <point x="759" y="-188" type="qcurve" smooth="yes"/>
      <point x="654" y="-239"/>
      <point x="481" y="-239" type="qcurve" smooth="yes"/>
      <point x="266" y="-239"/>
      <point x="156" y="-210" type="qcurve" smooth="yes"/>
      <point x="46" y="-180"/>
      <point x="46" y="-123" type="qcurve" smooth="yes"/>
      <point x="46" y="-87"/>
      <point x="105" y="-66" type="qcurve" smooth="yes"/>
      <point x="163" y="-44"/>
      <point x="261" y="-44" type="qcurve" smooth="yes"/>
      <point x="384" y="-44"/>
      <point x="503" y="-85" type="qcurve"/>
      <point x="503" y="-116" type="line"/>
      <point x="357" y="-74"/>
      <point x="260" y="-74" type="qcurve" smooth="yes"/>
      <point x="177" y="-74"/>
      <point x="126" y="-88" type="qcurve" smooth="yes"/>
      <point x="76" y="-101"/>
      <point x="76" y="-124" type="qcurve" smooth="yes"/>
      <point x="76" y="-159"/>
      <point x="196" y="-184" type="qcurve" smooth="yes"/>
      <point x="315" y="-209"/>
      <point x="483" y="-209" type="qcurve" smooth="yes"/>
      <point x="621" y="-209"/>
      <point x="705" y="-166" type="qcurve" smooth="yes"/>
      <point x="788" y="-122"/>
      <point x="788" y="-50" type="qcurve" smooth="yes"/>
      <point x="788" y="-28"/>
      <point x="775" y="-13" type="qcurve" smooth="yes"/>
      <point x="761" y="2"/>
      <point x="742" y="2" type="qcurve" smooth="yes"/>
      <point x="724" y="2"/>
      <point x="712" y="-7" type="qcurve" smooth="yes"/>
      <point x="699" y="-16"/>
      <point x="699" y="-28" type="qcurve" smooth="yes"/>
      <point x="699" y="-155" type="line"/>
      <point x="624" y="-155" type="line"/>
      <point x="624" y="0" type="line"/>
    </contour>
  </outline>
</glyph>
<glyph name="uni0B9A_uni0BC0" format="1">
  <advance width="499"/>
  <outline>
    <contour>
      <point x="448" y="535" type="line"/>
      <point x="448" y="564"/>
      <point x="435" y="584" type="qcurve" smooth="yes"/>
      <point x="422" y="604"/>
      <point x="404" y="604" type="qcurve" smooth="yes"/>
      <point x="385" y="604"/>
      <point x="371" y="584" type="qcurve" smooth="yes"/>
      <point x="358" y="564"/>
      <point x="358" y="535" type="qcurve" smooth="yes"/>
      <point x="358" y="509"/>
      <point x="371" y="490" type="qcurve" smooth="yes"/>
      <point x="384" y="472"/>
      <point x="403" y="472" type="qcurve" smooth="yes"/>
      <point x="422" y="472"/>
      <point x="435" y="490" type="qcurve" smooth="yes"/>
      <point x="448" y="509"/>
      <point x="448" y="535" type="qcurve"/>
    </contour>
    <contour>
      <point x="488" y="185" type="line"/>
      <point x="373" y="185" type="line"/>
      <point x="373" y="137" type="line" smooth="yes"/>
      <point x="373" y="68"/>
      <point x="330" y="33" type="qcurve" smooth="yes"/>
      <point x="287" y="-2"/>
      <point x="202" y="-2" type="qcurve" smooth="yes"/>
      <point x="129" y="-2"/>
      <point x="85" y="36" type="qcurve" smooth="yes"/>
      <point x="41" y="74"/>
      <point x="41" y="137" type="qcurve" smooth="yes"/>
      <point x="41" y="172"/>
      <point x="64" y="194" type="qcurve" smooth="yes"/>
      <point x="87" y="215"/>
      <point x="126" y="215" type="qcurve"/>
      <point x="95" y="245"/>
      <point x="79" y="288" type="qcurve" smooth="yes"/>
      <point x="62" y="332"/>
      <point x="62" y="382" type="qcurve" smooth="yes"/>
      <point x="62" y="499"/>
      <point x="144" y="575" type="qcurve" smooth="yes"/>
      <point x="225" y="652"/>
      <point x="350" y="652" type="qcurve" smooth="yes"/>
      <point x="428" y="652"/>
      <point x="476" y="619" type="qcurve" smooth="yes"/>
      <point x="523" y="585"/>
      <point x="523" y="530" type="qcurve" smooth="yes"/>
      <point x="523" y="490"/>
      <point x="492" y="466" type="qcurve" smooth="yes"/>
      <point x="460" y="442"/>
      <point x="408" y="442" type="qcurve" smooth="yes"/>
      <point x="375" y="442"/>
      <point x="351" y="469" type="qcurve" smooth="yes"/>
      <point x="328" y="496"/>
      <point x="328" y="534" type="qcurve" smooth="yes"/>
      <point x="328" y="555"/>
      <point x="335" y="573" type="qcurve" smooth="yes"/>
      <point x="342" y="591"/>
      <point x="355" y="604" type="qcurve"/>
      <point x="344" y="604" type="line" smooth="yes"/>
      <point x="230" y="604"/>
      <point x="161" y="542" type="qcurve" smooth="yes"/>
      <point x="92" y="481"/>
      <point x="92" y="378" type="qcurve" smooth="yes"/>
      <point x="92" y="326"/>
      <point x="107" y="286" type="qcurve" smooth="yes"/>
      <point x="123" y="247"/>
      <point x="150" y="229" type="qcurve"/>
      <point x="150" y="400" type="line"/>
      <point x="488" y="400" type="line"/>
      <point x="488" y="370" type="line"/>
      <point x="373" y="370" type="line"/>
      <point x="373" y="215" type="line"/>
      <point x="488" y="215" type="line"/>
      <point x="488" y="185" type="line"/>
    </contour>
    <contour>
      <point x="298" y="215" type="line"/>
      <point x="298" y="370" type="line"/>
      <point x="180" y="370" type="line"/>
      <point x="180" y="215" type="line"/>
      <point x="298" y="215" type="line"/>
    </contour>
    <contour>
      <point x="298" y="137" type="line"/>
      <point x="298" y="185" type="line"/>
      <point x="129" y="185" type="line" smooth="yes"/>
      <point x="103" y="185"/>
      <point x="87" y="172" type="qcurve" smooth="yes"/>
      <point x="71" y="159"/>
      <point x="71" y="137" type="qcurve" smooth="yes"/>
      <point x="71" y="88"/>
      <point x="107" y="58" type="qcurve" smooth="yes"/>
      <point x="143" y="28"/>
      <point x="203" y="28" type="qcurve" smooth="yes"/>
      <point x="246" y="28"/>
      <point x="272" y="58" type="qcurve" smooth="yes"/>
      <point x="298" y="88"/>
      <point x="298" y="137" type="qcurve"/>
    </contour>
  </outline>
</glyph>
<glyph name="uni0B9A_uni0BC1" format="1">
  <advance width="634"/>
  <outline>
    <contour>
      <point x="629" y="185" type="line"/>
      <point x="534" y="185" type="line"/>
      <point x="534" y="0" type="line"/>
      <point x="459" y="0" type="line"/>
      <point x="459" y="185" type="line"/>
      <point x="357" y="185" type="line"/>
      <point x="357" y="137" type="line" smooth="yes"/>
      <point x="357" y="68"/>
      <point x="314" y="33" type="qcurve" smooth="yes"/>
      <point x="271" y="-2"/>
      <point x="187" y="-2" type="qcurve" smooth="yes"/>
      <point x="113" y="-2"/>
      <point x="69" y="36" type="qcurve" smooth="yes"/>
      <point x="25" y="74"/>
      <point x="25" y="137" type="qcurve" smooth="yes"/>
      <point x="25" y="172"/>
      <point x="51" y="194" type="qcurve" smooth="yes"/>
      <point x="77" y="215"/>
      <point x="120" y="215" type="qcurve" smooth="yes"/>
      <point x="134" y="215" type="line"/>
      <point x="134" y="400" type="line"/>
      <point x="530" y="400" type="line"/>
      <point x="530" y="370" type="line"/>
      <point x="357" y="370" type="line"/>
      <point x="357" y="215" type="line"/>
      <point x="629" y="215" type="line"/>
      <point x="629" y="185" type="line"/>
    </contour>
    <contour>
      <point x="282" y="215" type="line"/>
      <point x="282" y="370" type="line"/>
      <point x="164" y="370" type="line"/>
      <point x="164" y="215" type="line"/>
      <point x="282" y="215" type="line"/>
    </contour>
    <contour>
      <point x="282" y="137" type="line"/>
      <point x="282" y="185" type="line"/>
      <point x="113" y="185" type="line" smooth="yes"/>
      <point x="87" y="185"/>
      <point x="71" y="172" type="qcurve" smooth="yes"/>
      <point x="55" y="159"/>
      <point x="55" y="137" type="qcurve" smooth="yes"/>
      <point x="55" y="88"/>
      <point x="91" y="58" type="qcurve" smooth="yes"/>
      <point x="128" y="28"/>
      <point x="188" y="28" type="qcurve" smooth="yes"/>
      <point x="231" y="28"/>
      <point x="256" y="58" type="qcurve" smooth="yes"/>
      <point x="282" y="88"/>
      <point x="282" y="137" type="qcurve"/>
    </contour>
  </outline>
</glyph>
<glyph name="uni0B9A_uni0BC2" format="1">
  <advance width="889"/>
  <outline>
    <contour>
      <point x="528" y="185" type="line"/>
      <point x="528" y="137" type="line" smooth="yes"/>
      <point x="528" y="68"/>
      <point x="485" y="33" type="qcurve" smooth="yes"/>
      <point x="442" y="-2"/>
      <point x="357" y="-2" type="qcurve" smooth="yes"/>
      <point x="284" y="-2"/>
      <point x="240" y="36" type="qcurve" smooth="yes"/>
      <point x="196" y="74"/>
      <point x="196" y="137" type="qcurve" smooth="yes"/>
      <point x="196" y="172"/>
      <point x="222" y="194" type="qcurve" smooth="yes"/>
      <point x="247" y="215"/>
      <point x="290" y="215" type="qcurve" smooth="yes"/>
      <point x="305" y="215" type="line"/>
      <point x="305" y="400" type="line"/>
      <point x="701" y="400" type="line"/>
      <point x="701" y="370" type="line"/>
      <point x="528" y="370" type="line"/>
      <point x="528" y="215" type="line"/>
      <point x="821" y="215" type="line"/>
      <point x="821" y="185" type="line"/>
      <point x="703" y="185" type="line"/>
      <point x="703" y="108" type="line"/>
      <point x="707" y="116"/>
      <point x="724" y="121" type="qcurve" smooth="yes"/>
      <point x="740" y="126"/>
      <point x="764" y="126" type="qcurve" smooth="yes"/>
      <point x="813" y="126"/>
      <point x="843" y="90" type="qcurve" smooth="yes"/>
      <point x="872" y="53"/>
      <point x="872" y="-7" type="qcurve" smooth="yes"/>
      <point x="872" y="-108"/>
      <point x="760" y="-168" type="qcurve" smooth="yes"/>
      <point x="647" y="-229"/>
      <point x="461" y="-229" type="qcurve" smooth="yes"/>
      <point x="288" y="-229"/>
      <point x="165" y="-131" type="qcurve" smooth="yes"/>
      <point x="43" y="-33"/>
      <point x="43" y="106" type="qcurve" smooth="yes"/>
      <point x="43" y="198"/>
      <point x="82" y="273" type="qcurve" smooth="yes"/>
      <point x="120" y="348"/>
      <point x="187" y="387" type="qcurve"/>
      <point x="202" y="364" type="line"/>
      <point x="141" y="316"/>
      <point x="107" y="249" type="qcurve" smooth="yes"/>
      <point x="73" y="181"/>
      <point x="73" y="107" type="qcurve" smooth="yes"/>
      <point x="73" y="-26"/>
      <point x="183" y="-112" type="qcurve" smooth="yes"/>
      <point x="292" y="-199"/>
      <point x="460" y="-199" type="qcurve" smooth="yes"/>
      <point x="620" y="-199"/>
      <point x="708" y="-147" type="qcurve" smooth="yes"/>
      <point x="797" y="-95"/>
      <point x="797" y="-1" type="qcurve" smooth="yes"/>
      <point x="797" y="49"/>
      <point x="782" y="73" type="qcurve" smooth="yes"/>
      <point x="767" y="96"/>
      <point x="736" y="96" type="qcurve" smooth="yes"/>
      <point x="728" y="96"/>
      <point x="719" y="92" type="qcurve" smooth="yes"/>
      <point x="710" y="87"/>
      <point x="703" y="79" type="qcurve"/>
      <point x="703" y="0" type="line"/>
      <point x="628" y="0" type="line"/>
      <point x="628" y="185" type="line"/>
      <point x="528" y="185" type="line"/>
    </contour>
    <contour>
      <point x="453" y="215" type="line"/>
      <point x="453" y="370" type="line"/>
      <point x="335" y="370" type="line"/>
      <point x="335" y="215" type="line"/>
      <point x="453" y="215" type="line"/>
    </contour>
    <contour>
      <point x="453" y="137" type="line"/>
      <point x="453" y="185" type="line"/>
      <point x="284" y="185" type="line" smooth="yes"/>
      <point x="258" y="185"/>
      <point x="242" y="172" type="qcurve" smooth="yes"/>
      <point x="226" y="159"/>
      <point x="226" y="137" type="qcurve" smooth="yes"/>
      <point x="226" y="88"/>
      <point x="262" y="58" type="qcurve" smooth="yes"/>
      <point x="298" y="28"/>
      <point x="358" y="28" type="qcurve" smooth="yes"/>
      <point x="401" y="28"/>
      <point x="427" y="58" type="qcurve" smooth="yes"/>
      <point x="453" y="88"/>
      <point x="453" y="137" type="qcurve"/>
    </contour>
  </outline>
</glyph>
<glyph name="uni0B9F_uni0BBF" format="1">
  <advance width="750"/>
  <outline>
    <contour>
      <point x="745" y="0" type="line"/>
      <point x="541" y="0" type="line"/>
      <point x="541" y="-231" type="line"/>
      <point x="466" y="-231" type="line"/>
      <point x="466" y="0" type="line"/>
      <point x="70" y="0" type="line"/>
      <point x="70" y="400" type="line"/>
      <point x="145" y="400" type="line"/>
      <point x="145" y="30" type="line"/>
      <point x="414" y="30" type="line"/>
      <point x="369" y="51"/>
      <point x="342" y="101" type="qcurve" smooth="yes"/>
      <point x="315" y="150"/>
      <point x="315" y="213" type="qcurve" smooth="yes"/>
      <point x="315" y="292"/>
      <point x="348" y="336" type="qcurve" smooth="yes"/>
      <point x="381" y="380"/>
      <point x="441" y="380" type="qcurve" smooth="yes"/>
      <point x="482" y="380"/>
      <point x="512" y="350" type="qcurve" smooth="yes"/>
      <point x="541" y="320"/>
      <point x="541" y="278" type="qcurve" smooth="yes"/>
      <point x="541" y="30" type="line"/>
      <point x="745" y="30" type="line"/>
      <point x="745" y="0" type="line"/>
    </contour>
    <contour>
      <point x="466" y="32" type="line"/>
      <point x="466" y="282" type="line" smooth="yes"/>
      <point x="466" y="313"/>
      <point x="453" y="331" type="qcurve" smooth="yes"/>
      <point x="439" y="350"/>
      <point x="417" y="350" type="qcurve" smooth="yes"/>
      <point x="387" y="350"/>
      <point x="366" y="310" type="qcurve" smooth="yes"/>
      <point x="345" y="271"/>
      <point x="345" y="215" type="qcurve" smooth="yes"/>
      <point x="345" y="156"/>
      <point x="378" y="106" type="qcurve" smooth="yes"/>
      <point x="411" y="57"/>
      <point x="466" y="32" type="qcurve"/>
    </contour>
  </outline>
</glyph>
<glyph name="uni0B9F_uni0BC0" format="1">
  <advance width="774"/>
  <outline>
    <contour>
      <point x="769" y="0" type="line"/>
      <point x="70" y="0" type="line"/>
      <point x="70" y="400" type="line"/>
      <point x="145" y="400" type="line"/>
      <point x="145" y="30" type="line"/>
      <point x="424" y="30" type="line"/>
      <point x="380" y="52"/>
      <point x="355" y="97" type="qcurve" smooth="yes"/>
      <point x="329" y="142"/>
      <point x="329" y="197" type="qcurve" smooth="yes"/>
      <point x="329" y="269"/>
      <point x="383" y="319" type="qcurve" smooth="yes"/>
      <point x="437" y="370"/>
      <point x="513" y="370" type="qcurve" smooth="yes"/>
      <point x="592" y="370"/>
      <point x="633" y="339" type="qcurve" smooth="yes"/>
      <point x="673" y="308"/>
      <point x="673" y="248" type="qcurve" smooth="yes"/>
      <point x="673" y="207"/>
      <point x="644" y="183" type="qcurve" smooth="yes"/>
      <point x="616" y="158"/>
      <point x="568" y="158" type="qcurve" smooth="yes"/>
      <point x="527" y="158"/>
      <point x="502" y="184" type="qcurve" smooth="yes"/>
      <point x="477" y="210"/>
      <point x="477" y="253" type="qcurve" smooth="yes"/>
      <point x="477" y="275"/>
      <point x="484" y="295" type="qcurve" smooth="yes"/>
      <point x="491" y="315"/>
      <point x="505" y="331" type="qcurve"/>
      <point x="443" y="326"/>
      <point x="401" y="286" type="qcurve" smooth="yes"/>
      <point x="359" y="247"/>
      <point x="359" y="195" type="qcurve" smooth="yes"/>
      <point x="359" y="145"/>
      <point x="389" y="101" type="qcurve" smooth="yes"/>
      <point x="419" y="56"/>
      <point x="470" y="30" type="qcurve"/>
      <point x="769" y="30" type="line"/>
      <point x="769" y="0" type="line"/>
    </contour>
    <contour>
      <point x="598" y="253" type="line"/>
      <point x="598" y="282"/>
      <point x="585" y="302" type="qcurve" smooth="yes"/>
      <point x="572" y="323"/>
      <point x="554" y="323" type="qcurve" smooth="yes"/>
      <point x="535" y="323"/>
      <point x="521" y="303" type="qcurve" smooth="yes"/>
      <point x="507" y="283"/>
      <point x="507" y="254" type="qcurve" smooth="yes"/>
      <point x="507" y="227"/>
      <point x="520" y="207" type="qcurve" smooth="yes"/>
      <point x="534" y="188"/>
      <point x="553" y="188" type="qcurve" smooth="yes"/>
      <point x="572" y="188"/>
      <point x="585" y="207" type="qcurve" smooth="yes"/>
      <point x="598" y="226"/>
      <point x="598" y="253" type="qcurve"/>
    </contour>
  </outline>
</glyph>
<glyph name="uni0B9F_uni0BC1" format="1">
  <advance width="731"/>
  <outline>
    <contour>
      <point x="665" y="0" type="line"/>
      <point x="635" y="0" type="line"/>
      <point x="635" y="219" type="line" smooth="yes"/>
      <point x="635" y="359"/>
      <point x="560" y="443" type="qcurve" smooth="yes"/>
      <point x="485" y="527"/>
      <point x="360" y="527" type="qcurve" smooth="yes"/>
      <point x="238" y="527"/>
      <point x="164" y="440" type="qcurve" smooth="yes"/>
      <point x="91" y="352"/>
      <point x="91" y="207" type="qcurve" smooth="yes"/>
      <point x="91" y="25"/>
      <point x="150" y="-76" type="qcurve" smooth="yes"/>
      <point x="209" y="-177"/>
      <point x="315" y="-177" type="qcurve" smooth="yes"/>
      <point x="389" y="-177"/>
      <point x="434" y="-114" type="qcurve" smooth="yes"/>
      <point x="479" y="-52"/>
      <point x="479" y="52" type="qcurve" smooth="yes"/>
      <point x="479" y="116"/>
      <point x="462" y="154" type="qcurve" smooth="yes"/>
      <point x="445" y="192"/>
      <point x="417" y="192" type="qcurve" smooth="yes"/>
      <point x="396" y="192"/>
      <point x="379" y="174" type="qcurve" smooth="yes"/>
      <point x="362" y="156"/>
      <point x="357" y="128" type="qcurve"/>
      <point x="357" y="0" type="line"/>
      <point x="282" y="0" type="line"/>
      <point x="282" y="400" type="line"/>
      <point x="357" y="400" type="line"/>
      <point x="357" y="190" type="line"/>
      <point x="369" y="205"/>
      <point x="387" y="214" type="qcurve" smooth="yes"/>
      <point x="405" y="222"/>
      <point x="425" y="222" type="qcurve" smooth="yes"/>
      <point x="484" y="222"/>
      <point x="519" y="175" type="qcurve" smooth="yes"/>
      <point x="554" y="129"/>
      <point x="554" y="51" type="qcurve" smooth="yes"/>
      <point x="554" y="-71"/>
      <point x="491" y="-139" type="qcurve" smooth="yes"/>
      <point x="428" y="-207"/>
      <point x="315" y="-207" type="qcurve" smooth="yes"/>
      <point x="195" y="-207"/>
      <point x="128" y="-97" type="qcurve" smooth="yes"/>
      <point x="61" y="12"/>
      <point x="61" y="210" type="qcurve" smooth="yes"/>
      <point x="61" y="385"/>
      <point x="144" y="490" type="qcurve" smooth="yes"/>
      <point x="227" y="595"/>
      <point x="365" y="595" type="qcurve" smooth="yes"/>
      <point x="501" y="595"/>
      <point x="583" y="492" type="qcurve" smooth="yes"/>
      <point x="665" y="390"/>
      <point x="665" y="219" type="qcurve" smooth="yes"/>
      <point x="665" y="0" type="line"/>
    </contour>
  </outline>
</glyph>
<glyph name="uni0B9F_uni0BC2" format="1">
  <advance width="668"/>
  <outline>
    <contour>
      <point x="653" y="396" type="line"/>
      <point x="653" y="342"/>
      <point x="621" y="310" type="qcurve" smooth="yes"/>
      <point x="590" y="277"/>
      <point x="537" y="277" type="qcurve" smooth="yes"/>
      <point x="500" y="277"/>
      <point x="473" y="310" type="qcurve" smooth="yes"/>
      <point x="447" y="344"/>
      <point x="447" y="391" type="qcurve" smooth="yes"/>
      <point x="447" y="438"/>
      <point x="469" y="472" type="qcurve" smooth="yes"/>
      <point x="490" y="506"/>
      <point x="523" y="510" type="qcurve"/>
      <point x="502" y="530"/>
      <point x="463" y="541" type="qcurve" smooth="yes"/>
      <point x="425" y="552"/>
      <point x="374" y="552" type="qcurve" smooth="yes"/>
      <point x="251" y="552"/>
      <point x="170" y="454" type="qcurve" smooth="yes"/>
      <point x="90" y="357"/>
      <point x="90" y="208" type="qcurve" smooth="yes"/>
      <point x="90" y="34"/>
      <point x="154" y="-71" type="qcurve" smooth="yes"/>
      <point x="217" y="-176"/>
      <point x="323" y="-176" type="qcurve" smooth="yes"/>
      <point x="401" y="-176"/>
      <point x="449" y="-114" type="qcurve" smooth="yes"/>
      <point x="496" y="-52"/>
      <point x="496" y="51" type="qcurve" smooth="yes"/>
      <point x="496" y="113"/>
      <point x="475" y="151" type="qcurve" smooth="yes"/>
      <point x="453" y="188"/>
      <point x="418" y="188" type="qcurve" smooth="yes"/>
      <point x="393" y="188"/>
      <point x="376" y="170" type="qcurve" smooth="yes"/>
      <point x="358" y="152"/>
      <point x="358" y="127" type="qcurve" smooth="yes"/>
      <point x="358" y="0" type="line"/>
      <point x="283" y="0" type="line"/>
      <point x="283" y="400" type="line"/>
      <point x="358" y="400" type="line"/>
      <point x="358" y="190" type="line"/>
      <point x="369" y="203"/>
      <point x="387" y="211" type="qcurve" smooth="yes"/>
      <point x="404" y="218"/>
      <point x="426" y="218" type="qcurve" smooth="yes"/>
      <point x="492" y="218"/>
      <point x="531" y="172" type="qcurve" smooth="yes"/>
      <point x="571" y="126"/>
      <point x="571" y="49" type="qcurve" smooth="yes"/>
      <point x="571" y="-72"/>
      <point x="506" y="-139" type="qcurve" smooth="yes"/>
      <point x="442" y="-206"/>
      <point x="325" y="-206" type="qcurve" smooth="yes"/>
      <point x="199" y="-206"/>
      <point x="130" y="-97" type="qcurve" smooth="yes"/>
      <point x="60" y="12"/>
      <point x="60" y="208" type="qcurve" smooth="yes"/>
      <point x="60" y="372"/>
      <point x="153" y="488" type="qcurve" smooth="yes"/>
      <point x="246" y="604"/>
      <point x="378" y="604" type="qcurve" smooth="yes"/>
      <point x="492" y="604"/>
      <point x="572" y="543" type="qcurve" smooth="yes"/>
      <point x="653" y="482"/>
      <point x="653" y="396" type="qcurve"/>
    </contour>
    <contour>
      <point x="578" y="395" type="line"/>
      <point x="578" y="429"/>
      <point x="563" y="454" type="qcurve" smooth="yes"/>
      <point x="548" y="478"/>
      <point x="527" y="478" type="qcurve" smooth="yes"/>
      <point x="506" y="478"/>
      <point x="492" y="453" type="qcurve" smooth="yes"/>
      <point x="477" y="427"/>
      <point x="477" y="391" type="qcurve" smooth="yes"/>
      <point x="477" y="356"/>
      <point x="492" y="332" type="qcurve" smooth="yes"/>
      <point x="506" y="307"/>
      <point x="527" y="307" type="qcurve" smooth="yes"/>
      <point x="548" y="307"/>
      <point x="563" y="333" type="qcurve" smooth="yes"/>
      <point x="578" y="359"/>
      <point x="578" y="395" type="qcurve"/>
    </contour>
  </outline>
</glyph>
<glyph name="uni0BA3_uni0BC1" format="1">
  <advance width="1330"/>
  <outline>
    <contour>
      <point x="1012" y="163" type="line"/>
      <point x="1012" y="248"/>
      <point x="977" y="309" type="qcurve" smooth="yes"/>
      <point x="942" y="369"/>
      <point x="892" y="369" type="qcurve" smooth="yes"/>
      <point x="873" y="369"/>
      <point x="851" y="360" type="qcurve" smooth="yes"/>
      <point x="830" y="352"/>
      <point x="809" y="335" type="qcurve"/>
      <point x="850" y="295"/>
      <point x="873" y="244" type="qcurve" smooth="yes"/>
      <point x="895" y="192"/>
      <point x="895" y="137" type="qcurve" smooth="yes"/>
      <point x="895" y="72"/>
      <point x="866" y="33" type="qcurve" smooth="yes"/>
      <point x="836" y="-6"/>
      <point x="787" y="-6" type="qcurve" smooth="yes"/>
      <point x="738" y="-6"/>
      <point x="709" y="33" type="qcurve" smooth="yes"/>
      <point x="680" y="72"/>
      <point x="680" y="137" type="qcurve" smooth="yes"/>
      <point x="680" y="186"/>
      <point x="696" y="232" type="qcurve" smooth="yes"/>
      <point x="713" y="278"/>
      <point x="744" y="315" type="qcurve"/>
      <point x="722" y="341"/>
      <point x="693" y="355" type="qcurve" smooth="yes"/>
      <point x="664" y="369"/>
      <point x="633" y="369" type="qcurve" smooth="yes"/>
      <point x="602" y="369"/>
      <point x="574" y="359" type="qcurve" smooth="yes"/>
      <point x="546" y="349"/>
      <point x="523" y="330" type="qcurve"/>
      <point x="565" y="292"/>
      <point x="589" y="241" type="qcurve" smooth="yes"/>
      <point x="612" y="191"/>
      <point x="612" y="137" type="qcurve" smooth="yes"/>
      <point x="612" y="72"/>
      <point x="580" y="33" type="qcurve" smooth="yes"/>
      <point x="549" y="-6"/>
      <point x="496" y="-6" type="qcurve" smooth="yes"/>
      <point x="445" y="-6"/>
      <point x="414" y="33" type="qcurve" smooth="yes"/>
      <point x="383" y="72"/>
      <point x="383" y="137" type="qcurve" smooth="yes"/>
      <point x="383" y="185"/>
      <point x="401" y="230" type="qcurve" smooth="yes"/>
      <point x="420" y="275"/>
      <point x="454" y="312" type="qcurve"/>
      <point x="423" y="340"/>
      <point x="379" y="354" type="qcurve" smooth="yes"/>
      <point x="335" y="369"/>
      <point x="283" y="369" type="qcurve" smooth="yes"/>
      <point x="194" y="369"/>
      <point x="132" y="312" type="qcurve" smooth="yes"/>
      <point x="69" y="255"/>
      <point x="69" y="175" type="qcurve" smooth="yes"/>
      <point x="69" y="125"/>
      <point x="88" y="88" type="qcurve" smooth="yes"/>
      <point x="106" y="51"/>
      <point x="137" y="39" type="qcurve"/>
      <point x="124" y="54"/>
      <point x="118" y="74" type="qcurve" smooth="yes"/>
      <point x="111" y="95"/>
      <point x="111" y="118" type="qcurve" smooth="yes"/>
      <point x="111" y="168"/>
      <point x="138" y="199" type="qcurve" smooth="yes"/>
      <point x="166" y="229"/>
      <point x="211" y="229" type="qcurve" smooth="yes"/>
      <point x="257" y="229"/>
      <point x="289" y="197" type="qcurve" smooth="yes"/>
      <point x="321" y="165"/>
      <point x="321" y="120" type="qcurve" smooth="yes"/>
      <point x="321" y="63"/>
      <point x="285" y="28" type="qcurve" smooth="yes"/>
      <point x="250" y="-6"/>
      <point x="191" y="-6" type="qcurve" smooth="yes"/>
      <point x="128" y="-6"/>
      <point x="84" y="46" type="qcurve" smooth="yes"/>
      <point x="39" y="99"/>
      <point x="39" y="173" type="qcurve" smooth="yes"/>
      <point x="39" y="276"/>
      <point x="111" y="337" type="qcurve" smooth="yes"/>
      <point x="183" y="399"/>
      <point x="302" y="399" type="qcurve" smooth="yes"/>
      <point x="367" y="399"/>
      <point x="417" y="386" type="qcurve" smooth="yes"/>
      <point x="467" y="374"/>
      <point x="495" y="350" type="qcurve"/>
      <point x="523" y="374"/>
      <point x="560" y="386" type="qcurve" smooth="yes"/>
      <point x="598" y="399"/>
      <point x="639" y="399" type="qcurve" smooth="yes"/>
      <point x="685" y="399"/>
      <point x="722" y="388" type="qcurve" smooth="yes"/>
      <point x="760" y="377"/>
      <point x="785" y="357" type="qcurve"/>
      <point x="813" y="378"/>
      <point x="842" y="389" type="qcurve" smooth="yes"/>
      <point x="870" y="400"/>
      <point x="897" y="400" type="qcurve" smooth="yes"/>
      <point x="983" y="400"/>
      <point x="1035" y="334" type="qcurve" smooth="yes"/>
      <point x="1087" y="268"/>
      <point x="1087" y="159" type="qcurve" smooth="yes"/>
      <point x="1087" y="31"/>
      <point x="1015" y="-68" type="qcurve"/>
      <point x="1185" y="-68" type="line"/>
      <point x="1185" y="400" type="line"/>
      <point x="1260" y="400" type="line"/>
      <point x="1260" y="-98" type="line"/>
      <point x="994" y="-98" type="line"/>
      <point x="927" y="-175"/>
      <point x="786" y="-218" type="qcurve" smooth="yes"/>
      <point x="646" y="-260"/>
      <point x="457" y="-260" type="qcurve" smooth="yes"/>
      <point x="296" y="-260"/>
      <point x="159" y="-213" type="qcurve" smooth="yes"/>
      <point x="22" y="-167"/>
      <point x="22" y="-112" type="qcurve" smooth="yes"/>
      <point x="22" y="-94"/>
      <point x="42" y="-81" type="qcurve" smooth="yes"/>
      <point x="62" y="-68"/>
      <point x="91" y="-68" type="qcurve" smooth="yes"/>
      <point x="940" y="-68" type="line"/>
      <point x="975" y="-23"/>
      <point x="993" y="36" type="qcurve" smooth="yes"/>
      <point x="1012" y="96"/>
      <point x="1012" y="163" type="qcurve"/>
    </contour>
    <contour>
      <point x="820" y="137" type="line"/>
      <point x="820" y="181"/>
      <point x="806" y="220" type="qcurve" smooth="yes"/>
      <point x="792" y="260"/>
      <point x="765" y="288" type="qcurve"/>
      <point x="739" y="261"/>
      <point x="724" y="221" type="qcurve" smooth="yes"/>
      <point x="710" y="182"/>
      <point x="710" y="137" type="qcurve" smooth="yes"/>
      <point x="710" y="98"/>
      <point x="727" y="71" type="qcurve" smooth="yes"/>
      <point x="744" y="44"/>
      <point x="768" y="44" type="qcurve" smooth="yes"/>
      <point x="790" y="44"/>
      <point x="805" y="71" type="qcurve" smooth="yes"/>
      <point x="820" y="98"/>
      <point x="820" y="137" type="qcurve"/>
    </contour>
    <contour>
      <point x="537" y="137" type="line"/>
      <point x="537" y="179"/>
      <point x="521" y="219" type="qcurve" smooth="yes"/>
      <point x="506" y="258"/>
      <point x="477" y="289" type="qcurve"/>
      <point x="446" y="256"/>
      <point x="430" y="217" type="qcurve" smooth="yes"/>
      <point x="413" y="177"/>
      <point x="413" y="137" type="qcurve" smooth="yes"/>
      <point x="413" y="98"/>
      <point x="431" y="71" type="qcurve" smooth="yes"/>
      <point x="449" y="44"/>
      <point x="474" y="44" type="qcurve" smooth="yes"/>
      <point x="500" y="44"/>
      <point x="519" y="71" type="qcurve" smooth="yes"/>
      <point x="537" y="98"/>
      <point x="537" y="137" type="qcurve"/>
    </contour>
    <contour>
      <point x="246" y="118" type="line"/>
      <point x="246" y="147"/>
      <point x="230" y="168" type="qcurve" smooth="yes"/>
      <point x="214" y="189"/>
      <point x="192" y="189" type="qcurve" smooth="yes"/>
      <point x="171" y="189"/>
      <point x="156" y="168" type="qcurve" smooth="yes"/>
      <point x="141" y="147"/>
      <point x="141" y="117" type="qcurve" smooth="yes"/>
      <point x="141" y="87"/>
      <point x="156" y="65" type="qcurve" smooth="yes"/>
      <point x="171" y="44"/>
      <point x="192" y="44" type="qcurve" smooth="yes"/>
      <point x="214" y="44"/>
      <point x="230" y="66" type="qcurve" smooth="yes"/>
      <point x="246" y="87"/>
      <point x="246" y="118" type="qcurve"/>
    </contour>
    <contour>
      <point x="909" y="-98" type="line"/>
      <point x="88" y="-98" type="line" smooth="yes"/>
      <point x="73" y="-98"/>
      <point x="63" y="-102" type="qcurve" smooth="yes"/>
      <point x="52" y="-106"/>
      <point x="52" y="-112" type="qcurve" smooth="yes"/>
      <point x="52" y="-151"/>
      <point x="181" y="-190" type="qcurve" smooth="yes"/>
      <point x="309" y="-230"/>
      <point x="436" y="-230" type="qcurve" smooth="yes"/>
      <point x="591" y="-230"/>
      <point x="713" y="-196" type="qcurve" smooth="yes"/>
      <point x="836" y="-162"/>
      <point x="909" y="-98" type="qcurve"/>
    </contour>
  </outline>
</glyph>
<glyph name="uni0BA8_uni0BBF" format="1">
  <advance width="720"/>
  <outline>
    <contour>
      <point x="526" y="103" type="line"/>
      <point x="526" y="8"/>
      <point x="470" y="-45" type="qcurve" smooth="yes"/>
      <point x="414" y="-98"/>
      <point x="312" y="-98" type="qcurve" smooth="yes"/>
      <point x="132" y="-98" type="line" smooth="yes"/>
      <point x="106" y="-98"/>
      <point x="87" y="-109" type="qcurve" smooth="yes"/>
      <point x="69" y="-121"/>
      <point x="69" y="-137" type="qcurve"/>
      <point x="84" y="-135" type="line" smooth="yes"/>
      <point x="101" y="-135"/>
      <point x="112" y="-148" type="qcurve" smooth="yes"/>
      <point x="124" y="-162"/>
      <point x="124" y="-181" type="qcurve" smooth="yes"/>
      <point x="124" y="-197"/>
      <point x="111" y="-209" type="qcurve" smooth="yes"/>
      <point x="97" y="-220"/>
      <point x="78" y="-220" type="qcurve" smooth="yes"/>
      <point x="58" y="-220"/>
      <point x="43" y="-205" type="qcurve" smooth="yes"/>
      <point x="29" y="-190"/>
      <point x="29" y="-169" type="qcurve" smooth="yes"/>
      <point x="29" y="-127"/>
      <point x="60" y="-98" type="qcurve" smooth="yes"/>
      <point x="92" y="-68"/>
      <point x="136" y="-68" type="qcurve" smooth="yes"/>
      <point x="315" y="-68" type="line" smooth="yes"/>
      <point x="385" y="-68"/>
      <point x="418" y="-26" type="qcurve" smooth="yes"/>
      <point x="451" y="16"/>
      <point x="451" y="105" type="qcurve" smooth="yes"/>
      <point x="451" y="151"/>
      <point x="427" y="183" type="qcurve" smooth="yes"/>
      <point x="404" y="215"/>
      <point x="370" y="215" type="qcurve" smooth="yes"/>
      <point x="356" y="215"/>
      <point x="342" y="209" type="qcurve" smooth="yes"/>
      <point x="328" y="202"/>
      <point x="316" y="190" type="qcurve"/>
      <point x="316" y="0" type="line"/>
      <point x="241" y="0" type="line"/>
      <point x="241" y="370" type="line"/>
      <point x="100" y="370" type="line"/>
      <point x="100" y="0" type="line"/>
      <point x="70" y="0" type="line"/>
      <point x="70" y="400" type="line"/>
      <point x="256" y="400" type="line"/>
      <point x="249" y="412"/>
      <point x="245" y="432" type="qcurve" smooth="yes"/>
      <point x="241" y="453"/>
      <point x="241" y="480" type="qcurve" smooth="yes"/>
      <point x="241" y="555"/>
      <point x="299" y="608" type="qcurve" smooth="yes"/>
      <point x="358" y="661"/>
      <point x="440" y="661" type="qcurve" smooth="yes"/>
      <point x="548" y="661"/>
      <point x="599" y="596" type="qcurve" smooth="yes"/>
      <point x="650" y="532"/>
      <point x="650" y="394" type="qcurve" smooth="yes"/>
      <point x="650" y="0" type="line"/>
      <point x="620" y="0" type="line"/>
      <point x="620" y="397" type="line" smooth="yes"/>
      <point x="620" y="499"/>
      <point x="575" y="546" type="qcurve" smooth="yes"/>
      <point x="530" y="594"/>
      <point x="435" y="594" type="qcurve" smooth="yes"/>
      <point x="367" y="594"/>
      <point x="319" y="557" type="qcurve" smooth="yes"/>
      <point x="271" y="520"/>
      <point x="271" y="468" type="qcurve" smooth="yes"/>
      <point x="271" y="427"/>
      <point x="290" y="399" type="qcurve"/>
      <point x="504" y="400" type="line"/>
      <point x="504" y="370" type="line"/>
      <point x="316" y="370" type="line"/>
      <point x="316" y="225" type="line"/>
      <point x="352" y="252"/>
      <point x="397" y="252" type="qcurve" smooth="yes"/>
      <point x="450" y="252"/>
      <point x="488" y="208" type="qcurve" smooth="yes"/>
      <point x="526" y="165"/>
      <point x="526" y="103" type="qcurve"/>
    </contour>
  </outline>
</glyph>
<glyph name="uni0BA8_uni0BC0" format="1">
  <advance width="572"/>
  <outline>
    <contour>
      <point x="577" y="540" type="line"/>
      <point x="577" y="495"/>
      <point x="551" y="468" type="qcurve" smooth="yes"/>
      <point x="525" y="441"/>
      <point x="482" y="441" type="qcurve" smooth="yes"/>
      <point x="439" y="441"/>
      <point x="413" y="467" type="qcurve" smooth="yes"/>
      <point x="387" y="492"/>
      <point x="387" y="535" type="qcurve" smooth="yes"/>
      <point x="387" y="561"/>
      <point x="394" y="580" type="qcurve" smooth="yes"/>
      <point x="401" y="600"/>
      <point x="413" y="610" type="qcurve"/>
      <point x="354" y="610"/>
      <point x="312" y="574" type="qcurve" smooth="yes"/>
      <point x="270" y="539"/>
      <point x="270" y="488" type="qcurve" smooth="yes"/>
      <point x="270" y="461"/>
      <point x="279" y="438" type="qcurve" smooth="yes"/>
      <point x="287" y="415"/>
      <point x="303" y="400" type="qcurve"/>
      <point x="514" y="400" type="line"/>
      <point x="514" y="370" type="line"/>
      <point x="331" y="370" type="line"/>
      <point x="331" y="230" type="line"/>
      <point x="359" y="247"/>
      <point x="402" y="247" type="qcurve" smooth="yes"/>
      <point x="458" y="247"/>
      <point x="497" y="205" type="qcurve" smooth="yes"/>
      <point x="536" y="163"/>
      <point x="536" y="104" type="qcurve" smooth="yes"/>
      <point x="536" y="8"/>
      <point x="480" y="-45" type="qcurve" smooth="yes"/>
      <point x="424" y="-98"/>
      <point x="322" y="-98" type="qcurve" smooth="yes"/>
      <point x="142" y="-98" type="line" smooth="yes"/>
      <point x="117" y="-98"/>
      <point x="99" y="-109" type="qcurve" smooth="yes"/>
      <point x="80" y="-120"/>
      <point x="76" y="-137" type="qcurve"/>
      <point x="94" y="-135" type="line" smooth="yes"/>
      <point x="111" y="-135"/>
      <point x="122" y="-148" type="qcurve" smooth="yes"/>
      <point x="134" y="-162"/>
      <point x="134" y="-181" type="qcurve" smooth="yes"/>
      <point x="134" y="-197"/>
      <point x="121" y="-209" type="qcurve" smooth="yes"/>
      <point x="107" y="-220"/>
      <point x="88" y="-220" type="qcurve" smooth="yes"/>
      <point x="68" y="-220"/>
      <point x="53" y="-205" type="qcurve" smooth="yes"/>
      <point x="39" y="-190"/>
      <point x="39" y="-169" type="qcurve" smooth="yes"/>
      <point x="39" y="-127"/>
      <point x="70" y="-98" type="qcurve" smooth="yes"/>
      <point x="102" y="-68"/>
      <point x="146" y="-68" type="qcurve" smooth="yes"/>
      <point x="325" y="-68" type="line" smooth="yes"/>
      <point x="392" y="-68"/>
      <point x="427" y="-24" type="qcurve" smooth="yes"/>
      <point x="461" y="19"/>
      <point x="461" y="105" type="qcurve" smooth="yes"/>
      <point x="461" y="151"/>
      <point x="437" y="184" type="qcurve" smooth="yes"/>
      <point x="414" y="217"/>
      <point x="380" y="217" type="qcurve" smooth="yes"/>
      <point x="368" y="217"/>
      <point x="356" y="211" type="qcurve" smooth="yes"/>
      <point x="343" y="205"/>
      <point x="331" y="194" type="qcurve"/>
      <point x="331" y="0" type="line"/>
      <point x="256" y="0" type="line"/>
      <point x="256" y="370" type="line"/>
      <point x="100" y="370" type="line"/>
      <point x="100" y="0" type="line"/>
      <point x="70" y="0" type="line"/>
      <point x="70" y="400" type="line"/>
      <point x="264" y="400" type="line"/>
      <point x="240" y="437"/>
      <point x="240" y="489" type="qcurve" smooth="yes"/>
      <point x="240" y="557"/>
      <point x="293" y="606" type="qcurve" smooth="yes"/>
      <point x="346" y="654"/>
      <point x="421" y="654" type="qcurve" smooth="yes"/>
      <point x="501" y="654"/>
      <point x="539" y="626" type="qcurve" smooth="yes"/>
      <point x="577" y="599"/>
      <point x="577" y="540" type="qcurve"/>
    </contour>
    <contour>
      <point x="502" y="535" type="line"/>
      <point x="502" y="564"/>
      <point x="489" y="584" type="qcurve" smooth="yes"/>
      <point x="476" y="605"/>
      <point x="458" y="605" type="qcurve" smooth="yes"/>
      <point x="441" y="605"/>
      <point x="429" y="585" type="qcurve" smooth="yes"/>
      <point x="417" y="565"/>
      <point x="417" y="536" type="qcurve" smooth="yes"/>
      <point x="417" y="509"/>
      <point x="429" y="490" type="qcurve" smooth="yes"/>
      <point x="440" y="471"/>
      <point x="457" y="471" type="qcurve" smooth="yes"/>
      <point x="476" y="471"/>
      <point x="489" y="490" type="qcurve" smooth="yes"/>
      <point x="502" y="508"/>
      <point x="502" y="535" type="qcurve"/>
    </contour>
  </outline>
</glyph>
<glyph name="uni0BA9_uni0BBF" format="1">
  <advance width="1049"/>
  <outline>
    <contour>
      <point x="979" y="0" type="line"/>
      <point x="949" y="0" type="line"/>
      <point x="949" y="477" type="line" smooth="yes"/>
      <point x="949" y="525"/>
      <point x="915" y="560" type="qcurve" smooth="yes"/>
      <point x="880" y="594"/>
      <point x="832" y="594" type="qcurve" smooth="yes"/>
      <point x="786" y="594"/>
      <point x="754" y="561" type="qcurve" smooth="yes"/>
      <point x="722" y="528"/>
      <point x="722" y="482" type="qcurve" smooth="yes"/>
      <point x="722" y="450"/>
      <point x="742" y="400" type="qcurve"/>
      <point x="876" y="400" type="line"/>
      <point x="876" y="367" type="line"/>
      <point x="767" y="367" type="line"/>
      <point x="767" y="0" type="line"/>
      <point x="692" y="0" type="line"/>
      <point x="692" y="367" type="line"/>
      <point x="635" y="367" type="line" smooth="yes"/>
      <point x="592" y="367"/>
      <point x="559" y="357" type="qcurve" smooth="yes"/>
      <point x="527" y="346"/>
      <point x="510" y="327" type="qcurve"/>
      <point x="551" y="291"/>
      <point x="574" y="241" type="qcurve" smooth="yes"/>
      <point x="597" y="191"/>
      <point x="597" y="137" type="qcurve" smooth="yes"/>
      <point x="597" y="78"/>
      <point x="566" y="37" type="qcurve" smooth="yes"/>
      <point x="534" y="-5"/>
      <point x="490" y="-5" type="qcurve" smooth="yes"/>
      <point x="446" y="-5"/>
      <point x="414" y="37" type="qcurve" smooth="yes"/>
      <point x="383" y="78"/>
      <point x="383" y="137" type="qcurve" smooth="yes"/>
      <point x="383" y="190"/>
      <point x="401" y="236" type="qcurve" smooth="yes"/>
      <point x="420" y="282"/>
      <point x="453" y="312" type="qcurve"/>
      <point x="421" y="339"/>
      <point x="377" y="353" type="qcurve" smooth="yes"/>
      <point x="333" y="367"/>
      <point x="282" y="367" type="qcurve" smooth="yes"/>
      <point x="193" y="367"/>
      <point x="130" y="310" type="qcurve" smooth="yes"/>
      <point x="67" y="253"/>
      <point x="67" y="172" type="qcurve" smooth="yes"/>
      <point x="67" y="121"/>
      <point x="88" y="83" type="qcurve" smooth="yes"/>
      <point x="108" y="45"/>
      <point x="141" y="35" type="qcurve"/>
      <point x="126" y="45"/>
      <point x="117" y="70" type="qcurve" smooth="yes"/>
      <point x="108" y="94"/>
      <point x="108" y="127" type="qcurve" smooth="yes"/>
      <point x="108" y="173"/>
      <point x="136" y="201" type="qcurve" smooth="yes"/>
      <point x="165" y="229"/>
      <point x="212" y="229" type="qcurve" smooth="yes"/>
      <point x="255" y="229"/>
      <point x="286" y="197" type="qcurve" smooth="yes"/>
      <point x="317" y="165"/>
      <point x="317" y="120" type="qcurve" smooth="yes"/>
      <point x="317" y="63"/>
      <point x="281" y="29" type="qcurve" smooth="yes"/>
      <point x="245" y="-5"/>
      <point x="185" y="-5" type="qcurve" smooth="yes"/>
      <point x="124" y="-5"/>
      <point x="80" y="46" type="qcurve" smooth="yes"/>
      <point x="37" y="98"/>
      <point x="37" y="170" type="qcurve" smooth="yes"/>
      <point x="37" y="264"/>
      <point x="113" y="331" type="qcurve" smooth="yes"/>
      <point x="188" y="397"/>
      <point x="295" y="397" type="qcurve" smooth="yes"/>
      <point x="360" y="397"/>
      <point x="410" y="384" type="qcurve" smooth="yes"/>
      <point x="461" y="372"/>
      <point x="490" y="348" type="qcurve"/>
      <point x="511" y="373"/>
      <point x="549" y="386" type="qcurve" smooth="yes"/>
      <point x="587" y="400"/>
      <point x="636" y="400" type="qcurve" smooth="yes"/>
      <point x="709" y="400" type="line"/>
      <point x="692" y="433"/>
      <point x="692" y="481" type="qcurve" smooth="yes"/>
      <point x="692" y="563"/>
      <point x="731" y="612" type="qcurve" smooth="yes"/>
      <point x="769" y="661"/>
      <point x="833" y="661" type="qcurve" smooth="yes"/>
      <point x="899" y="661"/>
      <point x="939" y="610" type="qcurve" smooth="yes"/>
      <point x="979" y="559"/>
      <point x="979" y="475" type="qcurve" smooth="yes"/>
      <point x="979" y="0" type="line"/>
    </contour>
    <contour>
      <point x="522" y="137" type="line"/>
      <point x="522" y="186"/>
      <point x="509" y="224" type="qcurve" smooth="yes"/>
      <point x="495" y="263"/>
      <point x="471" y="284" type="qcurve"/>
      <point x="444" y="263"/>
      <point x="428" y="224" type="qcurve" smooth="yes"/>
      <point x="413" y="185"/>
      <point x="413" y="137" type="qcurve" smooth="yes"/>
      <point x="413" y="99"/>
      <point x="429" y="72" type="qcurve" smooth="yes"/>
      <point x="445" y="45"/>
      <point x="468" y="45" type="qcurve" smooth="yes"/>
      <point x="490" y="45"/>
      <point x="506" y="72" type="qcurve" smooth="yes"/>
      <point x="522" y="99"/>
      <point x="522" y="137" type="qcurve"/>
    </contour>
    <contour>
      <point x="242" y="117" type="line"/>
      <point x="242" y="147"/>
      <point x="226" y="168" type="qcurve" smooth="yes"/>
      <point x="210" y="189"/>
      <point x="188" y="189" type="qcurve" smooth="yes"/>
      <point x="167" y="189"/>
      <point x="153" y="168" type="qcurve" smooth="yes"/>
      <point x="138" y="147"/>
      <point x="138" y="117" type="qcurve" smooth="yes"/>
      <point x="138" y="87"/>
      <point x="154" y="66" type="qcurve" smooth="yes"/>
      <point x="170" y="45"/>
      <point x="192" y="45" type="qcurve" smooth="yes"/>
      <point x="213" y="45"/>
      <point x="227" y="66" type="qcurve" smooth="yes"/>
      <point x="242" y="87"/>
      <point x="242" y="117" type="qcurve"/>
    </contour>
  </outline>
</glyph>
<glyph name="uni0BA9_uni0BC0" format="1">
  <advance width="882"/>
  <outline>
    <contour>
      <point x="1021" y="530" type="line"/>
      <point x="1021" y="490"/>
      <point x="994" y="465" type="qcurve" smooth="yes"/>
      <point x="967" y="441"/>
      <point x="923" y="441" type="qcurve" smooth="yes"/>
      <point x="879" y="441"/>
      <point x="852" y="467" type="qcurve" smooth="yes"/>
      <point x="826" y="492"/>
      <point x="826" y="535" type="qcurve" smooth="yes"/>
      <point x="826" y="561"/>
      <point x="834" y="581" type="qcurve" smooth="yes"/>
      <point x="842" y="601"/>
      <point x="857" y="610" type="qcurve"/>
      <point x="798" y="610"/>
      <point x="756" y="574" type="qcurve" smooth="yes"/>
      <point x="714" y="539"/>
      <point x="714" y="488" type="qcurve" smooth="yes"/>
      <point x="714" y="463"/>
      <point x="722" y="441" type="qcurve" smooth="yes"/>
      <point x="729" y="418"/>
      <point x="744" y="400" type="qcurve"/>
      <point x="876" y="400" type="line"/>
      <point x="876" y="367" type="line"/>
      <point x="768" y="367" type="line"/>
      <point x="768" y="0" type="line"/>
      <point x="693" y="0" type="line"/>
      <point x="693" y="367" type="line"/>
      <point x="635" y="367" type="line" smooth="yes"/>
      <point x="592" y="367"/>
      <point x="559" y="357" type="qcurve" smooth="yes"/>
      <point x="527" y="346"/>
      <point x="510" y="327" type="qcurve"/>
      <point x="551" y="291"/>
      <point x="574" y="241" type="qcurve" smooth="yes"/>
      <point x="597" y="191"/>
      <point x="597" y="137" type="qcurve" smooth="yes"/>
      <point x="597" y="78"/>
      <point x="566" y="37" type="qcurve" smooth="yes"/>
      <point x="534" y="-5"/>
      <point x="490" y="-5" type="qcurve" smooth="yes"/>
      <point x="446" y="-5"/>
      <point x="414" y="37" type="qcurve" smooth="yes"/>
      <point x="383" y="78"/>
      <point x="383" y="137" type="qcurve" smooth="yes"/>
      <point x="383" y="190"/>
      <point x="401" y="236" type="qcurve" smooth="yes"/>
      <point x="420" y="282"/>
      <point x="453" y="312" type="qcurve"/>
      <point x="421" y="339"/>
      <point x="377" y="353" type="qcurve" smooth="yes"/>
      <point x="333" y="367"/>
      <point x="282" y="367" type="qcurve" smooth="yes"/>
      <point x="193" y="367"/>
      <point x="130" y="310" type="qcurve" smooth="yes"/>
      <point x="67" y="253"/>
      <point x="67" y="172" type="qcurve" smooth="yes"/>
      <point x="67" y="121"/>
      <point x="88" y="83" type="qcurve" smooth="yes"/>
      <point x="108" y="45"/>
      <point x="141" y="35" type="qcurve"/>
      <point x="126" y="45"/>
      <point x="117" y="70" type="qcurve" smooth="yes"/>
      <point x="108" y="94"/>
      <point x="108" y="127" type="qcurve" smooth="yes"/>
      <point x="108" y="176"/>
      <point x="136" y="205" type="qcurve" smooth="yes"/>
      <point x="165" y="234"/>
      <point x="212" y="234" type="qcurve" smooth="yes"/>
      <point x="255" y="234"/>
      <point x="286" y="201" type="qcurve" smooth="yes"/>
      <point x="317" y="167"/>
      <point x="317" y="120" type="qcurve" smooth="yes"/>
      <point x="317" y="63"/>
      <point x="281" y="29" type="qcurve" smooth="yes"/>
      <point x="245" y="-5"/>
      <point x="185" y="-5" type="qcurve" smooth="yes"/>
      <point x="124" y="-5"/>
      <point x="80" y="46" type="qcurve" smooth="yes"/>
      <point x="37" y="98"/>
      <point x="37" y="170" type="qcurve" smooth="yes"/>
      <point x="37" y="264"/>
      <point x="113" y="331" type="qcurve" smooth="yes"/>
      <point x="188" y="397"/>
      <point x="295" y="397" type="qcurve" smooth="yes"/>
      <point x="360" y="397"/>
      <point x="410" y="384" type="qcurve" smooth="yes"/>
      <point x="461" y="372"/>
      <point x="490" y="348" type="qcurve"/>
      <point x="511" y="373"/>
      <point x="549" y="386" type="qcurve" smooth="yes"/>
      <point x="587" y="400"/>
      <point x="636" y="400" type="qcurve" smooth="yes"/>
      <point x="707" y="400" type="line"/>
      <point x="684" y="437"/>
      <point x="684" y="489" type="qcurve" smooth="yes"/>
      <point x="684" y="557"/>
      <point x="738" y="606" type="qcurve" smooth="yes"/>
      <point x="793" y="654"/>
      <point x="870" y="654" type="qcurve" smooth="yes"/>
      <point x="939" y="654"/>
      <point x="980" y="620" type="qcurve" smooth="yes"/>
      <point x="1021" y="586"/>
      <point x="1021" y="530" type="qcurve"/>
    </contour>
    <contour>
      <point x="946" y="535" type="line"/>
      <point x="946" y="564"/>
      <point x="933" y="584" type="qcurve" smooth="yes"/>
      <point x="920" y="605"/>
      <point x="902" y="605" type="qcurve" smooth="yes"/>
      <point x="883" y="605"/>
      <point x="869" y="585" type="qcurve" smooth="yes"/>
      <point x="856" y="565"/>
      <point x="856" y="536" type="qcurve" smooth="yes"/>
      <point x="856" y="509"/>
      <point x="869" y="490" type="qcurve" smooth="yes"/>
      <point x="882" y="471"/>
      <point x="901" y="471" type="qcurve" smooth="yes"/>
      <point x="920" y="471"/>
      <point x="933" y="490" type="qcurve" smooth="yes"/>
      <point x="946" y="508"/>
      <point x="946" y="535" type="qcurve"/>
    </contour>
    <contour>
      <point x="522" y="137" type="line"/>
      <point x="522" y="184"/>
      <point x="508" y="223" type="qcurve" smooth="yes"/>
      <point x="493" y="261"/>
      <point x="467" y="284" type="qcurve"/>
      <point x="441" y="264"/>
      <point x="427" y="225" type="qcurve" smooth="yes"/>
      <point x="413" y="187"/>
      <point x="413" y="137" type="qcurve" smooth="yes"/>
      <point x="413" y="100"/>
      <point x="429" y="73" type="qcurve" smooth="yes"/>
      <point x="445" y="47"/>
      <point x="468" y="47" type="qcurve" smooth="yes"/>
      <point x="490" y="47"/>
      <point x="506" y="73" type="qcurve" smooth="yes"/>
      <point x="522" y="100"/>
      <point x="522" y="137" type="qcurve"/>
    </contour>
    <contour>
      <point x="242" y="120" type="line"/>
      <point x="242" y="149"/>
      <point x="227" y="169" type="qcurve" smooth="yes"/>
      <point x="212" y="189"/>
      <point x="190" y="189" type="qcurve" smooth="yes"/>
      <point x="168" y="189"/>
      <point x="153" y="169" type="qcurve" smooth="yes"/>
      <point x="138" y="150"/>
      <point x="138" y="122" type="qcurve" smooth="yes"/>
      <point x="138" y="91"/>
      <point x="154" y="69" type="qcurve" smooth="yes"/>
      <point x="170" y="47"/>
      <point x="192" y="47" type="qcurve" smooth="yes"/>
      <point x="213" y="47"/>
      <point x="227" y="68" type="qcurve" smooth="yes"/>
      <point x="242" y="90"/>
      <point x="242" y="120" type="qcurve"/>
    </contour>
  </outline>
</glyph>
<glyph name="uni0BA9_uni0BC2" format="1">
  <advance width="1318"/>
  <outline>
    <contour>
      <point x="1312" y="367" type="line"/>
      <point x="1200" y="367" type="line"/>
      <point x="1200" y="-98" type="line"/>
      <point x="1125" y="-98" type="line"/>
      <point x="1125" y="367" type="line"/>
      <point x="962" y="367" type="line"/>
      <point x="962" y="-98" type="line"/>
      <point x="749" y="-98" type="line"/>
      <point x="688" y="-177"/>
      <point x="574" y="-220" type="qcurve" smooth="yes"/>
      <point x="461" y="-264"/>
      <point x="319" y="-264" type="qcurve" smooth="yes"/>
      <point x="194" y="-264"/>
      <point x="105" y="-220" type="qcurve" smooth="yes"/>
      <point x="17" y="-177"/>
      <point x="17" y="-115" type="qcurve" smooth="yes"/>
      <point x="17" y="-96"/>
      <point x="40" y="-82" type="qcurve" smooth="yes"/>
      <point x="62" y="-68"/>
      <point x="94" y="-68" type="qcurve" smooth="yes"/>
      <point x="701" y="-68" type="line"/>
      <point x="725" y="-31"/>
      <point x="737" y="25" type="qcurve" smooth="yes"/>
      <point x="750" y="81"/>
      <point x="750" y="152" type="qcurve" smooth="yes"/>
      <point x="750" y="250"/>
      <point x="713" y="308" type="qcurve" smooth="yes"/>
      <point x="677" y="367"/>
      <point x="616" y="367" type="qcurve" smooth="yes"/>
      <point x="586" y="367"/>
      <point x="561" y="357" type="qcurve" smooth="yes"/>
      <point x="536" y="347"/>
      <point x="520" y="328" type="qcurve"/>
      <point x="561" y="292"/>
      <point x="583" y="242" type="qcurve" smooth="yes"/>
      <point x="606" y="192"/>
      <point x="606" y="137" type="qcurve" smooth="yes"/>
      <point x="606" y="73"/>
      <point x="577" y="34" type="qcurve" smooth="yes"/>
      <point x="548" y="-5"/>
      <point x="499" y="-5" type="qcurve" smooth="yes"/>
      <point x="450" y="-5"/>
      <point x="421" y="34" type="qcurve" smooth="yes"/>
      <point x="392" y="73"/>
      <point x="392" y="137" type="qcurve" smooth="yes"/>
      <point x="392" y="193"/>
      <point x="409" y="238" type="qcurve" smooth="yes"/>
      <point x="426" y="284"/>
      <point x="457" y="312" type="qcurve"/>
      <point x="431" y="338"/>
      <point x="388" y="353" type="qcurve" smooth="yes"/>
      <point x="345" y="367"/>
      <point x="292" y="367" type="qcurve" smooth="yes"/>
      <point x="198" y="367"/>
      <point x="132" y="310" type="qcurve" smooth="yes"/>
      <point x="66" y="253"/>
      <point x="66" y="172" type="qcurve" smooth="yes"/>
      <point x="66" y="122"/>
      <point x="89" y="84" type="qcurve" smooth="yes"/>
      <point x="113" y="46"/>
      <point x="150" y="35" type="qcurve"/>
      <point x="135" y="45"/>
      <point x="126" y="69" type="qcurve" smooth="yes"/>
      <point x="117" y="92"/>
      <point x="117" y="122" type="qcurve" smooth="yes"/>
      <point x="117" y="171"/>
      <point x="145" y="200" type="qcurve" smooth="yes"/>
      <point x="174" y="229"/>
      <point x="221" y="229" type="qcurve" smooth="yes"/>
      <point x="269" y="229"/>
      <point x="297" y="199" type="qcurve" smooth="yes"/>
      <point x="326" y="169"/>
      <point x="326" y="120" type="qcurve" smooth="yes"/>
      <point x="326" y="63"/>
      <point x="291" y="29" type="qcurve" smooth="yes"/>
      <point x="257" y="-5"/>
      <point x="199" y="-5" type="qcurve" smooth="yes"/>
      <point x="131" y="-5"/>
      <point x="84" y="46" type="qcurve" smooth="yes"/>
      <point x="36" y="98"/>
      <point x="36" y="170" type="qcurve" smooth="yes"/>
      <point x="36" y="264"/>
      <point x="112" y="331" type="qcurve" smooth="yes"/>
      <point x="187" y="397"/>
      <point x="294" y="397" type="qcurve" smooth="yes"/>
      <point x="364" y="397"/>
      <point x="417" y="384" type="qcurve" smooth="yes"/>
      <point x="470" y="372"/>
      <point x="499" y="348" type="qcurve"/>
      <point x="521" y="371"/>
      <point x="555" y="384" type="qcurve" smooth="yes"/>
      <point x="589" y="397"/>
      <point x="630" y="397" type="qcurve" smooth="yes"/>
      <point x="718" y="397"/>
      <point x="772" y="330" type="qcurve" smooth="yes"/>
      <point x="825" y="262"/>
      <point x="825" y="150" type="qcurve" smooth="yes"/>
      <point x="825" y="20"/>
      <point x="770" y="-68" type="qcurve"/>
      <point x="932" y="-68" type="line"/>
      <point x="932" y="400" type="line"/>
      <point x="1312" y="400" type="line"/>
      <point x="1312" y="367" type="line"/>
    </contour>
    <contour>
      <point x="531" y="137" type="line"/>
      <point x="531" y="186"/>
      <point x="516" y="226" type="qcurve" smooth="yes"/>
      <point x="502" y="266"/>
      <point x="475" y="289" type="qcurve"/>
      <point x="450" y="266"/>
      <point x="436" y="226" type="qcurve" smooth="yes"/>
      <point x="422" y="187"/>
      <point x="422" y="137" type="qcurve" smooth="yes"/>
      <point x="422" y="100"/>
      <point x="438" y="73" type="qcurve" smooth="yes"/>
      <point x="454" y="47"/>
      <point x="477" y="47" type="qcurve" smooth="yes"/>
      <point x="499" y="47"/>
      <point x="515" y="73" type="qcurve" smooth="yes"/>
      <point x="531" y="100"/>
      <point x="531" y="137" type="qcurve"/>
    </contour>
    <contour>
      <point x="251" y="115" type="line"/>
      <point x="251" y="144"/>
      <point x="235" y="164" type="qcurve" smooth="yes"/>
      <point x="219" y="184"/>
      <point x="197" y="184" type="qcurve" smooth="yes"/>
      <point x="176" y="184"/>
      <point x="162" y="164" type="qcurve" smooth="yes"/>
      <point x="147" y="144"/>
      <point x="147" y="115" type="qcurve" smooth="yes"/>
      <point x="147" y="87"/>
      <point x="163" y="67" type="qcurve" smooth="yes"/>
      <point x="179" y="47"/>
      <point x="201" y="47" type="qcurve" smooth="yes"/>
      <point x="222" y="47"/>
      <point x="236" y="67" type="qcurve" smooth="yes"/>
      <point x="251" y="87"/>
      <point x="251" y="115" type="qcurve"/>
    </contour>
    <contour>
      <point x="678" y="-98" type="line"/>
      <point x="97" y="-98" type="line" smooth="yes"/>
      <point x="76" y="-98"/>
      <point x="62" y="-104" type="qcurve" smooth="yes"/>
      <point x="47" y="-109"/>
      <point x="47" y="-117" type="qcurve" smooth="yes"/>
      <point x="47" y="-165"/>
      <point x="127" y="-200" type="qcurve" smooth="yes"/>
      <point x="207" y="-234"/>
      <point x="320" y="-234" type="qcurve" smooth="yes"/>
      <point x="447" y="-234"/>
      <point x="543" y="-198" type="qcurve" smooth="yes"/>
      <point x="638" y="-161"/>
      <point x="678" y="-98" type="qcurve"/>
    </contour>
  </outline>
</glyph>
<glyph name="uni0BAA_uni0BBF" format="1">
  <advance width="817"/>
  <outline>
    <contour>
      <point x="747" y="0" type="line"/>
      <point x="717" y="0" type="line"/>
      <point x="717" y="434" type="line" smooth="yes"/>
      <point x="717" y="500"/>
      <point x="678" y="547" type="qcurve" smooth="yes"/>
      <point x="639" y="594"/>
      <point x="584" y="594" type="qcurve" smooth="yes"/>
      <point x="521" y="594"/>
      <point x="477" y="554" type="qcurve" smooth="yes"/>
      <point x="433" y="515"/>
      <point x="433" y="459" type="qcurve" smooth="yes"/>
      <point x="433" y="409"/>
      <point x="458" y="374" type="qcurve" smooth="yes"/>
      <point x="483" y="339"/>
      <point x="519" y="339" type="qcurve"/>
      <point x="519" y="400" type="line"/>
      <point x="594" y="400" type="line"/>
      <point x="594" y="0" type="line"/>
      <point x="70" y="0" type="line"/>
      <point x="70" y="400" type="line"/>
      <point x="145" y="400" type="line"/>
      <point x="145" y="30" type="line"/>
      <point x="519" y="30" type="line"/>
      <point x="519" y="308" type="line"/>
      <point x="471" y="308"/>
      <point x="437" y="354" type="qcurve" smooth="yes"/>
      <point x="403" y="401"/>
      <point x="403" y="466" type="qcurve" smooth="yes"/>
      <point x="403" y="547"/>
      <point x="455" y="604" type="qcurve" smooth="yes"/>
      <point x="508" y="661"/>
      <point x="582" y="661" type="qcurve" smooth="yes"/>
      <point x="657" y="661"/>
      <point x="702" y="599" type="qcurve" smooth="yes"/>
      <point x="747" y="538"/>
      <point x="747" y="435" type="qcurve" smooth="yes"/>
      <point x="747" y="0" type="line"/>
    </contour>
  </outline>
</glyph>
<glyph name="uni0BAA_uni0BC0" format="1">
  <advance width="665"/>
  <outline>
    <contour>
      <point x="766" y="535" type="line"/>
      <point x="766" y="493"/>
      <point x="737" y="467" type="qcurve" smooth="yes"/>
      <point x="709" y="442"/>
      <point x="661" y="442" type="qcurve" smooth="yes"/>
      <point x="620" y="442"/>
      <point x="596" y="467" type="qcurve" smooth="yes"/>
      <point x="571" y="492"/>
      <point x="571" y="534" type="qcurve" smooth="yes"/>
      <point x="571" y="559"/>
      <point x="579" y="579" type="qcurve" smooth="yes"/>
      <point x="586" y="599"/>
      <point x="600" y="611" type="qcurve"/>
      <point x="531" y="611"/>
      <point x="483" y="567" type="qcurve" smooth="yes"/>
      <point x="434" y="523"/>
      <point x="434" y="460" type="qcurve" smooth="yes"/>
      <point x="434" y="409"/>
      <point x="459" y="374" type="qcurve" smooth="yes"/>
      <point x="484" y="338"/>
      <point x="520" y="338" type="qcurve"/>
      <point x="520" y="400" type="line"/>
      <point x="595" y="400" type="line"/>
      <point x="595" y="0" type="line"/>
      <point x="70" y="0" type="line"/>
      <point x="70" y="400" type="line"/>
      <point x="145" y="400" type="line"/>
      <point x="145" y="30" type="line"/>
      <point x="520" y="30" type="line"/>
      <point x="520" y="307" type="line"/>
      <point x="472" y="307"/>
      <point x="438" y="353" type="qcurve" smooth="yes"/>
      <point x="404" y="399"/>
      <point x="404" y="464" type="qcurve" smooth="yes"/>
      <point x="404" y="542"/>
      <point x="462" y="597" type="qcurve" smooth="yes"/>
      <point x="520" y="652"/>
      <point x="602" y="652" type="qcurve" smooth="yes"/>
      <point x="676" y="652"/>
      <point x="721" y="620" type="qcurve" smooth="yes"/>
      <point x="766" y="588"/>
      <point x="766" y="535" type="qcurve"/>
    </contour>
    <contour>
      <point x="691" y="535" type="line"/>
      <point x="691" y="564"/>
      <point x="678" y="584" type="qcurve" smooth="yes"/>
      <point x="666" y="604"/>
      <point x="648" y="604" type="qcurve" smooth="yes"/>
      <point x="629" y="604"/>
      <point x="615" y="584" type="qcurve" smooth="yes"/>
      <point x="601" y="564"/>
      <point x="601" y="535" type="qcurve" smooth="yes"/>
      <point x="601" y="509"/>
      <point x="614" y="490" type="qcurve" smooth="yes"/>
      <point x="628" y="472"/>
      <point x="647" y="472" type="qcurve" smooth="yes"/>
      <point x="665" y="472"/>
      <point x="678" y="490" type="qcurve" smooth="yes"/>
      <point x="691" y="509"/>
      <point x="691" y="535" type="qcurve"/>
    </contour>
  </outline>
</glyph>
<glyph name="uni0BAA_uni0BC2" format="1">
  <advance width="762"/>
  <outline>
    <contour>
      <point x="70" y="400" type="line"/>
      <point x="145" y="400" type="line"/>
      <point x="145" y="30" type="line"/>
      <point x="520" y="30" type="line"/>
      <point x="520" y="400" type="line"/>
      <point x="595" y="400" type="line"/>
      <point x="595" y="28" type="line"/>
      <point x="609" y="41"/>
      <point x="629" y="48" type="qcurve" smooth="yes"/>
      <point x="648" y="55"/>
      <point x="671" y="55" type="qcurve" smooth="yes"/>
      <point x="710" y="55"/>
      <point x="738" y="27" type="qcurve" smooth="yes"/>
      <point x="766" y="-2"/>
      <point x="766" y="-42" type="qcurve" smooth="yes"/>
      <point x="766" y="-131"/>
      <point x="666" y="-185" type="qcurve" smooth="yes"/>
      <point x="567" y="-239"/>
      <point x="401" y="-239" type="qcurve" smooth="yes"/>
      <point x="240" y="-239"/>
      <point x="129" y="-206" type="qcurve" smooth="yes"/>
      <point x="17" y="-173"/>
      <point x="17" y="-123" type="qcurve" smooth="yes"/>
      <point x="17" y="-90"/>
      <point x="70" y="-67" type="qcurve" smooth="yes"/>
      <point x="122" y="-44"/>
      <point x="197" y="-44" type="qcurve" smooth="yes"/>
      <point x="317" y="-44"/>
      <point x="418" y="-85" type="qcurve"/>
      <point x="416" y="-116" type="line"/>
      <point x="301" y="-74"/>
      <point x="197" y="-74" type="qcurve" smooth="yes"/>
      <point x="135" y="-74"/>
      <point x="91" y="-89" type="qcurve" smooth="yes"/>
      <point x="47" y="-103"/>
      <point x="47" y="-124" type="qcurve" smooth="yes"/>
      <point x="47" y="-152"/>
      <point x="165" y="-181" type="qcurve" smooth="yes"/>
      <point x="283" y="-209"/>
      <point x="399" y="-209" type="qcurve" smooth="yes"/>
      <point x="527" y="-209"/>
      <point x="604" y="-163" type="qcurve" smooth="yes"/>
      <point x="681" y="-117"/>
      <point x="681" y="-40" type="qcurve" smooth="yes"/>
      <point x="681" y="-21"/>
      <point x="667" y="-7" type="qcurve" smooth="yes"/>
      <point x="653" y="7"/>
      <point x="634" y="7" type="qcurve" smooth="yes"/>
      <point x="618" y="7"/>
      <point x="606" y="-3" type="qcurve" smooth="yes"/>
      <point x="595" y="-12"/>
      <point x="595" y="-26" type="qcurve" smooth="yes"/>
      <point x="595" y="-166" type="line"/>
      <point x="520" y="-166" type="line"/>
      <point x="520" y="0" type="line"/>
      <point x="70" y="0" type="line"/>
      <point x="70" y="400" type="line"/>
    </contour>
  </outline>
</glyph>
<glyph name="uni0BAE_uni0BC1" format="1">
  <advance width="916"/>
  <outline>
    <contour>
      <point x="565" y="272" type="line" smooth="yes"/>
      <point x="565" y="325"/>
      <point x="608" y="363" type="qcurve" smooth="yes"/>
      <point x="651" y="401"/>
      <point x="711" y="401" type="qcurve" smooth="yes"/>
      <point x="783" y="401"/>
      <point x="827" y="340" type="qcurve" smooth="yes"/>
      <point x="870" y="279"/>
      <point x="870" y="178" type="qcurve" smooth="yes"/>
      <point x="870" y="97"/>
      <point x="837" y="49" type="qcurve" smooth="yes"/>
      <point x="804" y="0"/>
      <point x="749" y="0" type="qcurve" smooth="yes"/>
      <point x="640" y="0" type="line"/>
      <point x="640" y="-43" type="line" smooth="yes"/>
      <point x="640" y="-114"/>
      <point x="557" y="-165" type="qcurve" smooth="yes"/>
      <point x="474" y="-215"/>
      <point x="357" y="-215" type="qcurve" smooth="yes"/>
      <point x="227" y="-215"/>
      <point x="134" y="-124" type="qcurve" smooth="yes"/>
      <point x="42" y="-33"/>
      <point x="42" y="95" type="qcurve" smooth="yes"/>
      <point x="42" y="195"/>
      <point x="88" y="275" type="qcurve" smooth="yes"/>
      <point x="134" y="356"/>
      <point x="211" y="392" type="qcurve"/>
      <point x="222" y="364" type="line"/>
      <point x="153" y="330"/>
      <point x="113" y="258" type="qcurve" smooth="yes"/>
      <point x="72" y="186"/>
      <point x="72" y="97" type="qcurve" smooth="yes"/>
      <point x="72" y="-20"/>
      <point x="155" y="-102" type="qcurve" smooth="yes"/>
      <point x="238" y="-185"/>
      <point x="355" y="-185" type="qcurve" smooth="yes"/>
      <point x="442" y="-185"/>
      <point x="503" y="-144" type="qcurve" smooth="yes"/>
      <point x="565" y="-103"/>
      <point x="565" y="-45" type="qcurve" smooth="yes"/>
      <point x="565" y="0" type="line"/>
      <point x="304" y="0" type="line"/>
      <point x="304" y="400" type="line"/>
      <point x="379" y="400" type="line"/>
      <point x="379" y="30" type="line"/>
      <point x="565" y="30" type="line"/>
    </contour>
    <contour>
      <point x="640" y="275" type="qcurve" smooth="yes"/>
      <point x="640" y="30" type="line"/>
      <point x="739" y="30" type="line" smooth="yes"/>
      <point x="785" y="30"/>
      <point x="812" y="71" type="qcurve" smooth="yes"/>
      <point x="840" y="112"/>
      <point x="840" y="180" type="qcurve" smooth="yes"/>
      <point x="840" y="267"/>
      <point x="807" y="319" type="qcurve" smooth="yes"/>
      <point x="773" y="371"/>
      <point x="718" y="371" type="qcurve" smooth="yes"/>
      <point x="686" y="371"/>
      <point x="663" y="343" type="qcurve" smooth="yes"/>
      <point x="640" y="315"/>
    </contour>
  </outline>
</glyph>
<glyph name="uni0BAF_uni0BBF" format="1">
  <advance width="836"/>
  <outline>
    <contour>
      <point x="766" y="0" type="line"/>
      <point x="736" y="0" type="line"/>
      <point x="736" y="434" type="line" smooth="yes"/>
      <point x="736" y="500"/>
      <point x="697" y="547" type="qcurve" smooth="yes"/>
      <point x="659" y="594"/>
      <point x="604" y="594" type="qcurve" smooth="yes"/>
      <point x="542" y="594"/>
      <point x="499" y="554" type="qcurve" smooth="yes"/>
      <point x="455" y="515"/>
      <point x="455" y="459" type="qcurve" smooth="yes"/>
      <point x="455" y="410"/>
      <point x="479" y="375" type="qcurve" smooth="yes"/>
      <point x="504" y="340"/>
      <point x="538" y="340" type="qcurve"/>
      <point x="538" y="400" type="line"/>
      <point x="613" y="400" type="line"/>
      <point x="613" y="0" type="line"/>
      <point x="261" y="0" type="line"/>
      <point x="261" y="66" type="line"/>
      <point x="256" y="36"/>
      <point x="230" y="16" type="qcurve" smooth="yes"/>
      <point x="204" y="-4"/>
      <point x="169" y="-4" type="qcurve" smooth="yes"/>
      <point x="126" y="-4"/>
      <point x="95" y="32" type="qcurve" smooth="yes"/>
      <point x="64" y="68"/>
      <point x="64" y="119" type="qcurve" smooth="yes"/>
      <point x="64" y="400" type="line"/>
      <point x="139" y="400" type="line"/>
      <point x="139" y="113" type="line" smooth="yes"/>
      <point x="139" y="77"/>
      <point x="154" y="51" type="qcurve" smooth="yes"/>
      <point x="169" y="26"/>
      <point x="191" y="26" type="qcurve" smooth="yes"/>
      <point x="213" y="26"/>
      <point x="228" y="51" type="qcurve" smooth="yes"/>
      <point x="244" y="76"/>
      <point x="244" y="112" type="qcurve" smooth="yes"/>
      <point x="244" y="400" type="line"/>
      <point x="319" y="400" type="line"/>
      <point x="319" y="30" type="line"/>
      <point x="538" y="30" type="line"/>
      <point x="538" y="308" type="line"/>
      <point x="491" y="308"/>
      <point x="458" y="353" type="qcurve" smooth="yes"/>
      <point x="425" y="397"/>
      <point x="425" y="460" type="qcurve" smooth="yes"/>
      <point x="425" y="551"/>
      <point x="473" y="606" type="qcurve" smooth="yes"/>
      <point x="522" y="661"/>
      <point x="602" y="661" type="qcurve" smooth="yes"/>
      <point x="676" y="661"/>
      <point x="721" y="599" type="qcurve" smooth="yes"/>
      <point x="766" y="538"/>
      <point x="766" y="435" type="qcurve" smooth="yes"/>
      <point x="766" y="0" type="line"/>
    </contour>
  </outline>
</glyph>
<glyph name="uni0BB0_uni0BBF" format="1">
  <advance width="599"/>
  <outline>
    <contour>
      <point x="323" y="14" type="line"/>
      <point x="62" y="-165" type="line"/>
      <point x="46" y="-142" type="line"/>
      <point x="248" y="0" type="line"/>
      <point x="248" y="370" type="line"/>
      <point x="100" y="370" type="line"/>
      <point x="100" y="0" type="line"/>
      <point x="70" y="0" type="line"/>
      <point x="70" y="400" type="line"/>
      <point x="258" y="400" type="line"/>
      <point x="237" y="435"/>
      <point x="237" y="485" type="qcurve" smooth="yes"/>
      <point x="237" y="557"/>
      <point x="280" y="609" type="qcurve" smooth="yes"/>
      <point x="324" y="660"/>
      <point x="385" y="660" type="qcurve" smooth="yes"/>
      <point x="450" y="660"/>
      <point x="490" y="606" type="qcurve" smooth="yes"/>
      <point x="529" y="553"/>
      <point x="529" y="464" type="qcurve" smooth="yes"/>
      <point x="529" y="0" type="line"/>
      <point x="499" y="0" type="line"/>
      <point x="499" y="462" type="line" smooth="yes"/>
      <point x="499" y="515"/>
      <point x="464" y="553" type="qcurve" smooth="yes"/>
      <point x="429" y="591"/>
      <point x="380" y="591" type="qcurve" smooth="yes"/>
      <point x="333" y="591"/>
      <point x="300" y="559" type="qcurve" smooth="yes"/>
      <point x="267" y="527"/>
      <point x="267" y="481" type="qcurve" smooth="yes"/>
      <point x="267" y="457"/>
      <point x="273" y="436" type="qcurve" smooth="yes"/>
      <point x="279" y="416"/>
      <point x="291" y="400" type="qcurve"/>
      <point x="445" y="400" type="line"/>
      <point x="445" y="370" type="line"/>
      <point x="323" y="370" type="line"/>
      <point x="323" y="14" type="line"/>
    </contour>
  </outline>
</glyph>
<glyph name="uni0BB0_uni0BC0" format="1">
  <advance width="450"/>
  <outline>
    <contour>
      <point x="496" y="535" type="line"/>
      <point x="496" y="564"/>
      <point x="483" y="584" type="qcurve" smooth="yes"/>
      <point x="470" y="605"/>
      <point x="452" y="605" type="qcurve" smooth="yes"/>
      <point x="433" y="605"/>
      <point x="419" y="585" type="qcurve" smooth="yes"/>
      <point x="405" y="565"/>
      <point x="405" y="536" type="qcurve" smooth="yes"/>
      <point x="405" y="509"/>
      <point x="418" y="490" type="qcurve" smooth="yes"/>
      <point x="432" y="471"/>
      <point x="451" y="471" type="qcurve" smooth="yes"/>
      <point x="470" y="471"/>
      <point x="483" y="490" type="qcurve" smooth="yes"/>
      <point x="496" y="508"/>
      <point x="496" y="535" type="qcurve"/>
    </contour>
    <contour>
      <point x="323" y="14" type="line"/>
      <point x="62" y="-165" type="line"/>
      <point x="46" y="-142" type="line"/>
      <point x="248" y="0" type="line"/>
      <point x="248" y="370" type="line"/>
      <point x="100" y="370" type="line"/>
      <point x="100" y="0" type="line"/>
      <point x="70" y="0" type="line"/>
      <point x="70" y="400" type="line"/>
      <point x="263" y="400" type="line"/>
      <point x="234" y="438"/>
      <point x="234" y="494" type="qcurve" smooth="yes"/>
      <point x="234" y="560"/>
      <point x="287" y="607" type="qcurve" smooth="yes"/>
      <point x="340" y="654"/>
      <point x="415" y="654" type="qcurve" smooth="yes"/>
      <point x="486" y="654"/>
      <point x="528" y="620" type="qcurve" smooth="yes"/>
      <point x="571" y="586"/>
      <point x="571" y="530" type="qcurve" smooth="yes"/>
      <point x="571" y="493"/>
      <point x="541" y="467" type="qcurve" smooth="yes"/>
      <point x="511" y="441"/>
      <point x="469" y="441" type="qcurve" smooth="yes"/>
      <point x="426" y="441"/>
      <point x="401" y="467" type="qcurve" smooth="yes"/>
      <point x="375" y="492"/>
      <point x="375" y="535" type="qcurve" smooth="yes"/>
      <point x="375" y="561"/>
      <point x="383" y="581" type="qcurve" smooth="yes"/>
      <point x="391" y="601"/>
      <point x="406" y="610" type="qcurve"/>
      <point x="347" y="610"/>
      <point x="306" y="573" type="qcurve" smooth="yes"/>
      <point x="264" y="536"/>
      <point x="264" y="483" type="qcurve" smooth="yes"/>
      <point x="264" y="458"/>
      <point x="273" y="437" type="qcurve" smooth="yes"/>
      <point x="281" y="415"/>
      <point x="297" y="400" type="qcurve"/>
      <point x="445" y="400" type="line"/>
      <point x="445" y="370" type="line"/>
      <point x="323" y="370" type="line"/>
      <point x="323" y="14" type="line"/>
    </contour>
  </outline>
</glyph>
<glyph name="uni0BB0_uni0BCD" format="1">
  <advance width="450"/>
  <outline>
    <contour>
      <point x="445" y="370" type="line"/>
      <point x="323" y="370" type="line"/>
      <point x="323" y="14" type="line"/>
      <point x="63" y="-165" type="line"/>
      <point x="46" y="-142" type="line"/>
      <point x="248" y="0" type="line"/>
      <point x="248" y="370" type="line"/>
      <point x="100" y="370" type="line"/>
      <point x="100" y="0" type="line"/>
      <point x="70" y="0" type="line"/>
      <point x="70" y="400" type="line"/>
      <point x="445" y="400" type="line"/>
      <point x="445" y="370" type="line"/>
    </contour>
    <contour>
      <point x="292" y="598" type="line"/>
      <point x="292" y="573"/>
      <point x="272" y="555" type="qcurve" smooth="yes"/>
      <point x="253" y="537"/>
      <point x="225" y="537" type="qcurve" smooth="yes"/>
      <point x="198" y="537"/>
      <point x="178" y="555" type="qcurve" smooth="yes"/>
      <point x="159" y="573"/>
      <point x="159" y="598" type="qcurve" smooth="yes"/>
      <point x="159" y="623"/>
      <point x="178" y="640" type="qcurve" smooth="yes"/>
      <point x="198" y="658"/>
      <point x="225" y="658" type="qcurve" smooth="yes"/>
      <point x="253" y="658"/>
      <point x="272" y="640" type="qcurve" smooth="yes"/>
      <point x="292" y="623"/>
      <point x="292" y="598" type="qcurve"/>
    </contour>
  </outline>
</glyph>
